<?xml version="1.0" encoding="utf-8"?>
<svg viewBox="0 0 352.384 297.929" xmlns="http://www.w3.org/2000/svg">
  <g transform="matrix(1, 0, 0, 1, 45.795804, -29.668438)">
    <path d="M 74.156 284.343 C 73.906 284.355 73.658 284.289 73.446 284.154 C 73.234 284.019 73.069 283.822 72.972 283.589 C 72.875 283.357 72.852 283.1 72.905 282.853 C 72.959 282.607 73.086 282.383 73.27 282.212 C 73.301 282.088 73.323 282 73.354 281.877 C 73.114 281.264 72.698 280.738 72.159 280.365 C 71.62 279.992 70.982 279.789 70.328 279.783 C 69.673 279.777 69.032 279.967 68.486 280.33 C 67.94 280.693 67.514 281.211 67.263 281.819 C 65.813 285.231 63.938 288.763 64.871 292.521 C 58.709 279.387 60.804 263.049 69.911 251.817 C 72.428 250.423 74.468 247.945 74.999 245.068 C 73.753 245.493 72.2 244.474 73.137 243.154 C 73.543 242.65 73.953 242.149 74.358 241.645 C 69.626 236.576 63.988 244.542 69.197 251.383 C 67.493 253.532 66.017 255.854 64.793 258.311 C 65.076 255.702 64.739 253.062 63.809 250.61 C 62.867 248.324 61.101 246.399 59.546 244.423 C 57.656 242.016 53.765 243.126 53.51 246.182 C 55.255 246.758 55.482 249.293 53.486 249.64 C 54.009 255.324 57.701 260.547 62.786 263.04 C 60.908 268.339 60.175 273.98 60.635 279.586 C 59.737 273.034 52.744 271.444 47.856 268.84 C 47.544 268.639 47.182 268.534 46.812 268.537 C 46.443 268.54 46.082 268.651 45.774 268.856 C 45.466 269.062 45.225 269.353 45.079 269.695 C 44.933 270.036 44.888 270.413 44.952 270.779 C 45.626 271.055 46.272 271.398 46.879 271.802 C 47.164 271.995 47.382 272.271 47.505 272.593 C 47.627 272.915 47.647 273.268 47.563 273.602 C 47.478 273.936 47.293 274.236 47.032 274.46 C 46.772 274.684 46.449 274.822 46.107 274.854 C 48.571 280.987 54.941 285.105 61.484 285.082 C 62.113 287.83 63.024 290.505 64.202 293.063 L 73.913 293.063 C 73.948 292.955 73.979 292.843 74.01 292.734 C 73.112 292.791 72.209 292.737 71.323 292.573 C 73.701 289.742 75.541 288.297 74.157 284.344 L 74.156 284.343 Z" fill="#F2F2F2"/>
    <path d="M 160.729 284.343 C 160.979 284.355 161.227 284.289 161.439 284.154 C 161.651 284.019 161.816 283.822 161.913 283.589 C 162.01 283.357 162.033 283.1 161.98 282.853 C 161.926 282.607 161.799 282.383 161.615 282.212 C 161.584 282.088 161.562 282 161.531 281.877 C 161.771 281.264 162.187 280.738 162.726 280.365 C 163.265 279.992 163.903 279.789 164.557 279.783 C 165.212 279.777 165.853 279.967 166.399 280.33 C 166.945 280.693 167.371 281.211 167.622 281.819 C 169.071 285.231 170.947 288.763 170.014 292.521 C 176.176 279.387 174.081 263.049 164.974 251.817 C 162.457 250.423 160.417 247.945 159.886 245.068 C 161.132 245.493 162.685 244.474 161.748 243.154 C 161.342 242.65 160.932 242.149 160.526 241.645 C 165.258 236.576 170.897 244.542 165.688 251.383 C 167.392 253.532 168.868 255.854 170.092 258.311 C 169.809 255.702 170.146 253.062 171.076 250.61 C 172.018 248.324 173.784 246.399 175.339 244.423 C 177.229 242.016 181.12 243.126 181.375 246.182 C 179.63 246.758 179.403 249.293 181.399 249.64 C 180.876 255.324 177.184 260.547 172.099 263.04 C 173.977 268.339 174.71 273.98 174.25 279.586 C 175.148 273.034 182.141 271.444 187.029 268.84 C 187.34 268.639 187.703 268.534 188.072 268.537 C 188.442 268.54 188.803 268.651 189.111 268.856 C 189.419 269.062 189.66 269.353 189.806 269.695 C 189.952 270.036 189.996 270.413 189.933 270.779 C 189.259 271.055 188.613 271.398 188.006 271.802 C 187.721 271.995 187.502 272.271 187.38 272.593 C 187.258 272.915 187.238 273.268 187.322 273.602 C 187.407 273.936 187.592 274.236 187.853 274.46 C 188.113 274.684 188.436 274.822 188.778 274.854 C 186.314 280.987 179.943 285.105 173.401 285.082 C 172.772 287.83 171.861 290.505 170.683 293.063 L 160.972 293.063 C 160.937 292.955 160.906 292.843 160.874 292.734 C 161.773 292.791 162.676 292.737 163.561 292.573 C 161.183 289.742 159.344 288.297 160.728 284.344 L 160.729 284.343 Z" fill="#F2F2F2"/>
    <path d="M 164.329 285.794 L 160.147 286.75 L 154.487 270.983 L 160.659 269.571 L 164.329 285.794 Z" fill="#FFB6B6"/>
    <path d="M 165.469 290.147 L 152.609 293.09 L 152.572 292.927 C 152.27 291.591 152.508 290.19 153.233 289.031 C 153.958 287.873 155.111 287.051 156.439 286.747 L 156.439 286.747 L 158.382 284.417 L 163.171 285.206 L 164.293 284.949 L 165.469 290.147 Z" fill="#2F2E41"/>
    <path d="M 231.79 208.937 L 234.089 212.578 L 221.219 223.231 L 217.825 217.856 L 231.79 208.937 Z" fill="#FFB6B6"/>
    <path d="M 235.486 206.397 L 242.556 217.594 L 242.415 217.684 C 241.266 218.418 239.874 218.663 238.545 218.364 C 237.216 218.066 236.06 217.249 235.33 216.093 L 235.33 216.093 L 232.495 215.033 L 231.629 210.232 L 231.012 209.254 L 235.486 206.397 Z" fill="#2F2E41"/>
    <path d="M 98.485 170.008 L 97.452 163.987 L 113.155 156.856 L 116.547 150.817 C 116.437 150.287 116.475 149.737 116.657 149.228 C 116.839 148.719 117.158 148.27 117.577 147.931 C 117.997 147.592 118.501 147.376 119.035 147.307 C 119.569 147.239 120.111 147.32 120.602 147.542 C 121.093 147.764 121.513 148.118 121.816 148.565 C 122.12 149.012 122.294 149.534 122.321 150.075 C 122.348 150.615 122.225 151.153 121.967 151.628 C 121.709 152.103 121.325 152.497 120.859 152.766 L 115.28 161.44 L 98.485 170.008 Z" fill="#A0616A"/>
    <path d="M 93.712 165.086 L 100.783 161.453 L 102.655 168.522 L 97.744 172.184 L 93.712 165.086 Z" fill="#FD8B10"/>
    <path d="M 77.844 285.246 L 82.12 285.246 L 84.154 268.659 L 77.843 268.659 L 77.844 285.246 Z" fill="#A0616A"/>
    <path d="M 83.542 285.633 L 83.542 282.718 L 82.418 282.787 L 77.843 283.059 L 76.784 283.125 L 75.974 292.889 L 75.931 293.412 L 78.967 293.412 L 79.064 292.892 L 79.505 290.529 L 80.644 292.892 L 80.893 293.412 L 88.942 293.412 C 89.421 293.409 89.879 293.216 90.218 292.875 C 90.556 292.534 90.747 292.073 90.749 291.591 C 91.089 289.995 84.395 286.545 83.542 285.633 Z" fill="#2F2E41"/>
    <path d="M 27.09 219.42 L 26.093 223.602 L 41.656 229.459 L 43.127 223.287 L 27.09 219.42 Z" fill="#A0616A"/>
    <path d="M 25.725 224.903 L 28.544 225.583 L 28.739 224.467 L 29.542 219.929 L 29.726 218.878 L 20.474 215.809 L 19.978 215.645 L 19.271 218.614 L 19.75 218.831 L 21.932 219.813 L 19.382 220.376 L 18.821 220.498 L 16.945 228.37 C 16.836 228.84 16.916 229.333 17.166 229.743 C 17.417 230.154 17.819 230.448 18.284 230.562 C 19.748 231.267 24.644 225.525 25.725 224.903 Z" fill="#2F2E41"/>
    <path d="M 84.455 177.897 L 78.951 175.31 L 67.976 188.668 L 61.291 190.369 C 60.812 190.123 60.274 190.015 59.738 190.057 C 59.201 190.1 58.687 190.29 58.251 190.608 C 57.816 190.926 57.476 191.359 57.269 191.858 C 57.063 192.358 56.998 192.906 57.082 193.44 C 57.165 193.975 57.394 194.476 57.743 194.888 C 58.092 195.3 58.547 195.607 59.059 195.775 C 59.57 195.943 60.118 195.966 60.642 195.84 C 61.165 195.715 61.644 195.447 62.025 195.065 L 71.814 191.936 L 84.455 177.897 Z" fill="#A0616A"/>
    <path d="M 162.48 128.448 C 161.314 128.448 160.173 128.1 159.203 127.448 C 158.233 126.796 157.477 125.87 157.031 124.786 C 156.585 123.702 156.468 122.509 156.695 121.358 C 156.923 120.208 157.485 119.151 158.31 118.321 C 159.135 117.491 160.186 116.926 161.33 116.698 C 162.474 116.469 163.66 116.586 164.738 117.035 C 165.815 117.484 166.737 118.244 167.385 119.22 C 168.033 120.196 168.379 121.342 168.379 122.516 C 168.377 124.088 167.755 125.596 166.649 126.708 C 165.543 127.821 164.044 128.446 162.48 128.448 Z M 162.48 117.264 C 161.448 117.264 160.438 117.572 159.58 118.149 C 158.721 118.726 158.052 119.547 157.656 120.506 C 157.261 121.466 157.158 122.522 157.359 123.54 C 157.561 124.559 158.058 125.495 158.788 126.229 C 159.519 126.963 160.449 127.464 161.462 127.666 C 162.475 127.869 163.524 127.765 164.479 127.367 C 165.433 126.97 166.248 126.297 166.822 125.433 C 167.396 124.57 167.702 123.554 167.702 122.516 C 167.7 121.123 167.15 119.789 166.171 118.804 C 165.192 117.82 163.865 117.266 162.48 117.264 Z" fill="#E6E6E6"/>
    <path d="M 162.064 124.751 C 162.052 124.751 162.04 124.75 162.029 124.75 C 161.924 124.744 161.822 124.717 161.728 124.668 C 161.635 124.619 161.554 124.551 161.49 124.468 L 160.56 123.267 C 160.502 123.191 160.459 123.104 160.433 123.011 C 160.408 122.919 160.401 122.822 160.413 122.727 C 160.425 122.631 160.455 122.539 160.502 122.456 C 160.549 122.372 160.613 122.299 160.688 122.24 L 160.721 122.214 C 160.797 122.155 160.883 122.111 160.975 122.086 C 161.067 122.06 161.164 122.053 161.258 122.065 C 161.353 122.077 161.445 122.107 161.528 122.155 C 161.611 122.203 161.684 122.266 161.743 122.342 C 161.789 122.403 161.849 122.452 161.917 122.488 C 161.984 122.523 162.059 122.543 162.135 122.547 C 162.212 122.551 162.288 122.538 162.359 122.509 C 162.43 122.481 162.493 122.437 162.546 122.381 L 164.433 120.378 C 164.565 120.238 164.748 120.156 164.941 120.15 C 165.134 120.145 165.321 120.217 165.461 120.35 L 165.492 120.38 C 165.561 120.446 165.617 120.525 165.656 120.613 C 165.695 120.7 165.716 120.795 165.719 120.891 C 165.722 120.987 165.705 121.083 165.671 121.173 C 165.637 121.262 165.585 121.344 165.52 121.414 L 162.592 124.522 C 162.524 124.594 162.442 124.652 162.352 124.691 C 162.261 124.73 162.163 124.751 162.064 124.751 Z" fill="#E6E6E6"/>
    <path d="M 133.036 200.269 C 131.869 200.269 130.729 199.921 129.759 199.27 C 128.789 198.618 128.033 197.691 127.586 196.607 C 127.14 195.523 127.023 194.331 127.251 193.18 C 127.478 192.029 128.04 190.972 128.865 190.142 C 129.69 189.313 130.741 188.748 131.885 188.519 C 133.029 188.29 134.215 188.408 135.293 188.857 C 136.371 189.305 137.292 190.066 137.94 191.041 C 138.588 192.017 138.934 193.164 138.934 194.337 C 138.932 195.91 138.31 197.418 137.204 198.53 C 136.099 199.642 134.599 200.268 133.036 200.269 Z M 133.036 189.086 C 132.003 189.086 130.993 189.394 130.135 189.971 C 129.276 190.548 128.607 191.368 128.212 192.327 C 127.816 193.287 127.713 194.343 127.915 195.362 C 128.116 196.38 128.613 197.316 129.344 198.05 C 130.074 198.785 131.004 199.285 132.017 199.488 C 133.03 199.69 134.08 199.586 135.034 199.189 C 135.988 198.791 136.803 198.118 137.377 197.255 C 137.951 196.391 138.257 195.376 138.257 194.337 C 138.256 192.945 137.705 191.61 136.726 190.626 C 135.747 189.641 134.42 189.087 133.036 189.086 Z" fill="#E6E6E6"/>
    <path d="M 132.619 196.572 C 132.608 196.572 132.596 196.572 132.584 196.571 C 132.479 196.566 132.377 196.538 132.284 196.489 C 132.191 196.441 132.109 196.373 132.045 196.289 L 131.116 195.088 C 131.057 195.012 131.014 194.925 130.988 194.833 C 130.963 194.74 130.956 194.643 130.968 194.548 C 130.98 194.453 131.01 194.361 131.057 194.277 C 131.105 194.194 131.168 194.12 131.243 194.061 L 131.277 194.035 C 131.352 193.976 131.438 193.932 131.53 193.907 C 131.623 193.881 131.719 193.874 131.814 193.886 C 131.908 193.898 132 193.929 132.083 193.976 C 132.166 194.024 132.239 194.087 132.298 194.163 C 132.345 194.224 132.404 194.274 132.472 194.309 C 132.54 194.344 132.614 194.365 132.691 194.368 C 132.767 194.372 132.843 194.359 132.914 194.331 C 132.985 194.302 133.049 194.258 133.101 194.203 L 134.988 192.2 C 135.121 192.059 135.303 191.977 135.496 191.972 C 135.689 191.966 135.876 192.038 136.016 192.171 L 136.047 192.201 C 136.117 192.267 136.172 192.346 136.211 192.434 C 136.25 192.522 136.272 192.616 136.274 192.713 C 136.277 192.809 136.26 192.904 136.226 192.994 C 136.192 193.084 136.141 193.166 136.075 193.235 L 133.147 196.343 C 133.079 196.416 132.998 196.473 132.907 196.512 C 132.816 196.552 132.718 196.572 132.619 196.572 Z" fill="#E6E6E6"/>
    <path d="M 68.392 120.279 C 67.225 120.279 66.085 119.931 65.115 119.279 C 64.145 118.627 63.389 117.701 62.943 116.617 C 62.496 115.533 62.379 114.34 62.607 113.189 C 62.835 112.038 63.396 110.981 64.221 110.152 C 65.046 109.322 66.097 108.757 67.241 108.528 C 68.385 108.299 69.571 108.417 70.649 108.866 C 71.727 109.315 72.648 110.075 73.296 111.051 C 73.944 112.026 74.29 113.173 74.29 114.346 C 74.289 115.919 73.667 117.427 72.561 118.539 C 71.455 119.651 69.956 120.277 68.392 120.279 Z M 68.392 109.095 C 67.359 109.095 66.35 109.403 65.491 109.98 C 64.632 110.557 63.963 111.377 63.568 112.337 C 63.173 113.296 63.069 114.352 63.271 115.371 C 63.472 116.39 63.97 117.325 64.7 118.06 C 65.43 118.794 66.361 119.294 67.373 119.497 C 68.386 119.7 69.436 119.596 70.39 119.198 C 71.344 118.801 72.16 118.128 72.734 117.264 C 73.307 116.4 73.613 115.385 73.613 114.346 C 73.612 112.954 73.061 111.619 72.082 110.635 C 71.104 109.65 69.776 109.097 68.392 109.095 Z" fill="#E6E6E6"/>
    <path d="M 67.976 116.581 C 67.964 116.581 67.952 116.581 67.94 116.58 C 67.835 116.575 67.733 116.547 67.64 116.499 C 67.547 116.45 67.466 116.382 67.401 116.299 L 66.472 115.097 C 66.413 115.021 66.37 114.935 66.345 114.842 C 66.319 114.749 66.313 114.653 66.324 114.557 C 66.336 114.462 66.367 114.37 66.414 114.286 C 66.461 114.203 66.524 114.129 66.6 114.071 L 66.633 114.044 C 66.708 113.985 66.795 113.942 66.887 113.916 C 66.979 113.891 67.075 113.884 67.17 113.896 C 67.265 113.908 67.356 113.938 67.439 113.986 C 67.523 114.033 67.595 114.097 67.654 114.173 C 67.701 114.233 67.76 114.283 67.828 114.318 C 67.896 114.354 67.971 114.374 68.047 114.378 C 68.123 114.381 68.199 114.369 68.27 114.34 C 68.341 114.311 68.405 114.268 68.458 114.212 L 70.344 112.209 C 70.477 112.068 70.66 111.986 70.853 111.981 C 71.045 111.976 71.232 112.048 71.373 112.181 L 71.404 112.21 C 71.473 112.277 71.529 112.356 71.568 112.443 C 71.607 112.531 71.628 112.626 71.631 112.722 C 71.633 112.818 71.617 112.914 71.583 113.003 C 71.548 113.093 71.497 113.175 71.431 113.245 L 68.504 116.353 C 68.436 116.425 68.354 116.482 68.263 116.522 C 68.172 116.561 68.075 116.581 67.976 116.581 Z" fill="#E6E6E6"/>
    <path d="M 115.614 222.326 C 101.937 222.326 86.218 207.061 72.31 214.314 C 30.203 236.273 35.999 199.527 23.902 185.861 L 24.299 185.06 C 37.647 197.097 54.312 206.891 72.493 213.382 C 88.923 219.248 105.476 221.966 120.358 221.249 L 120.384 222.212 C 118.812 222.288 117.222 222.326 115.614 222.326 Z" fill="#F2F2F2"/>
    <path d="M 96.852 119.117 C 98.431 119.117 99.711 117.391 99.711 115.262 C 99.711 113.132 98.431 111.406 96.852 111.406 C 95.273 111.406 93.993 113.132 93.993 115.262 C 93.993 117.391 95.273 119.117 96.852 119.117 Z" fill="#E6E6E6"/>
    <path d="M 129.874 179.267 C 128.567 180.143 127.229 178.058 128.561 177.221 C 129.868 176.345 131.206 178.43 129.874 179.267 Z" fill="#E6E6E6"/>
    <path d="M 122.35 109.085 C 124.406 109.085 126.073 107.409 126.073 105.341 C 126.073 103.273 124.406 101.597 122.35 101.597 C 120.294 101.597 118.627 103.273 118.627 105.341 C 118.627 107.409 120.294 109.085 122.35 109.085 Z" fill="#FF6584"/>
    <path opacity="0.3" d="M 135.371 125.859 L 156.556 63.633 L 133.294 125.114 C 133.179 125.26 133.1 125.432 133.064 125.614 C 133.028 125.797 133.036 125.986 133.087 126.165 C 133.138 126.344 133.231 126.508 133.357 126.644 C 133.484 126.779 133.641 126.883 133.816 126.945 C 133.99 127.008 134.177 127.028 134.36 127.003 C 134.544 126.979 134.719 126.911 134.871 126.804 C 135.023 126.698 135.148 126.557 135.235 126.393 C 135.322 126.228 135.369 126.045 135.371 125.859 L 135.371 125.859 Z" fill="#F0F0F0"/>
    <path d="M 113.988 201.668 C 115.988 201.668 117.611 200.037 117.611 198.025 C 117.611 196.013 115.988 194.382 113.988 194.382 C 111.988 194.382 110.366 196.013 110.366 198.025 C 110.366 200.037 111.988 201.668 113.988 201.668 Z" fill="#F2F2F2"/>
    <path d="M 78.906 199.415 C 78.906 199.415 69.877 205.328 72.264 209.258 C 72.347 209.393 61.478 223.83 61.478 223.83 L 40.961 222.52 L 40.238 229.427 L 58.504 234.747 C 58.504 234.747 62.972 238.049 66.424 234.411 C 69.877 230.773 81.375 219.633 81.375 219.633 L 81.93 242.125 L 76.157 273.292 L 84.776 272.742 L 93.165 241.474 L 96.261 206.055 L 78.906 199.415 Z" fill="#2F2E41"/>
    <path d="M 85.339 163.923 L 81.541 166.817 L 77.213 176.108 L 81.375 181.792 C 81.375 181.792 84.876 187.894 79.272 193.804 C 73.669 199.713 69.366 206.025 73.851 205.799 C 78.336 205.574 96.501 214.866 96.621 207.253 C 96.74 199.64 96.982 193.804 96.982 193.804 L 101.745 181.655 C 101.745 181.655 104.582 174.407 102.59 172.238 C 100.598 170.069 97.931 167.296 97.931 167.296 L 93.08 162.418 L 88.7 162.418 L 85.339 163.923 Z" fill="#FD8B10"/>
    <path d="M 92.427 146.073 C 100.946 150.948 93.952 163.812 85.275 159.231 C 76.756 154.356 83.75 141.492 92.427 146.073 Z" fill="#A0616A"/>
    <path d="M 96.982 148.776 C 96.385 149.557 95.138 149.191 92.696 149.748 C 92.701 148.915 92.606 148.085 92.411 147.276 C 92.23 148.278 91.831 149.228 91.245 150.058 C 89.124 150.294 91.724 156.774 90.638 161.537 C 89.239 151.487 86.297 154.12 87.783 156.114 C 88.735 157.39 88.1 161.218 85.245 159.304 C 80.535 161.556 73.826 150.371 81.262 145.126 C 81.129 142.291 84.265 141.843 86.197 142.714 C 90.885 139.202 96.24 143.702 96.982 148.776 Z" fill="#2F2E41"/>
    <path d="M 75.125 141.443 C 73.228 153.171 63.063 139.286 58.283 150.827 C 56.78 155.007 59.358 157.997 60.989 161.466 C 61.362 164.317 57.674 165.763 57.287 168.388 C 57.18 174.405 66.832 174.036 69.53 170.24 C 72.302 166.267 68.992 160.935 70.658 156.67 C 73 150.748 82.525 150.704 83.355 143.815 C 81.748 141.513 77.427 138.877 75.125 141.443 Z" fill="#2F2E41"/>
    <path d="M 82.808 142.589 C 82.746 142.615 82.684 142.641 82.628 142.671 L 82.625 142.671 C 82.573 142.697 82.521 142.723 82.468 142.753 C 82.462 142.756 82.459 142.76 82.452 142.763 C 82.383 142.697 82.315 142.631 82.243 142.566 C 82.224 142.673 82.229 142.782 82.256 142.888 L 82.266 142.927 C 82.331 142.996 82.4 143.062 82.472 143.131 C 82.537 143.081 82.599 143.029 82.664 142.98 C 82.703 142.947 82.743 142.914 82.785 142.881 C 82.792 142.796 82.801 142.697 82.811 142.589 L 82.808 142.589 Z M 84.774 138.937 C 83.317 138.602 82.847 140.516 82.707 141.439 C 82.178 138.089 79.977 139.143 80.738 141.429 C 80.98 142.106 81.362 142.724 81.858 143.242 C 81.926 143.321 82.001 143.4 82.08 143.479 C 81.992 143.939 82.436 143.82 83.037 143.397 C 83.48 143.079 83.891 142.717 84.261 142.316 C 85.46 141.052 86.394 139.36 84.774 138.937 Z M 84.82 140.822 C 84.37 141.404 83.866 141.942 83.314 142.428 C 83.141 142.585 82.965 142.737 82.785 142.881 C 82.782 142.911 82.782 142.937 82.779 142.96 C 82.766 142.992 82.751 143.023 82.733 143.052 C 82.55 143.384 82.344 143.203 82.266 142.927 C 82.259 142.917 82.25 142.907 82.243 142.897 C 81.982 142.626 81.755 142.324 81.567 141.998 C 80.218 139.646 82.39 138.046 82.282 142.438 C 82.262 142.478 82.249 142.521 82.243 142.566 C 82.224 142.673 82.229 142.782 82.256 142.888 L 82.266 142.927 C 82.331 142.996 82.4 143.062 82.472 143.131 C 82.537 143.081 82.599 143.029 82.664 142.98 C 82.703 142.947 82.743 142.914 82.785 142.881 C 82.792 142.796 82.801 142.697 82.811 142.589 L 82.811 142.585 C 82.896 141.705 83.128 140.122 83.556 139.692 C 84.496 138.966 85.714 139.751 84.82 140.822 Z M 82.808 142.589 C 82.746 142.615 82.684 142.641 82.628 142.671 L 82.625 142.671 C 82.573 142.697 82.521 142.723 82.468 142.753 C 82.462 142.756 82.459 142.76 82.452 142.763 C 82.383 142.697 82.315 142.631 82.243 142.566 C 82.224 142.673 82.229 142.782 82.256 142.888 L 82.266 142.927 C 82.331 142.996 82.4 143.062 82.472 143.131 C 82.537 143.081 82.599 143.029 82.664 142.98 C 82.703 142.947 82.743 142.914 82.785 142.881 C 82.792 142.796 82.801 142.697 82.811 142.589 L 82.808 142.589 Z" fill="#2F2E41"/>
    <path d="M 161.546 207.248 L 158.399 215.5 L 143.64 244.78 L 156.609 278.842 L 163.302 277.065 L 157.785 244.78 L 173.612 225.44 L 192.408 238.261 C 192.408 238.261 200.744 244.806 203.916 238.601 C 207.087 232.397 227.607 219.199 227.607 219.199 L 222.53 213.753 L 198.9 224.875 L 182.591 201.787 L 161.546 207.248 Z" fill="#2F2E41"/>
    <path d="M 177.421 168.324 L 172.242 162.728 L 163.358 161.498 L 152.472 169.162 L 152.582 177.646 L 157.963 197.637 C 157.963 197.637 155.913 211.999 161.638 211.855 C 167.363 211.711 170.484 208.84 172.816 209.425 C 175.148 210.009 185.06 212.496 185.688 209.891 C 186.316 207.286 189.656 209.151 189.509 206.687 C 189.362 204.222 180.469 186.459 180.469 186.459 L 182.68 168.693 L 177.421 168.324 Z" fill="#FD8B10"/>
    <path d="M 210.213 142.563 C 210.26 143.027 210.204 143.496 210.051 143.936 C 209.898 144.376 209.65 144.777 209.326 145.111 C 209.002 145.445 208.61 145.703 208.176 145.868 C 207.742 146.032 207.277 146.099 206.815 146.063 L 194.904 168.844 L 191.707 163.907 L 203.881 142.407 C 203.992 141.63 204.382 140.92 204.979 140.413 C 205.575 139.906 206.335 139.637 207.116 139.656 C 207.896 139.675 208.643 139.982 209.214 140.518 C 209.785 141.053 210.14 141.781 210.213 142.563 Z" fill="#FFB6B6"/>
    <path d="M 172.719 172.559 C 172.719 172.559 172.246 176.612 176.782 177.615 C 181.318 178.618 193.885 171.396 195.945 170.293 C 196.59 169.948 197.466 168.255 198.364 166.092 C 198.767 165.121 199.175 164.055 199.568 162.975 C 199.796 162.349 200.887 162.179 201.102 161.558 C 201.315 160.941 200.653 159.875 200.846 159.293 C 201.764 156.534 202.414 154.344 202.414 154.344 L 199.407 148.665 C 195.203 150.9 193.046 155.824 191.46 161.498 L 172.719 172.559 Z" fill="#FD8B10"/>
    <path d="M 119.745 147.795 C 119.816 148.256 119.986 148.695 120.244 149.083 C 120.502 149.471 120.841 149.797 121.238 150.038 C 121.635 150.28 122.079 150.431 122.54 150.481 C 123.002 150.531 123.468 150.479 123.907 150.328 L 141.107 169.386 L 142.974 163.801 L 125.838 146.05 C 125.537 145.325 124.982 144.736 124.279 144.396 C 123.575 144.055 122.772 143.985 122.021 144.2 C 121.27 144.416 120.623 144.9 120.204 145.563 C 119.785 146.225 119.621 147.019 119.745 147.795 Z" fill="#FFB6B6"/>
    <path d="M 163.511 167.399 C 163.511 167.399 164.976 171.204 160.834 173.316 C 156.693 175.429 142.729 171.6 140.46 171.051 C 139.749 170.879 138.48 169.46 137.073 167.592 C 136.441 166.754 135.781 165.825 135.131 164.877 C 134.754 164.329 133.656 164.438 133.294 163.892 C 132.933 163.348 133.309 162.149 132.978 161.635 C 131.402 159.194 130.228 157.238 130.228 157.238 L 131.726 150.982 C 136.353 152.088 139.666 156.313 142.613 161.407 L 163.511 167.399 Z" fill="#FD8B10"/>
    <path d="M 167.977 160.075 C 172.645 160.075 176.43 156.268 176.43 151.573 C 176.43 146.878 172.645 143.072 167.977 143.072 C 163.308 143.072 159.524 146.878 159.524 151.573 C 159.524 156.268 163.308 160.075 167.977 160.075 Z" fill="#FFB6B6"/>
    <path d="M 177.626 146.705 C 176.737 145.322 175.068 144.4 173.451 144.659 C 173.3 143.621 172.869 142.644 172.205 141.835 C 171.541 141.026 170.668 140.416 169.683 140.071 C 168.698 139.726 167.637 139.659 166.617 139.879 C 165.597 140.098 164.656 140.594 163.897 141.314 C 163.648 141.137 163.357 141.028 163.053 140.998 C 162.749 140.967 162.443 141.016 162.163 141.14 C 161.607 141.394 161.122 141.785 160.755 142.277 C 159.826 143.441 159.229 144.836 159.027 146.315 C 158.825 147.793 159.025 149.299 159.606 150.672 C 159.409 149.949 160.129 149.269 160.857 149.107 C 161.584 148.945 162.348 149.098 163.086 148.992 C 164.031 148.857 164.882 148.305 165.829 148.181 C 166.632 148.128 167.438 148.233 168.202 148.488 C 168.966 148.743 169.771 148.851 170.574 148.808 C 171.372 148.713 172.399 151.752 172.385 153.892 C 172.382 154.298 172.465 154.818 172.859 154.905 C 173.345 155.011 173.626 154.337 174.088 154.153 C 174.301 154.092 174.529 154.116 174.725 154.221 C 174.92 154.325 175.068 154.502 175.136 154.714 C 175.195 154.929 175.201 155.155 175.155 155.374 C 175.108 155.592 175.011 155.796 174.87 155.969 C 174.586 156.311 174.249 156.605 173.872 156.84 L 174.062 156.999 C 174.243 157.191 174.484 157.314 174.745 157.346 C 175.006 157.379 175.27 157.319 175.491 157.178 C 175.928 156.88 176.281 156.476 176.518 156.002 C 177.409 154.616 178.047 153.079 178.4 151.467 C 178.698 149.847 178.515 148.089 177.626 146.705 Z" fill="#2F2E41"/>
    <path d="M 240.162 180.236 C 229.258 188.541 207.564 185.917 200.832 200.144 C 180.448 243.218 163.009 210.406 145.161 206.857 L 144.997 205.978 C 162.864 207.468 182.028 205.156 200.418 199.29 C 217.037 193.99 231.864 186.105 243.296 176.497 L 243.895 177.249 C 242.688 178.264 241.444 179.26 240.162 180.236 Z" fill="#F2F2F2"/>
    <path d="M 194.063 293.053 C 193.804 293.826 45.539 293.826 45.259 293.054 C 45.518 292.279 193.783 292.279 194.063 293.053 Z" fill="#CCCCCC"/>
  </g>
</svg>