<?xml version="1.0" encoding="utf-8"?>
<svg viewBox="0 0 361.237 197.451" xmlns="http://www.w3.org/2000/svg">
  <g transform="matrix(1.114864, 0, 0, 1.114864, -24.73544, -11.606245)" style="">
    <title>logo</title>
    <path d="M 63.122 67.32 C 63.122 67.753 62.115 68.103 60.102 68.37 C 58.082 68.637 56.049 68.77 54.002 68.77 C 51.949 68.77 50.632 68.653 50.052 68.42 C 49.465 68.187 49.172 67.82 49.172 67.32 L 49.172 36.57 C 49.172 35.737 50.139 34.977 52.072 34.29 C 54.005 33.61 56.105 33.27 58.372 33.27 C 61.539 33.27 63.122 34.02 63.122 35.52 L 63.122 46.52 L 67.572 46.52 L 67.572 36.57 C 67.572 35.737 68.549 34.977 70.502 34.29 C 72.449 33.61 74.555 33.27 76.822 33.27 C 79.955 33.27 81.522 34.02 81.522 35.52 L 81.522 67.32 C 81.522 67.753 80.505 68.103 78.472 68.37 C 76.439 68.637 74.405 68.77 72.372 68.77 C 70.339 68.77 69.032 68.653 68.452 68.42 C 67.865 68.187 67.572 67.82 67.572 67.32 L 67.572 55.87 L 63.122 55.87 L 63.122 67.32 ZM 111.369 68.77 L 90.169 68.77 C 88.535 68.77 87.435 68.653 86.869 68.42 C 86.302 68.187 86.019 67.82 86.019 67.32 L 86.019 35.67 C 86.019 34.803 86.412 34.187 87.199 33.82 C 87.979 33.453 89.385 33.27 91.419 33.27 L 111.519 33.27 C 112.219 33.27 112.569 34.43 112.569 36.75 C 112.569 39.063 112.419 40.827 112.119 42.04 C 111.819 43.26 111.419 43.87 110.919 43.87 C 108.752 43.87 105.102 43.653 99.969 43.22 L 99.969 46.57 C 104.902 46.37 108.119 46.27 109.619 46.27 C 110.519 46.27 110.969 47.32 110.969 49.42 C 110.969 51.52 110.795 53.11 110.449 54.19 C 110.095 55.277 109.619 55.82 109.019 55.82 L 99.969 55.62 L 99.969 58.82 C 105.769 58.387 109.769 58.17 111.969 58.17 C 112.669 58.17 113.019 59.337 113.019 61.67 C 113.019 64.003 112.869 65.77 112.569 66.97 C 112.269 68.17 111.869 68.77 111.369 68.77 ZM 131.016 57.07 L 131.016 67.32 C 131.016 67.753 129.999 68.103 127.966 68.37 C 125.932 68.637 123.892 68.77 121.846 68.77 C 119.792 68.77 118.476 68.653 117.896 68.42 C 117.309 68.187 117.016 67.82 117.016 67.32 L 117.016 35.17 C 117.016 34.303 118.109 33.687 120.296 33.32 C 122.476 32.953 125.232 32.77 128.566 32.77 C 131.899 32.77 134.059 32.777 135.046 32.79 C 136.026 32.81 137.182 32.87 138.516 32.97 C 139.849 33.07 140.909 33.237 141.696 33.47 C 142.476 33.703 143.342 34.003 144.296 34.37 C 145.242 34.737 145.982 35.21 146.516 35.79 C 147.049 36.377 147.566 37.07 148.066 37.87 C 148.966 39.303 149.416 41.343 149.416 43.99 C 149.416 46.643 148.976 48.88 148.096 50.7 C 147.209 52.513 146.032 53.887 144.566 54.82 C 148.399 60.853 150.316 64.687 150.316 66.32 C 150.316 67.953 147.032 68.77 140.466 68.77 C 138.566 68.77 137.249 68.687 136.516 68.52 C 135.782 68.353 135.316 67.987 135.116 67.42 L 131.866 57.12 L 131.016 57.07 Z M 131.016 40.67 L 131.016 49.37 L 132.316 49.37 C 134.249 49.37 135.216 47.87 135.216 44.87 C 135.216 43.337 134.959 42.253 134.446 41.62 C 133.926 40.987 133.332 40.67 132.666 40.67 L 131.016 40.67 ZM 178.662 68.77 L 157.462 68.77 C 155.829 68.77 154.729 68.653 154.162 68.42 C 153.595 68.187 153.312 67.82 153.312 67.32 L 153.312 35.67 C 153.312 34.803 153.705 34.187 154.492 33.82 C 155.272 33.453 156.679 33.27 158.712 33.27 L 178.812 33.27 C 179.512 33.27 179.862 34.43 179.862 36.75 C 179.862 39.063 179.712 40.827 179.412 42.04 C 179.112 43.26 178.712 43.87 178.212 43.87 C 176.045 43.87 172.395 43.653 167.262 43.22 L 167.262 46.57 C 172.195 46.37 175.412 46.27 176.912 46.27 C 177.812 46.27 178.262 47.32 178.262 49.42 C 178.262 51.52 178.089 53.11 177.742 54.19 C 177.389 55.277 176.912 55.82 176.312 55.82 L 167.262 55.62 L 167.262 58.82 C 173.062 58.387 177.062 58.17 179.262 58.17 C 179.962 58.17 180.312 59.337 180.312 61.67 C 180.312 64.003 180.162 65.77 179.862 66.97 C 179.562 68.17 179.162 68.77 178.662 68.77 ZM 183.809 34.27 C 183.809 32.437 184.126 31.227 184.759 30.64 C 185.393 30.06 186.693 29.77 188.659 29.77 C 190.626 29.77 191.986 30.037 192.739 30.57 C 193.486 31.103 193.859 32.337 193.859 34.27 C 193.859 42.703 192.186 46.92 188.839 46.92 C 185.486 46.92 183.809 42.703 183.809 34.27 ZM 223.308 66.67 C 222.308 67.403 220.918 68.01 219.138 68.49 C 217.351 68.977 215.051 69.22 212.238 69.22 C 209.418 69.22 206.741 68.987 204.208 68.52 C 201.675 68.053 199.858 67.537 198.758 66.97 C 197.658 66.403 197.108 65.853 197.108 65.32 C 197.108 63.453 197.375 61.51 197.908 59.49 C 198.441 57.477 199.075 56.47 199.808 56.47 C 199.941 56.47 201.325 56.92 203.958 57.82 C 206.591 58.72 208.575 59.17 209.908 59.17 C 211.241 59.17 212.108 59.027 212.508 58.74 C 212.908 58.46 213.108 58.053 213.108 57.52 C 213.108 56.987 212.741 56.51 212.008 56.09 C 211.275 55.677 210.358 55.31 209.258 54.99 C 208.158 54.677 206.968 54.22 205.688 53.62 C 204.401 53.02 203.208 52.353 202.108 51.62 C 201.008 50.887 200.091 49.843 199.358 48.49 C 198.625 47.143 198.258 45.603 198.258 43.87 C 198.258 36.47 202.675 32.77 211.508 32.77 C 214.808 32.77 217.658 32.977 220.058 33.39 C 222.458 33.81 224.151 34.277 225.138 34.79 C 226.118 35.31 226.608 35.82 226.608 36.32 C 226.608 38.053 226.201 39.92 225.388 41.92 C 224.568 43.92 223.775 44.92 223.008 44.92 C 222.875 44.92 222.441 44.77 221.708 44.47 C 219.508 43.503 217.685 43.02 216.238 43.02 C 214.785 43.02 213.801 43.153 213.288 43.42 C 212.768 43.687 212.508 44.093 212.508 44.64 C 212.508 45.193 212.875 45.643 213.608 45.99 C 214.341 46.343 215.251 46.66 216.338 46.94 C 217.418 47.227 218.601 47.66 219.888 48.24 C 221.168 48.827 222.358 49.51 223.458 50.29 C 224.558 51.077 225.475 52.187 226.208 53.62 C 226.941 55.053 227.308 56.72 227.308 58.62 C 227.308 60.62 226.791 62.437 225.758 64.07 C 225.125 65.07 224.308 65.937 223.308 66.67 ZM 250.504 68.77 C 249.67 68.77 248.464 68.77 246.884 68.77 C 245.297 68.77 244.22 68.653 243.654 68.42 C 243.087 68.187 242.804 67.82 242.804 67.32 L 242.804 35.77 C 242.804 35.003 243.83 34.393 245.884 33.94 C 247.93 33.493 250.12 33.27 252.454 33.27 C 254.787 33.27 256.454 33.57 257.454 34.17 C 258.454 34.77 259.037 35.403 259.204 36.07 L 262.604 49.27 L 263.054 49.27 L 266.254 36.67 C 266.487 35.77 267.58 34.977 269.534 34.29 C 271.48 33.61 273.62 33.27 275.954 33.27 C 278.287 33.27 280.014 33.453 281.134 33.82 C 282.247 34.187 282.804 34.653 282.804 35.22 L 282.804 67.32 C 282.804 67.753 281.854 68.103 279.954 68.37 C 278.054 68.637 275.737 68.77 273.004 68.77 C 270.27 68.77 268.904 68.287 268.904 67.32 C 268.904 64.687 269.187 60.003 269.754 53.27 L 269.304 53.27 L 266.704 66.32 C 266.604 66.82 266.197 67.187 265.484 67.42 C 264.764 67.653 263.687 67.77 262.254 67.77 C 260.82 67.77 259.944 67.67 259.624 67.47 C 259.31 67.27 259.104 66.887 259.004 66.32 L 256.304 53.27 L 255.854 53.27 C 256.454 60.137 256.754 64.82 256.754 67.32 C 256.754 68.187 254.67 68.67 250.504 68.77 ZM 309.649 67.32 C 309.649 67.753 308.633 68.103 306.599 68.37 C 304.566 68.637 302.543 68.77 300.529 68.77 C 298.509 68.77 297.199 68.66 296.599 68.44 C 295.999 68.227 295.699 67.853 295.699 67.32 L 295.699 58.62 C 289.099 45.12 285.799 37.787 285.799 36.62 C 285.799 35.92 286.916 35.187 289.149 34.42 C 291.383 33.653 293.733 33.27 296.199 33.27 C 299.366 33.27 301.049 34.203 301.249 36.07 L 302.599 49.52 L 303.149 49.52 L 304.099 36.42 C 304.166 35.487 305.349 34.727 307.649 34.14 C 309.949 33.56 312.133 33.27 314.199 33.27 C 316.266 33.27 317.699 33.57 318.499 34.17 C 319.299 34.77 319.699 35.403 319.699 36.07 C 319.699 36.703 316.349 44.22 309.649 58.62 L 309.649 67.32 Z" transform="matrix(1, 0, 0, 1, 0, 0)" style="fill: rgb(4, 90, 124); white-space: pre;"/>
    <g transform="matrix(1, 0, 0, 1, 18.533457, 0.13175)">
      <path d="M 132.237 140.572 L 132.237 156.272 C 132.237 157.172 130.137 157.895 125.937 158.442 C 121.737 158.995 117.537 159.272 113.337 159.272 C 109.13 159.272 106.444 159.032 105.277 158.552 C 104.104 158.065 103.517 157.305 103.517 156.272 L 103.517 89.852 C 103.517 86.545 113.434 84.892 133.267 84.892 C 145.254 84.892 153.174 85.719 157.027 87.372 C 161.714 89.305 164.88 91.922 166.527 95.222 C 168.734 99.495 169.837 104.972 169.837 111.652 C 169.837 120.812 168.254 127.459 165.087 131.592 C 162.814 134.619 160.54 136.579 158.267 137.472 C 155.994 138.372 154.117 139.009 152.637 139.382 C 151.157 139.762 149.314 140.055 147.107 140.262 C 144.08 140.542 139.95 140.682 134.717 140.682 L 132.237 140.572 Z M 132.337 102.252 L 132.337 123.422 L 134.817 123.422 C 136.124 123.422 137.157 123.235 137.917 122.862 C 138.677 122.482 139.35 121.449 139.937 119.762 C 140.517 118.075 140.807 115.699 140.807 112.632 C 140.807 109.565 140.48 107.225 139.827 105.612 C 139.174 103.992 138.52 103.025 137.867 102.712 C 137.214 102.405 136.44 102.252 135.547 102.252 L 132.337 102.252 ZM 228.929 159.272 L 185.129 159.272 C 181.749 159.272 179.476 159.032 178.309 158.552 C 177.136 158.065 176.549 157.305 176.549 156.272 L 176.549 90.892 C 176.549 89.099 177.359 87.822 178.979 87.062 C 180.599 86.309 183.509 85.932 187.709 85.932 L 229.239 85.932 C 230.679 85.932 231.399 88.325 231.399 93.112 C 231.399 97.899 231.089 101.549 230.469 104.062 C 229.849 106.575 229.026 107.832 227.999 107.832 C 223.519 107.832 215.976 107.382 205.369 106.482 L 205.369 113.402 C 215.562 112.995 222.209 112.792 225.309 112.792 C 227.169 112.792 228.099 114.959 228.099 119.292 C 228.099 123.632 227.736 126.922 227.009 129.162 C 226.289 131.402 225.309 132.522 224.069 132.522 L 205.369 132.102 L 205.369 138.712 C 217.356 137.819 225.619 137.372 230.159 137.372 C 231.606 137.372 232.329 139.782 232.329 144.602 C 232.329 149.422 232.019 153.072 231.399 155.552 C 230.779 158.032 229.956 159.272 228.929 159.272 ZM 283.461 156.792 C 283.461 157.552 281.345 158.155 277.111 158.602 C 272.878 159.049 268.645 159.272 264.411 159.272 C 260.171 159.272 257.485 159.082 256.351 158.702 C 255.211 158.322 254.641 157.685 254.641 156.792 L 254.641 112.372 L 240.291 112.372 C 239.531 112.372 238.875 111.409 238.321 109.482 C 237.775 107.555 237.501 104.679 237.501 100.852 C 237.501 97.032 237.915 93.589 238.741 90.522 C 239.568 87.462 240.668 85.932 242.041 85.932 L 297.931 85.932 C 298.965 85.932 299.668 86.895 300.041 88.822 C 300.421 90.749 300.611 93.539 300.611 97.192 C 300.611 100.839 300.235 104.282 299.481 107.522 C 298.721 110.755 297.688 112.372 296.381 112.372 L 283.461 112.372 L 283.461 156.792 Z" transform="matrix(1, 0, 0, 1, 0, 0)" style="fill: rgb(255, 132, 0); white-space: pre;"/>
      <ellipse style="fill: rgb(4, 90, 124);" cx="65.31" cy="157.619" rx="10.847" ry="2.367"/>
      <g transform="matrix(0.674582, -0.000001, 0.000001, 0.674582, -4.918539, -34.124229)" style="">
        <title>location_mark</title>
        <g>
          <title>mark</title>
          <circle style="fill: rgb(244, 52, 113);" cx="101.101" cy="207.38" r="33.908" transform="matrix(1.083187, 0, 0, 1, -5.589594, 0)"/>
          <path d="M -109.185 -279.568 Q -104.199 -289.716 -99.214 -279.568 L -71.418 -222.983 Q -66.433 -212.835 -76.403 -212.835 L -131.996 -212.835 Q -141.966 -212.835 -136.981 -222.983 Z" style="fill: rgb(244, 52, 113);" transform="matrix(-1, 0, 0, -1, 0, 0)"/>
        </g>
        <g transform="matrix(2.675844, 0, 0, 2.675844, -382.80896, -454.501953)" style="visibility: hidden;">
          <title>mark heart</title>
          <path style="fill: rgb(246, 246, 246);" d="M 182.166 245.257 C 182.487 242.908 183.633 241.421 185.84 241.488 C 188.426 241.566 189.973 243.532 189.746 246.511 C 189.485 249.944 186.716 252.416 182.202 253.946"/>
          <path style="fill: rgb(246, 246, 246);" d="M 174.951 250.621 C 175.272 252.97 176.53 254.569 178.737 254.502 C 181.323 254.424 183.199 252.501 182.972 249.522 C 182.711 246.089 179.468 243.446 174.954 241.916" transform="matrix(-1, 0, 0, -1, 357.174469, 495.863785)"/>
          <rect x="181.433" y="245.172" width="1.585" height="8.636" style="fill: rgb(246, 246, 246);" rx="0.793" ry="0.793"/>
        </g>
        <g transform="matrix(0.611284, -0.021347, 0.021347, 0.611284, 2.187052, -36.613403)" style="">
          <title>mark paw</title>
          <ellipse style="fill: rgb(246, 246, 246);" cx="153.17" cy="417.568" rx="23.134" ry="14.747"/>
          <ellipse style="fill: rgb(246, 246, 246);" cx="153.17" cy="417.568" rx="15.423" ry="14.747" transform="matrix(0, 1, -1, 0, 571.235596, 256.893311)"/>
          <ellipse style="fill: rgb(246, 246, 246);" cx="153.17" cy="417.568" rx="11.411" ry="9.183" transform="matrix(0.374606, 0.927184, -0.927184, 0.374606, 452.050715, 100.51479)"/>
          <ellipse style="fill: rgb(246, 246, 246);" cx="153.17" cy="417.568" rx="11.411" ry="9.183" transform="matrix(-0.374606, 0.927184, 0.927184, 0.374606, -146.26559, 100.926495)"/>
          <ellipse style="fill: rgb(246, 246, 246);" cx="153.17" cy="417.568" rx="11.411" ry="9.183" transform="matrix(0.156434, 0.987688, -0.987688, 0.156434, 529.198521, 167.33765)"/>
          <ellipse style="fill: rgb(246, 246, 246);" cx="153.17" cy="417.568" rx="11.411" ry="9.183" transform="matrix(-0.156434, 0.987688, 0.987688, 0.156434, -223.35616, 165.844715)"/>
        </g>
      </g>
    </g>
    <g style="visibility: hidden;">
      <title>p paw</title>
      <rect x="145.927" y="97.538" width="22.797" height="33.205" style="fill: rgb(255, 132, 0);"/>
      <g transform="matrix(0.586863, 0, 0, 0.586863, 66.738098, -124.925919)" style="">
        <ellipse style="fill: rgb(246, 246, 246);" cx="153.17" cy="417.568" rx="23.134" ry="14.747"/>
        <ellipse style="fill: rgb(246, 246, 246);" cx="153.17" cy="417.568" rx="15.423" ry="14.747" transform="matrix(0, 1, -1, 0, 571.235596, 256.893311)"/>
        <ellipse style="fill: rgb(246, 246, 246);" cx="153.17" cy="417.568" rx="11.411" ry="9.183" transform="matrix(0.374606, 0.927184, -0.927184, 0.374606, 452.050715, 100.51479)"/>
        <ellipse style="fill: rgb(246, 246, 246);" cx="153.17" cy="417.568" rx="11.411" ry="9.183" transform="matrix(-0.374606, 0.927184, 0.927184, 0.374606, -146.26559, 100.926495)"/>
        <ellipse style="fill: rgb(246, 246, 246);" cx="153.17" cy="417.568" rx="11.411" ry="9.183" transform="matrix(0.156434, 0.987688, -0.987688, 0.156434, 529.198521, 167.33765)"/>
        <ellipse style="fill: rgb(246, 246, 246);" cx="153.17" cy="417.568" rx="11.411" ry="9.183" transform="matrix(-0.156434, 0.987688, 0.987688, 0.156434, -223.35616, 165.844715)"/>
      </g>
    </g>
  </g>
</svg>