<?xml version="1.0" encoding="utf-8"?>
<svg viewBox="0 0 352.384 297.929" xmlns="http://www.w3.org/2000/svg">
  <defs>
    <clipPath id="clip0_238_657">
      <rect width="219" height="197" fill="white"/>
    </clipPath>
    <clipPath id="clip1_238_657">
      <rect width="236" height="197" fill="white" transform="translate(144)"/>
    </clipPath>
    <linearGradient id="paint0_linear_238_657" x1="280.4" y1="197" x2="280.4" y2="5.05529" gradientUnits="userSpaceOnUse">
      <stop stop-color="#808080" stop-opacity="0.25"/>
      <stop offset="0.54" stop-color="#808080" stop-opacity="0.12"/>
      <stop offset="1" stop-color="#808080" stop-opacity="0.1"/>
    </linearGradient>
  </defs>
  <g clip-path="url(#clip0_238_657)" transform="matrix(0.788829, 0, 0, 0.788829, 26.314484, 71.26484)" style="">
    <path d="M 166.148 178.888 C 165.692 176.563 167.666 174.501 169.615 173.162 C 171.565 171.822 173.842 170.506 174.507 168.232 C 175.463 164.964 172.616 161.972 170.4 159.391 C 168.756 157.476 167.344 155.372 166.193 153.124 C 165.732 152.222 165.309 151.28 165.187 150.274 C 165.013 148.826 165.477 147.384 165.944 146.003 C 167.502 141.4 169.168 136.836 170.941 132.311" stroke="#3F3D56" stroke-miterlimit="10" style="fill: none;"/>
    <path d="M114.5 197C154.288 197 186.543 192.087 186.543 186.026C186.543 179.965 154.288 175.052 114.5 175.052C74.7121 175.052 42.4575 179.965 42.4575 186.026C42.4575 192.087 74.7121 197 114.5 197Z" fill="#F2F2F2"/>
    <path d="M 159.982 146.476 C 160.753 146.757 161.579 146.855 162.394 146.761 C 163.21 146.668 163.992 146.386 164.68 145.937 C 165.368 145.489 165.943 144.887 166.359 144.178 C 166.775 143.469 167.021 142.673 167.078 141.852 C 167.135 141.031 167.001 140.209 166.686 139.449 C 166.372 138.689 165.886 138.013 165.266 137.474 C 164.647 136.934 163.911 136.547 163.116 136.341 C 162.322 136.136 161.49 136.118 160.688 136.289 L 160.82 139.023 L 159.53 136.68 C 158.264 137.277 157.286 138.353 156.81 139.672 C 156.642 140.134 156.539 140.618 156.506 141.109 C 156.424 142.261 156.72 143.408 157.347 144.376 C 157.974 145.345 158.899 146.082 159.982 146.476 Z" stroke="#3F3D56" stroke-miterlimit="10"/>
    <path d="M159.764 147.18C160.535 147.461 161.361 147.558 162.176 147.465C162.991 147.372 163.774 147.09 164.462 146.641C165.15 146.193 165.724 145.591 166.14 144.882C166.557 144.173 166.803 143.376 166.86 142.556C166.916 141.735 166.782 140.913 166.468 140.153C166.154 139.393 165.667 138.717 165.048 138.177C164.428 137.638 163.692 137.25 162.898 137.045C162.103 136.839 161.272 136.822 160.469 136.993L160.602 139.727L159.312 137.384C158.046 137.981 157.067 139.057 156.592 140.376C156.423 140.838 156.321 141.322 156.287 141.813C156.206 142.964 156.501 144.112 157.129 145.08C157.756 146.049 158.681 146.786 159.764 147.18V147.18Z" fill="#57B894"/>
    <path d="M165.791 130.428C166.094 129.591 166.602 128.844 167.268 128.255C167.935 127.667 168.738 127.256 169.605 127.06L170.041 129.659L170.849 126.93C171.972 126.946 173.061 127.32 173.958 127.998C174.855 128.675 175.514 129.621 175.84 130.698C176.166 131.775 176.142 132.929 175.772 133.992C175.402 135.055 174.704 135.972 173.779 136.611C172.855 137.251 171.752 137.579 170.629 137.549C169.507 137.519 168.422 137.132 167.534 136.444C166.645 135.756 165.997 134.802 165.684 133.721C165.37 132.64 165.408 131.487 165.791 130.428H165.791Z" stroke="#3F3D56" stroke-miterlimit="10"/>
    <path d="M 169.722 158.493 C 170.945 158.938 172.288 158.916 173.496 158.431 C 174.704 157.947 175.692 157.034 176.271 155.866 C 176.851 154.699 176.981 153.358 176.638 152.1 C 176.295 150.842 175.502 149.754 174.411 149.045 L 173.789 151.142 L 173.349 148.513 C 173.344 148.511 173.34 148.509 173.335 148.508 C 172.681 148.269 171.986 148.162 171.291 148.193 C 170.596 148.224 169.913 148.392 169.283 148.687 C 168.652 148.983 168.086 149.4 167.616 149.914 C 167.146 150.429 166.782 151.032 166.545 151.688 C 166.307 152.344 166.201 153.04 166.232 153.737 C 166.264 154.434 166.432 155.119 166.727 155.751 C 167.022 156.383 167.438 156.95 167.952 157.421 C 168.466 157.891 169.067 158.256 169.722 158.493 L 169.722 158.493 Z" stroke="#3F3D56" stroke-miterlimit="10"/>
    <path d="M 164.172 167.56 C 164.382 168.76 164.998 169.851 165.915 170.649 C 166.832 171.448 167.995 171.906 169.209 171.947 C 170.424 171.988 171.615 171.609 172.584 170.874 C 173.552 170.139 174.239 169.093 174.53 167.91 C 174.82 166.728 174.696 165.481 174.178 164.379 C 173.66 163.277 172.78 162.388 171.686 161.859 C 170.591 161.33 169.349 161.195 168.167 161.476 C 166.985 161.757 165.935 162.437 165.193 163.401 L 167.554 166.963 L 164.328 165.073 C 164.078 165.877 164.025 166.731 164.172 167.56 Z" stroke="#3F3D56" stroke-miterlimit="10"/>
    <path d="M 165.5 131.367 C 165.803 130.53 166.311 129.783 166.977 129.194 C 167.644 128.605 168.447 128.194 169.314 127.999 L 169.75 130.598 L 170.559 127.868 C 171.682 127.885 172.77 128.259 173.667 128.936 C 174.564 129.614 175.224 130.559 175.55 131.637 C 175.876 132.714 175.852 133.867 175.481 134.93 C 175.111 135.993 174.413 136.91 173.489 137.55 C 172.564 138.189 171.461 138.517 170.338 138.487 C 169.216 138.457 168.132 138.07 167.243 137.382 C 166.354 136.694 165.706 135.741 165.393 134.659 C 165.08 133.578 165.117 132.425 165.5 131.367 L 165.5 131.367 Z" fill="#57B894"/>
    <path d="M169.47 159.444C170.693 159.888 172.036 159.866 173.244 159.382C174.452 158.897 175.44 157.984 176.019 156.817C176.599 155.649 176.729 154.308 176.386 153.05C176.043 151.792 175.25 150.705 174.159 149.995L173.537 152.093L173.097 149.463C173.092 149.461 173.088 149.459 173.083 149.458C172.429 149.22 171.734 149.113 171.039 149.144C170.344 149.175 169.661 149.343 169.031 149.638C168.4 149.933 167.834 150.35 167.364 150.865C166.894 151.38 166.531 151.983 166.293 152.639C166.056 153.295 165.95 153.991 165.981 154.688C166.012 155.385 166.18 156.069 166.475 156.701C166.77 157.333 167.186 157.9 167.7 158.371C168.214 158.842 168.815 159.206 169.47 159.444H169.47Z" fill="#57B894"/>
    <path d="M163.954 168.264C164.164 169.464 164.78 170.554 165.697 171.353C166.614 172.152 167.777 172.61 168.991 172.651C170.206 172.692 171.397 172.313 172.365 171.578C173.334 170.843 174.021 169.797 174.311 168.614C174.602 167.431 174.478 166.185 173.96 165.083C173.442 163.981 172.562 163.091 171.468 162.563C170.373 162.034 169.131 161.899 167.949 162.18C166.767 162.461 165.717 163.14 164.975 164.105L167.336 167.667L164.11 165.776C163.86 166.581 163.807 167.434 163.954 168.264Z" fill="#57B894"/>
    <path d="M152.471 27.9039C152.67 24.0855 154.323 20.4895 157.09 17.8573C159.856 15.2252 163.525 13.7578 167.339 13.7577C167.791 13.7577 168.238 13.7814 168.681 13.821C170.42 10.8213 172.914 8.33154 175.913 6.6004C178.913 4.86926 182.313 3.95733 185.773 3.95569C189.234 3.95405 192.635 4.86276 195.636 6.59105C198.637 8.31935 201.134 10.8067 202.876 13.8048C203.249 13.7767 203.624 13.7577 204.005 13.7577C207.819 13.7578 211.487 15.2252 214.254 17.8574C217.02 20.4895 218.674 24.0855 218.873 27.9039" stroke="#3F3D56" stroke-miterlimit="10"/>
    <path d="M 149.37 29.052 C 149.569 25.234 151.222 21.638 153.989 19.006 C 156.755 16.373 160.424 14.906 164.238 14.906 C 164.69 14.906 165.137 14.93 165.579 14.969 C 167.319 11.97 169.813 9.48 172.812 7.749 C 175.811 6.017 179.211 5.106 182.672 5.104 C 186.133 5.102 189.534 6.011 192.535 7.739 C 195.536 9.468 198.033 11.955 199.775 14.953 C 200.148 14.925 200.523 14.906 200.904 14.906 C 204.718 14.906 208.386 16.373 211.153 19.006 C 213.919 21.638 215.573 25.234 215.772 29.052" fill="#F2F2F2"/>
    <path d="M44.2793 98.8513C44.4786 95.0329 46.132 91.4369 48.8985 88.8047C51.665 86.1726 55.3335 84.7052 59.1476 84.7051C59.6001 84.7051 60.0469 84.7288 60.4891 84.7684C62.2284 81.7687 64.7223 79.2789 67.7217 77.5478C70.7211 75.8167 74.1211 74.9047 77.5821 74.9031C81.0431 74.9014 84.4439 75.8101 87.445 77.5384C90.4461 79.2667 92.9423 81.7541 94.6844 84.7522C95.0575 84.7241 95.4331 84.7051 95.8133 84.7051C99.6273 84.7052 103.296 86.1726 106.062 88.8048C108.829 91.4369 110.482 95.0329 110.682 98.8513" stroke="#3F3D56" stroke-miterlimit="10"/>
    <path d="M 41.178 100 C 41.378 96.181 43.031 92.585 45.798 89.953 C 48.564 87.321 52.233 85.853 56.047 85.853 C 56.499 85.853 56.946 85.877 57.388 85.917 C 59.128 82.917 61.621 80.427 64.621 78.696 C 67.62 76.965 71.02 76.053 74.481 76.051 C 77.942 76.05 81.343 76.958 84.344 78.687 C 87.345 80.415 89.841 82.902 91.584 85.9 C 91.957 85.872 92.332 85.853 92.712 85.853 C 96.526 85.853 100.195 87.321 102.962 89.953 C 105.728 92.585 107.381 96.181 107.581 100" fill="#F2F2F2"/>
    <path d="M 12.713 24.076 C 12.912 20.257 14.566 16.661 17.332 14.029 C 20.099 11.397 23.767 9.93 27.581 9.93 C 28.034 9.93 28.48 9.953 28.923 9.993 C 30.662 6.993 33.156 4.503 36.155 2.772 C 39.155 1.041 42.555 0.129 46.016 0.128 C 49.477 0.126 52.877 1.035 55.879 2.763 C 58.88 4.491 61.376 6.979 63.118 9.977 C 63.491 9.949 63.867 9.93 64.247 9.93 C 68.061 9.93 71.729 11.397 74.496 14.029 C 77.262 16.661 78.916 20.257 79.115 24.076" stroke="#3F3D56" stroke-miterlimit="10"/>
    <path d="M9.61206 25.224C9.81139 21.4056 11.4648 17.8095 14.2313 15.1774C16.9977 12.5453 20.6663 11.0779 24.4803 11.0778C24.9328 11.0778 25.3797 11.1015 25.8219 11.1411C27.5612 8.14137 30.055 5.65161 33.0545 3.92047C36.0539 2.18933 39.4539 1.2774 42.9149 1.27576C46.3759 1.27412 49.7767 2.18282 52.7778 3.91112C55.7788 5.63942 58.2751 8.12681 60.0172 11.1249C60.3902 11.0968 60.7658 11.0778 61.1461 11.0778C64.9601 11.0779 68.6286 12.5453 71.3951 15.1774C74.1616 17.8095 75.815 21.4056 76.0143 25.224" fill="#F2F2F2"/>
    <path d="M75.1108 55.5005C75.1108 55.5005 101.871 68.8216 106.669 66.9715C111.468 65.1213 113.129 48.6549 113.129 48.6549L93.3816 44.9546L75.1108 55.5005Z" fill="#024864"/>
    <path d="M130.569 35.6113H113.036V50.9676H130.569V35.6113Z" fill="#FF6584"/>
    <path opacity="0.1" d="M130.569 35.6113H113.036V50.9676H130.569V35.6113Z" fill="black"/>
    <path d="M97.0725 101.014C97.0725 101.014 96.3343 117.111 101.317 116.741C106.3 116.371 101.317 101.569 101.317 101.569L97.0725 101.014Z" fill="#FBBEBE"/>
    <path d="M117.558 37.924C117.558 37.924 118.665 44.9545 116.635 45.8796C114.605 46.8047 113.313 47.5448 113.313 47.5448L117.927 50.69L126.417 51.2451L128.631 49.5799L130.661 47.7298C130.661 47.7298 127.339 46.9897 127.339 45.3246C127.339 43.6594 127.155 38.664 127.155 38.664L117.558 37.924Z" fill="#FBBEBE"/>
    <path opacity="0.1" d="M117.558 37.924C117.558 37.924 118.665 44.9545 116.635 45.8796C114.605 46.8047 113.313 47.5448 113.313 47.5448L117.927 50.69L126.417 51.2451L128.631 49.5799L130.661 47.7298C130.661 47.7298 127.339 46.9897 127.339 45.3246C127.339 43.6594 127.155 38.664 127.155 38.664L117.558 37.924Z" fill="black"/>
    <path d="M105.931 103.79C105.931 103.79 100.579 120.996 100.579 133.577C100.579 133.577 91.7205 153.559 92.0896 163.365L89.875 176.871L93.0124 177.981L95.4116 175.946C95.4116 175.946 96.1498 168.73 98.549 165.215C100.948 161.7 106.485 145.048 106.485 145.048C106.485 145.048 121.249 113.966 120.695 109.525C120.142 105.085 105.931 103.79 105.931 103.79Z" fill="#FBBEBE"/>
    <path d="M138.597 99.9043C138.597 99.9043 142.103 101.569 137.121 131.172C137.121 131.172 139.889 150.784 137.49 161.515L137.121 172.245H133.245L132.507 171.135C132.507 171.135 132.322 161.515 131.03 158.924C129.738 156.334 128.631 141.348 128.631 141.348C128.631 141.348 122.725 110.82 124.017 108.23C125.309 105.64 138.597 99.9043 138.597 99.9043Z" fill="#FBBEBE"/>
    <path d="M89.3213 173.726C89.3213 173.726 90.6131 176.686 93.0123 175.946C95.4115 175.206 95.9652 175.206 95.9652 175.206C95.9652 175.206 94.3042 183.717 94.8579 187.787C95.4115 191.857 94.4887 194.447 90.7977 194.447C87.1066 194.447 86.553 190.007 86.553 190.007L88.2139 179.461L89.3213 173.726Z" fill="#2F2E41"/>
    <path d="M131.769 169.1C131.769 169.1 133.06 171.69 135.09 171.135C137.121 170.58 137.859 169.655 137.859 169.655C137.859 169.655 137.674 175.391 138.412 177.981C139.151 180.571 140.812 187.972 136.936 188.342C135.872 188.472 134.794 188.254 133.863 187.72C132.932 187.187 132.198 186.367 131.769 185.382V169.1L131.769 169.1Z" fill="#2F2E41"/>
    <path d="M122.541 42.7344C127.026 42.7344 130.661 39.0897 130.661 34.5937C130.661 30.0977 127.026 26.453 122.541 26.453C118.056 26.453 114.421 30.0977 114.421 34.5937C114.421 39.0897 118.056 42.7344 122.541 42.7344Z" fill="#FBBEBE"/>
    <path d="M137.49 49.2099C137.49 49.2099 131.057 46.6779 128.737 47.0188C127.737 47.8706 126.572 48.5052 125.315 48.8823C124.057 49.2595 122.736 49.371 121.434 49.2099C117.004 48.6549 115.272 46.5239 115.272 46.5239C115.272 46.5239 103.347 49.2099 104.086 50.32C104.824 51.4301 108.146 69.5617 108.146 69.5617C108.146 69.5617 110.36 85.288 107.777 90.6535C105.193 96.0189 103.901 104.9 105.008 105.64C106.116 106.38 118.481 109.71 119.957 110.635C121.434 111.56 121.987 108.415 122.91 108.97C123.833 109.525 125.863 110.45 127.155 109.71C128.447 108.97 140.996 102.309 140.627 101.014C140.258 99.7192 135.46 83.9929 133.799 80.8476C132.138 77.7024 133.43 71.0418 134.352 69.7467C135.275 68.4516 137.121 66.9714 137.49 63.2711C137.859 59.5708 137.49 49.2099 137.49 49.2099Z" fill="#FD8B10"/>
    <path d="M104.492 49.7483C104.492 49.7483 102.978 50.8751 102.425 53.2803C101.871 55.6856 101.133 74.9272 101.133 74.9272C101.133 74.9272 94.3044 101.384 95.7808 101.94C97.2572 102.495 101.502 103.605 102.056 103.05C102.609 102.495 108.884 80.1077 108.33 77.7024C107.777 75.2972 109.069 68.2666 109.069 68.2666L104.492 49.7483Z" fill="#2F2E41"/>
    <path d="M138.597 84.178C138.597 84.178 128.631 79.1825 127.524 82.5128C126.417 85.8431 138.043 89.3584 138.043 89.3584C138.043 89.3584 142.103 87.8783 142.103 86.9532C142.103 86.0281 138.597 84.178 138.597 84.178Z" fill="#FBBEBE"/>
    <path d="M135.46 49.9501L137.49 49.21C137.49 49.21 138.597 48.47 139.889 51.2452C141.181 54.0204 155.207 70.3018 152.623 75.4823C150.039 80.6627 141.55 91.2086 141.181 90.4686C140.812 89.7285 136.567 84.178 137.305 83.623C138.043 83.0679 146.533 75.4823 145.425 74.3722C144.318 73.2621 139.704 63.8263 137.12 63.4562C134.537 63.0862 135.46 49.9501 135.46 49.9501Z" fill="#2F2E41"/>
    <path d="M113.59 34.3162C113.59 34.3162 85.4479 22.9723 61.087 12.0564C61.087 12.0564 48.3528 8.91111 41.7089 14.8316C41.7089 14.8316 47.2455 14.0915 47.2455 17.2368C47.2455 17.2368 52.0439 23.5274 37.0951 24.6375C26.6844 25.4106 22.5393 31.6575 20.9821 35.379C19.7664 38.3664 17.6293 40.8856 14.8833 42.5682C11.285 44.7241 6.0701 46.3102 0 43.5091C0 43.5091 0.345087 44.0409 0.999672 44.9271C12.7195 60.7938 56.3633 74.6027 71.7752 62.3113C81.2997 54.7151 96.399 45.1142 107.223 49.95C124.202 57.5357 127.339 54.2054 127.339 54.2054L128.077 52.1702C128.077 52.1702 111.652 47.7298 111.283 41.9944C110.914 36.2589 113.59 34.3162 113.59 34.3162Z" fill="#045A7C"/>
    <path d="M130.015 35.7963C130.015 35.7963 133.983 37.3689 134.721 42.5493C134.721 42.5493 138.966 50.8751 134.168 52.9102C129.369 54.9454 128.447 54.3904 128.447 54.3904V53.4653C128.447 53.4653 133.614 50.32 132.507 47.9148C131.399 45.5096 130.015 35.7963 130.015 35.7963Z" fill="#045A7C"/>
    <path d="M122.91 59.3858C122.91 59.3858 124.202 56.0555 123.833 56.0555C123.464 56.0555 125.334 54.0072 126.06 54.7539C126.785 55.5005 128.077 57.7207 126.601 58.2757C125.125 58.8307 122.91 59.3858 122.91 59.3858Z" fill="#045A7C"/>
    <path d="M132.006 57.4091C132.006 57.4091 128.632 56.2559 128.648 56.6256C128.663 56.9953 126.543 55.2082 127.256 54.4498C127.97 53.6915 130.128 52.3037 130.743 53.759C131.359 55.2143 132.006 57.4091 132.006 57.4091Z" fill="#045A7C"/>
    <path d="M126.601 52.3553C126.601 52.3553 128.286 51.4071 129.289 52.8988C130.292 54.3904 128.077 56.9806 126.601 56.9806C125.125 56.9806 125.125 53.8354 125.125 53.8354L126.601 52.3553Z" fill="#045A7C"/>
    <path opacity="0.1" d="M126.601 52.3553C126.601 52.3553 128.286 51.4071 129.289 52.8988C130.292 54.3904 128.077 56.9806 126.601 56.9806C125.125 56.9806 125.125 53.8354 125.125 53.8354L126.601 52.3553Z" fill="#045A7C"/>
    <path d="M115.5 21.3092C114.527 22.1133 113.605 23.0145 113 24.1236C112.682 24.7457 112.417 25.3931 112.206 26.0592C111.46 28.2124 109.605 30.3932 110.39 32.5324C110.614 33.1429 110.964 33.7865 110.763 34.405C110.584 34.9543 110.034 35.2748 109.636 35.6923C108.781 36.5885 108.637 37.9331 108.585 39.1718C108.489 41.4404 109.734 44.1137 111.237 45.8119C111.564 46.1314 111.866 46.4746 112.142 46.8388C112.328 47.1292 112.45 47.4563 112.498 47.7979C112.547 48.1396 112.522 48.4877 112.425 48.8189L114.615 48.3606C114.694 49.1712 114.719 49.9862 114.689 50.8001C115.209 50.8574 115.732 50.7334 116.171 50.4491C116.609 50.1648 116.937 49.7376 117.098 49.2394C117.222 49.8198 117.425 50.3806 117.7 50.9061C118.342 50.1005 118.835 49.1857 119.155 48.2054C119.574 46.9496 119.664 45.6069 119.416 44.3063C119.184 43.3564 118.868 42.4289 118.473 41.5349C117.699 39.5742 117.067 37.5608 116.436 35.5494C116.108 34.5047 115.776 33.4261 115.875 32.3355L116.654 32.2506C116.662 31.8198 116.745 31.3938 116.899 30.9915C117.355 31.0883 117.794 31.2538 118.201 31.4826L119.098 29.2005C119.69 29.8161 120.54 30.0947 121.353 30.3515L124.446 31.3277L124.465 30.7142C125.77 31.8726 127.257 32.8076 128.866 33.4815C128.775 33.3715 128.708 33.2434 128.671 33.1057C128.633 32.968 128.626 32.8238 128.648 32.6829C129.41 34.0516 129.106 35.7567 128.635 37.2516C128.165 38.7465 127.541 40.2684 127.73 41.8244C127.872 42.9881 128.467 44.1011 128.356 45.2682C128.302 45.8429 128.078 46.3899 128.008 46.9629C127.842 48.3297 128.559 49.6312 129.251 50.8206L130.596 48.9682C131.088 48.2902 131.596 47.5975 132.293 47.1341C133.009 46.6584 133.896 46.4449 134.52 45.8531C135.633 44.7968 135.492 42.9972 135.13 41.5039C134.937 40.71 134.704 39.9049 134.775 39.0911C134.895 37.7114 135.852 36.5698 136.39 35.2945C136.774 34.3646 136.94 33.359 136.877 32.3546C136.813 31.3503 136.52 30.374 136.022 29.5005C135.353 28.3512 134.344 27.4257 133.714 26.2548C133.087 25.0893 132.848 23.7024 131.989 22.6965C131.569 22.2387 131.081 21.849 130.542 21.5414C128.101 20.0708 125.359 19.1739 122.522 18.9182C119.832 18.6362 117.562 19.6055 115.5 21.3092Z" fill="#F43471"/>
  </g>
  <g clip-path="url(#clip1_238_657)" transform="matrix(0.788829, 0, 0, 0.788829, 26.314484, 71.26484)" style="">
    <path d="M373.634 59.5117C372.941 58.947 372.293 58.3283 371.697 57.6616C371.697 57.8205 371.697 57.9795 371.697 58.1384C366.966 53.3073 367.133 47.4546 369.07 42.1153L369.71 41.8781C372.751 33.8314 379.721 27.0823 379.721 27.0823L378.68 27.5201C379.003 27.1865 379.188 26.9989 379.188 26.9989C335.967 45.4507 305.895 46.5269 302.541 46.5895C300.474 45.8077 283.441 39.6006 266.963 37.2867C261.779 36.5336 256.631 36.1558 252.007 36.4476L246.815 14.1392L246.717 14.1991C246.474 12.2864 245.576 8.12234 242.29 5.53997C237.903 2.11071 241.171 17.889 241.171 17.889L241.53 17.7196L243.368 37.5863L242.473 38.3368C237.279 39.8863 231.919 40.8109 226.507 41.0912C227.505 40.1673 228.327 39.0699 228.934 37.8521C229.282 37.9241 229.643 37.9087 229.984 37.8073C230.325 37.706 230.636 37.5217 230.889 37.271C231.06 37.0914 231.204 36.8888 231.319 36.6691C231.558 36.2824 231.75 35.8687 231.891 35.4365C232.969 32.5389 234.146 29.6334 234.495 26.5637C234.844 23.4941 234.271 20.1638 232.206 17.8629C230.142 15.562 226.377 14.6864 223.849 16.4636C223.195 16.9222 222.641 17.532 221.922 17.8811C219.732 18.9417 217.303 17.2219 215.264 15.8929C212.895 14.3476 209.766 13.2402 207.31 14.6421C206.544 15.0881 205.914 15.735 205.488 16.5131C204.814 17.5812 204.498 18.8361 204.584 20.0961C204.725 22.1208 205.816 24.0048 207.276 25.4015C207.767 25.9168 208.37 26.3111 209.039 26.5533C209.209 26.6056 209.383 26.644 209.56 26.668C208.746 27.9012 208.182 29.2832 207.903 30.7346C207.623 32.1861 207.632 33.6786 207.93 35.1265L207.021 40.6299C206.214 41.0078 205.764 41.8338 205.511 42.6416C201.712 42.7537 197.825 45.3595 197.825 45.3595L182.896 60.3013C179.024 62.9306 181.651 67.7722 181.651 67.7722L190.361 93.9216L190.842 93.562C192.628 96.8192 197.872 105.809 198.88 101.327C200.111 95.8968 196.276 90.9666 196.276 90.9666H196.229L195.237 89.6897L191.592 70.2503L196.203 65.6667L202.4 64.7624L202.676 105.015C191.34 134.901 192.722 148.597 192.722 148.597L202.676 185.954L203.946 185.743L204.254 186.973L204.366 186.934L204.918 189.691H203.923L202.678 193.427C202.678 193.427 196.32 193.289 196.458 194.673C196.596 196.057 200.054 198.41 208.901 195.919L211.39 193.427C211.39 193.427 212.635 192.182 210.146 189.691H209.969L209.279 184.854L210.146 184.708L202.676 147.344C208.896 142.223 220.094 122.44 220.094 122.44C220.094 122.44 231.29 142.226 237.513 147.344L230.048 184.698L230.915 184.844L230.235 189.68H230.058C227.569 192.171 228.814 193.417 228.814 193.417L231.303 195.908C240.155 198.399 243.608 196.046 243.746 194.663C243.884 193.279 237.526 193.417 237.526 193.417L236.281 189.68H235.287L236.003 186.095L236.13 185.712L237.526 185.944L247.479 148.586C247.479 148.586 247.295 127.002 237.63 100.022L257.485 127.888L273.196 152.68C274.027 150.675 275.05 148.755 276.25 146.947L287.617 136.318C300.831 128.451 318.471 127.98 329.364 128.628L339.409 129.715L344.132 104.814C346.884 101.267 350.969 98.2082 356.908 95.9202C369.229 91.1776 379.56 81.1088 379.477 71.3187C379.656 71.5193 379.831 71.72 379.997 71.9232C380.125 67.5924 378.248 63.2928 373.634 59.5117ZM237.265 96.4492L237.252 95.9906L237.825 96.8922L237.265 96.4492Z" fill="url(#paint0_linear_238_657)"/>
    <path d="M198.385 91.2037H198.338L196.128 88.3503L192.55 91.9307L192.946 92.5249L192.496 92.6343C192.496 92.6343 199.716 106.591 200.918 101.293C202.121 95.9958 198.385 91.2037 198.385 91.2037Z" fill="#FDB797"/>
    <path d="M213.458 41.3362C213.458 41.3362 226.624 45.2892 245.061 39.3583C263.497 33.4275 301.682 47.9237 301.682 47.9237C301.682 47.9237 331.968 47.9237 376.74 28.8152C376.74 28.8152 356.33 48.5829 370.814 60.4446C385.298 72.3063 372.132 89.437 355.013 96.0271C337.894 102.617 336.579 115.795 337.894 128.316C339.209 140.837 337.894 128.975 337.894 128.975C337.894 128.975 286.539 119.75 273.37 151.385L208.19 48.5855C208.19 48.5855 204.241 40.6795 213.458 41.3362Z" fill="#F43471"/>
    <path opacity="0.1" d="M180.831 21.9358L344.77 139.886L354.646 110.893L180.831 21.9358Z" fill="black"/>
    <path opacity="0.1" d="M190.707 58.8368L281.564 151.088L294.733 141.204L190.707 58.8368Z" fill="black"/>
    <g opacity="0.1">
      <path opacity="0.1" d="M217.262 50.6363C217.262 50.6363 230.428 54.5894 248.865 48.6585C267.301 42.7277 305.481 57.2264 305.481 57.2264C305.481 57.2264 329.981 57.2264 367.484 43.3218C370.45 35.4731 377.245 28.8907 377.245 28.8907C332.463 47.9992 302.187 47.9992 302.187 47.9992C302.187 47.9992 264 33.5031 245.566 39.4339C227.132 45.3647 213.963 41.4117 213.963 41.4117C204.746 40.7524 208.696 48.6611 208.696 48.6611L211.406 52.9373C211.971 51.4962 213.546 50.3705 217.262 50.6363Z" fill="black"/>
      <path opacity="0.1" d="M371.327 60.5202C370.651 59.969 370.019 59.3652 369.437 58.7144C369.286 62.6048 370.627 66.4745 374.618 69.7448C375.682 70.6061 376.657 71.5716 377.529 72.6268C377.657 68.4002 375.826 64.2048 371.327 60.5202Z" fill="black"/>
    </g>
    <path d="M237.362 182.608L236.148 188.682H231.292L232.508 180.179L237.362 182.608Z" fill="#FDB797"/>
    <path opacity="0.1" d="M237.263 183.447L236.922 184.474L232.134 183.106L232.475 182.42L237.263 183.447Z" fill="black"/>
    <path d="M205.813 182.608L207.027 188.682H211.88L210.666 180.179L205.813 182.608Z" fill="#FDB797"/>
    <path opacity="0.1" d="M205.795 183.447L206.136 184.815L210.927 183.106V182.42L205.795 183.447Z" fill="black"/>
    <path d="M247.633 17.3261C247.633 17.3261 247.498 11.2389 243.225 7.88785C238.952 4.53676 242.15 19.9241 242.15 19.9241L247.633 17.3261Z" fill="#FDB797"/>
    <path d="M211.88 187.468H205.813L204.6 191.116C204.6 191.116 198.398 190.981 198.533 192.33C198.669 193.68 202.038 195.979 210.666 193.545L213.093 191.116C213.093 191.116 214.306 189.897 211.88 187.468Z" fill="#333333"/>
    <path d="M231.293 187.468H237.359L238.572 191.116C238.572 191.116 244.774 190.981 244.639 192.33C244.503 193.68 241.134 195.979 232.506 193.545L230.079 191.116C230.079 191.116 228.866 189.897 231.293 187.468Z" fill="#333333"/>
    <path d="M238.567 104.887H204.6C193.545 134.033 194.893 147.393 194.893 147.393L204.6 183.825L211.89 182.611L204.6 146.186C210.666 141.194 221.589 121.898 221.589 121.898C221.589 121.898 232.506 141.183 238.567 146.186L231.277 182.618L238.567 183.833L248.273 147.401C248.273 147.401 249.63 134.033 238.567 104.887Z" fill="#333333"/>
    <path opacity="0.1" d="M204.6 105.359C204.6 105.359 223.867 112.655 238.575 105.359H204.6Z" fill="black"/>
    <path d="M203.527 61.2863L193.821 71.0008L197.466 90.4324L192.613 94.0806L184.12 68.5774C184.12 68.5774 181.558 63.8556 185.333 61.2811L199.895 46.7067C199.895 46.7067 206.144 42.5166 210.44 44.6638C214.736 46.811 203.444 61.1326 203.444 61.1326" fill="#045A7C"/>
    <path d="M203.384 61.1665L204.597 104.887C204.597 104.887 223.864 112.183 238.572 104.887L237.359 63.7306L237.049 62.3704L237.273 61.7007L251.854 49.5992C255.85 47.3973 253.739 42.4567 253.739 42.4567L247.646 16.276L242.473 19.4499L244.295 39.1343L233.912 47.7543L233.651 47.7413V47.8064L207.034 46.5947" fill="#045A7C"/>
    <path d="M222.385 40.5883H220.922C218.646 40.5883 216.801 42.4351 216.801 44.7133V47.3921C216.801 49.6702 218.646 51.5171 220.922 51.5171H222.385C224.662 51.5171 226.507 49.6702 226.507 47.3921V44.7133C226.507 42.4351 224.662 40.5883 222.385 40.5883Z" fill="#FDB797"/>
    <path opacity="0.1" d="M217.111 45.2552C218.651 45.7938 220.293 45.9797 221.915 45.7993C223.538 45.6189 225.099 45.0768 226.484 44.2129C226.142 43.2763 225.521 42.4671 224.706 41.8945C223.89 41.3218 222.918 41.0133 221.922 41.0104V41.0104C220.742 41.0144 219.604 41.447 218.719 42.2278C217.834 43.0086 217.263 44.0844 217.111 45.2552V45.2552Z" fill="black"/>
    <path d="M220.44 45.4455C226.471 45.4455 231.36 40.5525 231.36 34.5167C231.36 28.4809 226.471 23.5879 220.44 23.5879C214.41 23.5879 209.521 28.4809 209.521 34.5167C209.521 40.5525 214.41 45.4455 220.44 45.4455Z" fill="#FDB797"/>
    <path opacity="0.1" d="M212.856 28.4895C212.178 28.5751 211.49 28.5362 210.825 28.3748C210.173 28.1377 209.585 27.7524 209.107 27.2491C207.68 25.8784 206.618 24.0491 206.48 22.0739C206.342 20.0987 207.261 18.0062 208.972 17.0265C211.367 15.661 214.421 16.7398 216.73 18.246C218.717 19.5489 221.089 21.2192 223.224 20.1847C223.924 19.846 224.466 19.2492 225.104 18.8036C227.569 17.0708 231.241 17.9255 233.253 20.1691C235.266 22.4127 235.831 25.6595 235.485 28.6562C235.138 31.6529 233.993 34.4855 232.941 37.3102C232.777 37.8675 232.5 38.3848 232.126 38.8294C230.845 40.1453 228.447 39.1238 227.603 37.4926C226.137 34.6548 227.603 29.735 224.14 28.0803C221.383 26.767 215.817 28.2966 212.856 28.4895Z" fill="black"/>
    <path d="M213.02 28.2185C212.342 28.3041 211.654 28.2653 210.989 28.1038C210.337 27.8667 209.749 27.4813 209.271 26.9781C207.844 25.6074 206.782 23.7781 206.644 21.8029C206.506 19.8277 207.425 17.7353 209.135 16.7555C211.531 15.39 214.585 16.4688 216.894 17.975C218.881 19.2779 221.253 20.9482 223.388 19.9137C224.088 19.575 224.63 18.9782 225.268 18.5326C227.733 16.7998 231.404 17.6545 233.417 19.8981C235.43 22.1417 235.995 25.3885 235.648 28.3852C235.302 31.3819 234.141 34.2145 233.099 37.0392C232.936 37.5965 232.658 38.1138 232.284 38.5584C231.003 39.8743 228.605 38.8528 227.762 37.2216C226.296 34.3838 227.762 29.464 224.299 27.8093C221.555 26.496 215.978 28.0282 213.02 28.2185Z" fill="#333333"/>
    <path d="M226.507 36.9453C227.177 36.9453 227.72 35.8579 227.72 34.5166C227.72 33.1753 227.177 32.088 226.507 32.088C225.837 32.088 225.294 33.1753 225.294 34.5166C225.294 35.8579 225.837 36.9453 226.507 36.9453Z" fill="#FDB797"/>
    <path opacity="0.1" d="M203.4 61.1613L206.48 62.6049L203.4 66.3729V61.1613Z" fill="black"/>
    <path opacity="0.1" d="M237.263 61.6927L235.211 63.9754L236.578 66.0288L237.377 63.7461L237.263 61.6927Z" fill="black"/>
    <path d="M221.797 50.5529V52.5307C221.797 52.5307 207.386 49.8962 207.019 45.9406L216.53 46.5998L221.797 50.5529Z" fill="#DC2F66"/>
    <path d="M221.797 50.5529V52.5307C221.797 52.5307 236.208 49.8962 236.575 45.9406L227.064 46.5998L221.797 50.5529Z" fill="#DC2F66"/>
    <path opacity="0.1" d="M309.876 72.0144L357.281 83.2168L340.162 90.4662L309.876 72.0144Z" fill="black"/>
    <path d="M207.063 46.037C207.063 46.037 207.063 41.8964 209.823 41.8964C212.583 41.8964 215.34 50.1803 215.34 50.1803L207.063 46.037Z" fill="#DC2F66"/>
    <path opacity="0.5" d="M147.01 78.331C148.008 78.331 148.817 77.5213 148.817 76.5226C148.817 75.5238 148.008 74.7141 147.01 74.7141C146.012 74.7141 145.203 75.5238 145.203 76.5226C145.203 77.5213 146.012 78.331 147.01 78.331Z" fill="#F55F44"/>
    <path opacity="0.5" d="M169.586 120.811C170.584 120.811 171.393 120.001 171.393 119.003C171.393 118.004 170.584 117.194 169.586 117.194C168.588 117.194 167.779 118.004 167.779 119.003C167.779 120.001 168.588 120.811 169.586 120.811Z" fill="#F55F44"/>
    <path opacity="0.5" d="M361.939 6.92889C362.936 6.92889 363.745 6.11922 363.745 5.12045C363.745 4.12168 362.936 3.31201 361.939 3.31201C360.941 3.31201 360.132 4.12168 360.132 5.12045C360.132 6.11922 360.941 6.92889 361.939 6.92889Z" fill="#F55F44"/>
    <path opacity="0.5" d="M274.911 6.31387C274.663 6.20547 274.462 6.00943 274.349 5.76298C274.235 5.51654 274.216 5.23687 274.294 4.97708C274.307 4.93734 274.315 4.89622 274.318 4.85461V4.85461C274.325 4.7354 274.294 4.61698 274.229 4.51694C274.164 4.4169 274.068 4.34058 273.956 4.29931C273.844 4.25805 273.722 4.25404 273.607 4.28789C273.493 4.32174 273.392 4.39163 273.321 4.48719V4.48719C273.295 4.521 273.274 4.55775 273.258 4.59663C273.149 4.84447 272.954 5.04388 272.708 5.15718C272.462 5.27049 272.184 5.28985 271.925 5.21161C271.885 5.19891 271.844 5.19104 271.803 5.18815C271.683 5.18074 271.565 5.21199 271.465 5.27724C271.365 5.3425 271.289 5.43828 271.248 5.55037C271.207 5.66246 271.203 5.78486 271.236 5.89941C271.27 6.01395 271.34 6.11453 271.435 6.18618V6.18618C271.469 6.21138 271.506 6.23238 271.545 6.24872C271.792 6.35846 271.99 6.55466 272.102 6.80038C272.214 7.04611 272.233 7.32441 272.154 7.5829C272.141 7.62264 272.134 7.66376 272.131 7.70538V7.70538C272.123 7.82459 272.154 7.94301 272.22 8.04305C272.285 8.14309 272.381 8.21941 272.493 8.26067C272.605 8.30194 272.727 8.30594 272.841 8.2721C272.956 8.23825 273.056 8.16836 273.128 8.0728V8.0728C273.153 8.03898 273.174 8.00223 273.19 7.96335C273.299 7.71446 273.495 7.51406 273.741 7.4002C273.987 7.28635 274.266 7.26698 274.526 7.34577C274.566 7.35846 274.607 7.36634 274.648 7.36922C274.767 7.37641 274.885 7.34524 274.985 7.28031C275.084 7.21538 275.16 7.12012 275.202 7.00859C275.243 6.89706 275.248 6.77516 275.215 6.66087C275.182 6.54658 275.113 6.44594 275.018 6.3738V6.3738C274.985 6.34969 274.949 6.32958 274.911 6.31387V6.31387Z" fill="#4D8AF0"/>
    <path opacity="0.5" d="M363.712 116.277C363.463 116.168 363.263 115.972 363.149 115.726C363.035 115.48 363.016 115.2 363.095 114.94C363.107 114.9 363.115 114.859 363.118 114.818C363.125 114.698 363.094 114.58 363.029 114.48C362.964 114.38 362.868 114.304 362.756 114.262C362.644 114.221 362.522 114.217 362.407 114.251C362.293 114.285 362.192 114.355 362.121 114.45V114.45C362.096 114.484 362.075 114.521 362.058 114.56C361.95 114.809 361.754 115.009 361.508 115.123C361.262 115.237 360.982 115.256 360.723 115.177C360.683 115.165 360.642 115.157 360.6 115.154C360.481 115.146 360.363 115.178 360.263 115.243C360.163 115.308 360.087 115.404 360.045 115.516C360.004 115.628 360 115.75 360.034 115.865C360.068 115.98 360.138 116.08 360.233 116.152V116.152C360.267 116.177 360.304 116.198 360.342 116.214C360.591 116.323 360.791 116.519 360.905 116.765C361.019 117.012 361.038 117.291 360.96 117.551C360.947 117.591 360.939 117.632 360.936 117.674C360.929 117.793 360.96 117.911 361.025 118.011C361.09 118.111 361.186 118.188 361.298 118.229C361.41 118.27 361.532 118.274 361.647 118.24C361.761 118.206 361.862 118.137 361.933 118.041C361.958 118.007 361.979 117.97 361.996 117.932C362.104 117.683 362.3 117.482 362.546 117.368C362.792 117.255 363.072 117.235 363.331 117.314C363.371 117.327 363.412 117.335 363.454 117.337C363.573 117.345 363.691 117.314 363.791 117.248C363.891 117.183 363.967 117.087 364.009 116.975C364.05 116.863 364.054 116.741 364.02 116.626C363.986 116.512 363.916 116.411 363.821 116.339V116.339C363.787 116.314 363.75 116.293 363.712 116.277V116.277Z" fill="#4D8AF0"/>
    <path opacity="0.5" d="M296.918 169.615C297.915 169.615 298.724 168.806 298.724 167.807C298.724 166.808 297.915 165.999 296.918 165.999C295.92 165.999 295.111 166.808 295.111 167.807C295.111 168.806 295.92 169.615 296.918 169.615Z" fill="#47E6B1"/>
    <path opacity="0.5" d="M147.01 156.964C148.008 156.964 148.817 156.154 148.817 155.156C148.817 154.157 148.008 153.347 147.01 153.347C146.012 153.347 145.203 154.157 145.203 155.156C145.203 156.154 146.012 156.964 147.01 156.964Z" fill="#47E6B1"/>
    <path opacity="0.5" d="M291.499 25.9097C292.497 25.9097 293.306 25.1001 293.306 24.1013C293.306 23.1025 292.497 22.2928 291.499 22.2928C290.501 22.2928 289.692 23.1025 289.692 24.1013C289.692 25.1001 290.501 25.9097 291.499 25.9097Z" fill="#47E6B1"/>
    <g opacity="0.5">
      <path opacity="0.5" d="M147.01 0H146.106V5.12044H147.01V0Z" fill="#47E6B1"/>
      <path opacity="0.5" d="M149.116 3.01237V2.10815L144 2.10815V3.01237L149.116 3.01237Z" fill="#47E6B1"/>
    </g>
    <g opacity="0.5">
      <path opacity="0.5" d="M163.567 49.1067H162.663V54.2271H163.567V49.1067Z" fill="#47E6B1"/>
      <path opacity="0.5" d="M165.673 52.1191V51.2148H160.557V52.1191H165.673Z" fill="#47E6B1"/>
    </g>
    <g opacity="0.5">
      <path opacity="0.5" d="M329.127 27.1135H328.224V32.234H329.127V27.1135Z" fill="#47E6B1"/>
      <path opacity="0.5" d="M331.236 30.1259V29.2217H326.12V30.1259H331.236Z" fill="#47E6B1"/>
    </g>
  </g>
</svg>