<?xml version="1.0" encoding="utf-8"?>
<svg viewBox="0 0 352.384 297.929" xmlns="http://www.w3.org/2000/svg">
  <path d="M 1.077 65.002 C 1.069 62.019 0.668 60.73 3.647 60.737 L 340.352 61.634 C 343.189 61.642 352.401 60.819 352.573 63.652 L 352.825 287.135 C 353.063 291.056 348.667 286.833 346.544 283.527 C 302.297 214.599 220.537 209.643 149.512 250.442 L 85.488 289.182 C 67.772 300.939 36.716 295.777 34.129 294.922 C 12.767 287.86 -1.186 269.903 -1.249 247.403 L -0.26 198.613 L 1.077 65.002 Z" fill="#FD8B10" style=""/>
  <path d="M -0.178 -2.263 C -0.178 -2.263 4.193 -2.731 6.705 -2.737 L 348.357 -2.75 C 350.868 -2.756 352.909 -0.578 352.912 2.114 L 352.822 181.172 C 352.827 183.755 352.739 191.836 351.926 189.405 C 332.783 132.259 265.544 105.796 218.801 140.096 L 162.886 181.122 C 115.946 211.81 58.857 219.041 6.539 200.926 L -0.142 198.613 C -0.359 198.538 -0.507 198.32 -0.507 198.075 L -0.178 -2.263 Z" fill="#045A7C" style=""/>
</svg>