<?xml version="1.0" encoding="utf-8"?>
<svg viewBox="0 0 500 250" xmlns="http://www.w3.org/2000/svg">
  <path d="M -22.647 49.024 C -22.654 44.894 112.185 48.622 116.314 48.614 L 475.727 44.518 C 479.856 44.51 510.52 44.817 510.528 48.946 L 525.194 154.561 C 525.201 158.522 497.159 124.556 494.063 122.082 C 471.69 104.201 445.01 120.534 362.822 165.556 L 272.383 212.402 C 191.776 253.402 64.28 240.359 -21.757 212.567 L -24.519 167.333 C -24.877 167.217 -24.108 127.436 -24.109 127.06 L -22.647 49.024 Z" style="fill: rgb(253, 139, 16);"/>
  <path d="M -6.521 -5.788 C -6.528 -9.655 129.965 -13.848 133.831 -13.856 L 470.345 -13.209 C 474.211 -13.216 502.922 -12.929 502.929 -9.063 L 548.213 135.297 C 548.22 139.006 491.49 76.425 488.76 73.913 C 463.439 50.611 434.043 61.094 362.073 110.364 L 270.302 169.299 C 198.032 213.38 76.951 194.516 -3.604 168.495 L -7.697 117.495 C -8.032 117.386 -7.312 78.499 -7.313 78.147 L -6.521 -5.788 Z" fill="#045A7C"/>
</svg>