<?xml version="1.0" encoding="utf-8"?>
<svg viewBox="0 0 352.384 297.929" xmlns="http://www.w3.org/2000/svg">
  <defs>
    <linearGradient id="paint0_linear_88_992" x1="107.5" y1="125" x2="107.5" y2="19.1433" gradientUnits="userSpaceOnUse">
      <stop stop-color="#808080" stop-opacity="0.25"/>
      <stop offset="0.54" stop-color="#808080" stop-opacity="0.12"/>
      <stop offset="1" stop-color="#808080" stop-opacity="0.1"/>
    </linearGradient>
    <linearGradient id="paint1_linear_88_992" x1="39753.9" y1="21765.9" x2="53538.4" y2="21765.9" gradientUnits="userSpaceOnUse">
      <stop stop-color="#808080" stop-opacity="0.25"/>
      <stop offset="0.54" stop-color="#808080" stop-opacity="0.12"/>
      <stop offset="1" stop-color="#808080" stop-opacity="0.1"/>
    </linearGradient>
  </defs>
  <g transform="matrix(1, 0, 0, 1, -83.994829, -66.860391)">
    <g opacity="0.7" transform="matrix(1, 0, 0, 1, 152.686829, 153.321106)">
      <path opacity="0.7" d="M107.5 125C166.871 125 215 101.303 215 72.0716C215 42.8401 166.871 19.1433 107.5 19.1433C48.1294 19.1433 0 42.8401 0 72.0716C0 101.303 48.1294 125 107.5 125Z" fill="url(#paint0_linear_88_992)"/>
    </g>
    <path d="M 260.187 276.03 C 316.988 276.03 363.035 253.359 363.035 225.393 C 363.035 197.426 316.988 174.755 260.187 174.755 C 203.386 174.755 157.339 197.426 157.339 225.393 C 157.339 253.359 203.386 276.03 260.187 276.03 Z" fill="#FD8B10"/>
    <g opacity="0.5" transform="matrix(1, 0, 0, 1, 152.686829, 153.321106)">
      <path opacity="0.5" d="M187.22 103.141L185.383 100.371L181.735 88.2437L180.233 82.8828H178.707C178.723 82.7677 178.731 82.6516 178.732 82.5354C178.732 82.1139 178.623 81.6996 178.416 81.333C178.209 80.9664 177.911 80.6602 177.551 80.4441C177.56 80.3662 177.565 80.2878 177.565 80.2094C177.565 79.6527 177.375 79.1128 177.028 78.679C176.918 78.5402 176.793 78.4142 176.655 78.3035H176.638C176.578 78.2542 176.515 78.2096 176.452 78.1674L176.398 78.1345C176.344 78.1016 176.288 78.0711 176.232 78.043L176.158 78.0054L175.999 77.9373L175.915 77.9068C175.861 77.8881 175.805 77.874 175.751 77.8575L175.66 77.8364C175.602 77.8223 175.544 77.8129 175.483 77.8036H175.401C175.312 77.7933 175.222 77.7878 175.133 77.7871C174.608 77.7868 174.097 77.959 173.678 78.2777C173.588 78.0228 173.457 77.7848 173.289 77.5735C173.177 77.4358 173.052 77.3099 172.915 77.198C172.91 77.1991 172.904 77.1991 172.899 77.198C172.838 77.151 172.775 77.1064 172.71 77.0642L172.656 77.029C172.602 76.9961 172.549 76.9656 172.493 76.9375L172.418 76.9022C172.366 76.8764 172.313 76.8553 172.259 76.8342L172.173 76.8013L172.009 76.7544L171.921 76.7309C171.862 76.7173 171.803 76.7071 171.743 76.7004L171.661 76.6863C171.572 76.6769 171.483 76.6722 171.393 76.6722C171.297 76.6722 171.202 76.6722 171.108 76.6887C171.332 76.2669 171.427 75.7884 171.382 75.3127C171.338 74.8369 171.155 74.3849 170.856 74.0129C170.761 73.8729 170.651 73.7431 170.529 73.6256C170.942 73.1991 171.186 72.6352 171.213 72.0405C171.241 71.4457 171.051 70.8615 170.679 70.3983C170.569 70.2594 170.443 70.1334 170.305 70.0227L170.296 70.011C170.235 69.9617 170.172 69.9171 170.109 69.8749L170.055 69.842C170.002 69.8091 169.946 69.7786 169.89 69.7505L169.817 69.7129L169.656 69.6448L169.572 69.6143C169.519 69.5956 169.462 69.5815 169.409 69.565C169.355 69.5486 169.35 69.5486 169.32 69.5439C169.29 69.5392 169.201 69.5204 169.14 69.5111L169.059 69.4993C168.969 69.4891 168.88 69.4836 168.79 69.4829C168.727 69.4829 168.662 69.4829 168.599 69.4829C168.55 69.4054 168.498 69.3327 168.442 69.2482C168.331 69.1104 168.206 68.9846 168.069 68.8726C168.063 68.8701 168.057 68.8661 168.052 68.8609C167.992 68.8129 167.929 68.7682 167.863 68.7271L167.81 68.6919C167.756 68.659 167.702 68.6285 167.646 68.6004L167.572 68.5652C167.52 68.5393 167.467 68.5182 167.413 68.4971L167.326 68.4642L167.163 68.4173L167.074 68.3938C167.016 68.3797 166.955 68.3703 166.897 68.361L166.794 68.368C166.705 68.3586 166.615 68.3539 166.526 68.3539C166.108 68.3544 165.698 68.4642 165.336 68.6724C164.974 68.8807 164.672 69.1802 164.46 69.5416C164.399 69.5275 164.341 69.5181 164.28 69.5087L164.198 69.497C164.109 69.4868 164.02 69.4813 163.93 69.4805H163.811C163.936 69.0943 163.963 68.683 163.89 68.2836C163.818 67.8841 163.648 67.509 163.395 67.1921C163.284 67.0543 163.159 66.9285 163.022 66.8165L163.005 66.8048C162.945 66.756 162.882 66.7106 162.816 66.6687L162.763 66.6358C162.709 66.6029 162.655 66.5724 162.599 66.5443L162.525 66.5067L162.366 66.4386L162.279 66.4081C162.226 66.3893 162.172 66.3753 162.116 66.3588L162.027 66.3377C161.969 66.3236 161.908 66.3142 161.85 66.3048L161.766 66.2931C161.678 66.2828 161.589 66.2773 161.5 66.2767C161.073 66.2786 160.653 66.3938 160.285 66.6105C159.916 66.8273 159.61 67.138 159.399 67.5113C159.357 67.4808 159.317 67.4503 159.273 67.4221L159.219 67.3892C159.165 67.3552 159.11 67.3238 159.053 67.2953L158.981 67.2601C158.93 67.2343 158.876 67.2132 158.822 67.1921L158.764 67.1686C159.041 66.979 159.276 66.7337 159.454 66.4482C159.633 66.1627 159.75 65.8432 159.799 65.5098C159.849 65.1764 159.829 64.8363 159.741 64.511C159.653 64.1857 159.499 63.8823 159.289 63.6197C159.179 63.4808 159.054 63.3549 158.916 63.2442H158.899C158.84 63.1954 158.777 63.1499 158.712 63.108L158.659 63.0752C158.605 63.0423 158.549 63.0118 158.493 62.9813L158.421 62.9461L158.26 62.878L158.176 62.8475C158.122 62.8287 158.068 62.8146 158.012 62.7982L157.923 62.7747L157.744 62.7442H157.662C157.573 62.734 157.483 62.7285 157.394 62.7278C157.074 62.7278 156.758 62.7911 156.463 62.914C156.168 63.0369 155.9 63.2171 155.674 63.4443C155.449 63.6714 155.27 63.941 155.148 64.2378C155.026 64.5345 154.963 64.8525 154.963 65.1735C154.963 65.1946 154.963 65.2181 154.963 65.2392C154.91 65.2533 154.854 65.2651 154.8 65.2815C154.424 65.3994 154.082 65.6074 153.804 65.8874C153.525 66.1674 153.318 66.5112 153.201 66.8893C153.127 67.1247 153.09 67.3701 153.091 67.6169C153.091 67.7071 153.096 67.7972 153.105 67.8868L153.119 67.969V68.0253L153.091 68.0089L153.038 67.976L152.874 67.8821L152.799 67.8469L152.641 67.7789L152.554 67.7483C152.501 67.7291 152.446 67.7127 152.391 67.6991L152.302 67.6756L152.125 67.6451L152.043 67.6333C151.954 67.6231 151.864 67.6176 151.775 67.6169C151.455 67.6169 151.139 67.6802 150.844 67.8031C150.549 67.926 150.28 68.1061 150.055 68.3332C149.829 68.5604 149.65 68.83 149.527 69.1267C149.405 69.4234 149.342 69.7415 149.342 70.0626C149.343 70.1521 149.348 70.2414 149.358 70.3302C149.358 70.3584 149.358 70.3865 149.358 70.4124C149.358 70.4734 149.377 70.5344 149.391 70.5931C149.405 70.6518 149.405 70.6518 149.414 70.6823C149.424 70.7128 149.445 70.7926 149.461 70.8466L149.494 70.9311C149.515 70.9874 149.536 71.0391 149.562 71.093L149.597 71.1658C149.625 71.2221 149.655 71.2785 149.688 71.3324L149.723 71.3864C149.764 71.4514 149.808 71.5141 149.856 71.5742L149.867 71.5906L149.902 71.6352H149.86C149.802 71.6212 149.741 71.6118 149.681 71.6024L149.599 71.5906C149.51 71.5804 149.42 71.5749 149.33 71.5742C148.812 71.5742 148.307 71.741 147.89 72.0501C147.472 72.3593 147.164 72.7945 147.01 73.2923C146.973 73.416 146.946 73.5423 146.928 73.6702H146.91L146.854 73.635C146.8 73.6021 146.746 73.5716 146.69 73.5435L146.616 73.5083C146.564 73.4824 146.51 73.4613 146.457 73.4402L146.373 73.4073L146.209 73.3604L146.121 73.3369C146.06 73.3228 146.002 73.3134 145.941 73.3041L145.859 73.2923C145.77 73.2821 145.68 73.2766 145.591 73.2759C144.946 73.2765 144.328 73.5345 143.872 73.9931C143.417 74.4517 143.161 75.0734 143.161 75.7216C143.161 75.8118 143.165 75.9019 143.175 75.9915L143.189 76.0737C143.189 76.1324 143.207 76.1934 143.219 76.2521C143.231 76.3108 143.235 76.3131 143.242 76.3413C143.249 76.3694 143.273 76.4539 143.291 76.5079C143.31 76.5619 143.31 76.5643 143.322 76.5924C143.333 76.6206 143.364 76.7004 143.389 76.752L143.424 76.8271C143.452 76.8835 143.485 76.9374 143.518 76.9914C143.527 77.0102 143.538 77.0283 143.55 77.0454C143.592 77.1111 143.637 77.1745 143.683 77.2355L143.697 77.252V77.266C143.462 77.6499 143.338 78.092 143.338 78.5429C143.338 78.6323 143.343 78.7216 143.352 78.8105L143.366 78.8926C143.366 78.9537 143.385 79.0147 143.396 79.0734C143.408 79.132 143.413 79.132 143.42 79.1625C143.427 79.1931 143.45 79.2729 143.469 79.3269C143.487 79.3808 143.487 79.3832 143.499 79.4113C143.511 79.4395 143.543 79.5217 143.567 79.5733L143.602 79.6461C143.63 79.7031 143.661 79.7588 143.695 79.8127C143.695 79.8315 143.716 79.8503 143.728 79.8667C143.24 79.9 142.773 80.0811 142.39 80.3861C142.006 80.6911 141.723 81.1057 141.578 81.5754C141.504 81.8109 141.467 82.0563 141.468 82.303C141.468 82.3932 141.473 82.4833 141.482 82.573L141.496 82.6551C141.503 82.7151 141.513 82.7747 141.526 82.8335L141.547 82.9203H137.908L132.663 100.336L130.494 103.141H187.22ZM154.567 75.5174L154.52 75.4447L154.632 75.4141L154.567 75.5174ZM165.961 73.2501L166.001 73.182L166.089 73.2008C166.047 73.2172 166.003 73.2313 165.961 73.2501Z" fill="url(#paint1_linear_88_992)"/>
    </g>
    <path d="M 294.33 245.057 C 295.601 245.057 296.632 244.021 296.632 242.743 C 296.632 241.465 295.601 240.429 294.33 240.429 C 293.059 240.429 292.028 241.465 292.028 242.743 C 292.028 244.021 293.059 245.057 294.33 245.057 Z" fill="#795548"/>
    <path opacity="0.05" d="M 292.386 243.1 C 292.385 242.664 292.508 242.238 292.738 241.869 C 292.969 241.5 293.298 241.205 293.689 241.016 C 294.079 240.828 294.515 240.754 294.945 240.804 C 295.375 240.853 295.783 241.025 296.121 241.297 C 295.919 241.043 295.666 240.835 295.378 240.686 C 295.091 240.537 294.776 240.451 294.453 240.433 C 294.13 240.415 293.807 240.465 293.505 240.581 C 293.203 240.697 292.928 240.876 292.7 241.106 C 292.471 241.335 292.293 241.611 292.177 241.915 C 292.062 242.218 292.011 242.543 292.029 242.868 C 292.047 243.193 292.132 243.51 292.28 243.799 C 292.428 244.088 292.635 244.342 292.888 244.546 C 292.56 244.136 292.383 243.625 292.386 243.1 Z" fill="white"/>
    <path d="M 302.295 245.593 C 303.566 245.593 304.597 244.556 304.597 243.278 C 304.597 242 303.566 240.964 302.295 240.964 C 301.024 240.964 299.994 242 299.994 243.278 C 299.994 244.556 301.024 245.593 302.295 245.593 Z" fill="#795548"/>
    <path opacity="0.05" d="M 300.339 243.632 C 300.34 243.197 300.462 242.771 300.693 242.403 C 300.924 242.035 301.253 241.74 301.643 241.552 C 302.034 241.363 302.469 241.289 302.899 241.339 C 303.329 241.388 303.736 241.558 304.074 241.83 C 303.872 241.577 303.618 241.37 303.331 241.222 C 303.044 241.074 302.729 240.989 302.407 240.972 C 302.084 240.954 301.762 241.005 301.461 241.121 C 301.159 241.238 300.886 241.416 300.658 241.646 C 300.429 241.875 300.252 242.15 300.136 242.453 C 300.021 242.756 299.97 243.08 299.987 243.404 C 300.005 243.728 300.09 244.045 300.237 244.334 C 300.384 244.623 300.59 244.877 300.841 245.081 C 300.515 244.669 300.338 244.159 300.339 243.632 Z" fill="white"/>
    <path d="M 306.896 245.947 C 308.168 245.947 309.198 244.911 309.198 243.633 C 309.198 242.354 308.168 241.318 306.896 241.318 C 305.625 241.318 304.595 242.354 304.595 243.633 C 304.595 244.911 305.625 245.947 306.896 245.947 Z" fill="#795548"/>
    <path opacity="0.05" d="M 304.949 243.987 C 304.949 243.551 305.071 243.125 305.302 242.756 C 305.533 242.387 305.862 242.092 306.253 241.903 C 306.643 241.715 307.079 241.641 307.509 241.691 C 307.939 241.741 308.347 241.912 308.685 242.184 C 308.482 241.932 308.229 241.725 307.942 241.577 C 307.654 241.429 307.339 241.344 307.017 241.326 C 306.695 241.309 306.373 241.36 306.071 241.476 C 305.77 241.592 305.496 241.771 305.268 242 C 305.04 242.229 304.862 242.505 304.747 242.808 C 304.631 243.111 304.581 243.435 304.598 243.759 C 304.615 244.083 304.7 244.399 304.847 244.688 C 304.994 244.977 305.2 245.232 305.451 245.435 C 305.125 245.024 304.948 244.513 304.949 243.987 Z" fill="white"/>
    <path d="M 309.196 245.057 C 310.467 245.057 311.498 244.021 311.498 242.743 C 311.498 241.465 310.467 240.429 309.196 240.429 C 307.925 240.429 306.894 241.465 306.894 242.743 C 306.894 244.021 307.925 245.057 309.196 245.057 Z" fill="#795548"/>
    <path opacity="0.05" d="M 307.249 243.1 C 307.25 242.665 307.372 242.239 307.603 241.87 C 307.834 241.502 308.163 241.207 308.553 241.019 C 308.943 240.831 309.378 240.757 309.808 240.806 C 310.238 240.855 310.646 241.025 310.984 241.297 C 310.782 241.043 310.529 240.835 310.242 240.686 C 309.954 240.537 309.639 240.451 309.316 240.433 C 308.993 240.415 308.67 240.465 308.368 240.581 C 308.066 240.697 307.791 240.876 307.563 241.106 C 307.334 241.335 307.156 241.611 307.041 241.915 C 306.925 242.218 306.874 242.543 306.892 242.868 C 306.91 243.193 306.996 243.51 307.144 243.799 C 307.291 244.088 307.498 244.342 307.751 244.546 C 307.424 244.136 307.246 243.625 307.249 243.1 Z" fill="white"/>
    <path d="M 327.07 245.057 C 328.342 245.057 329.372 244.021 329.372 242.743 C 329.372 241.465 328.342 240.429 327.07 240.429 C 325.799 240.429 324.769 241.465 324.769 242.743 C 324.769 244.021 325.799 245.057 327.07 245.057 Z" fill="#795548"/>
    <path opacity="0.05" d="M 325.124 243.1 C 325.123 242.664 325.245 242.238 325.476 241.869 C 325.707 241.5 326.036 241.205 326.427 241.016 C 326.817 240.828 327.253 240.754 327.683 240.804 C 328.113 240.853 328.521 241.025 328.859 241.297 C 328.657 241.043 328.404 240.835 328.116 240.686 C 327.829 240.537 327.513 240.451 327.191 240.433 C 326.868 240.415 326.545 240.465 326.243 240.581 C 325.941 240.697 325.666 240.876 325.437 241.106 C 325.209 241.335 325.031 241.611 324.915 241.915 C 324.8 242.218 324.749 242.543 324.767 242.868 C 324.785 243.193 324.87 243.51 325.018 243.799 C 325.166 244.088 325.373 244.342 325.625 244.546 C 325.299 244.135 325.122 243.625 325.124 243.1 Z" fill="white"/>
    <path d="M 318.046 244.881 C 319.317 244.881 320.347 243.845 320.347 242.567 C 320.347 241.289 319.317 240.253 318.046 240.253 C 316.774 240.253 315.744 241.289 315.744 242.567 C 315.744 243.845 316.774 244.881 318.046 244.881 Z" fill="#795548"/>
    <path opacity="0.05" d="M 316.099 242.921 C 316.099 242.486 316.222 242.06 316.453 241.692 C 316.684 241.324 317.013 241.029 317.403 240.84 C 317.793 240.652 318.228 240.578 318.658 240.628 C 319.088 240.677 319.496 240.847 319.834 241.119 C 319.631 240.866 319.378 240.659 319.091 240.511 C 318.804 240.363 318.489 240.278 318.166 240.261 C 317.844 240.243 317.522 240.294 317.22 240.41 C 316.919 240.526 316.645 240.705 316.417 240.934 C 316.189 241.164 316.011 241.439 315.896 241.742 C 315.78 242.045 315.73 242.369 315.747 242.693 C 315.764 243.017 315.849 243.334 315.996 243.623 C 316.143 243.911 316.349 244.166 316.601 244.369 C 316.273 243.959 316.096 243.448 316.099 242.921 Z" fill="white"/>
    <path d="M 297.694 242.924 C 298.965 242.924 299.996 241.887 299.996 240.609 C 299.996 239.331 298.965 238.295 297.694 238.295 C 296.423 238.295 295.392 239.331 295.392 240.609 C 295.392 241.887 296.423 242.924 297.694 242.924 Z" fill="#795548"/>
    <path opacity="0.05" d="M 295.747 240.964 C 295.748 240.529 295.871 240.103 296.101 239.734 C 296.332 239.366 296.661 239.071 297.052 238.883 C 297.442 238.695 297.877 238.621 298.307 238.67 C 298.737 238.719 299.144 238.889 299.482 239.161 C 299.28 238.908 299.027 238.701 298.739 238.554 C 298.452 238.406 298.137 238.32 297.815 238.303 C 297.493 238.286 297.17 238.337 296.869 238.453 C 296.568 238.569 296.294 238.747 296.066 238.977 C 295.838 239.206 295.66 239.481 295.544 239.784 C 295.429 240.087 295.378 240.412 295.396 240.736 C 295.413 241.06 295.498 241.376 295.645 241.665 C 295.792 241.954 295.998 242.208 296.249 242.412 C 295.923 242.001 295.746 241.49 295.747 240.964 Z" fill="white"/>
    <path d="M 316.276 238.119 C 317.547 238.119 318.578 237.083 318.578 235.805 C 318.578 234.527 317.547 233.491 316.276 233.491 C 315.005 233.491 313.974 234.527 313.974 235.805 C 313.974 237.083 315.005 238.119 316.276 238.119 Z" fill="#795548"/>
    <path opacity="0.05" d="M 314.329 236.159 C 314.329 235.722 314.452 235.293 314.684 234.923 C 314.916 234.553 315.247 234.257 315.64 234.069 C 316.033 233.881 316.471 233.809 316.903 233.861 C 317.335 233.913 317.743 234.087 318.081 234.364 C 317.878 234.111 317.625 233.904 317.338 233.756 C 317.05 233.608 316.735 233.523 316.413 233.505 C 316.091 233.488 315.769 233.539 315.467 233.655 C 315.166 233.771 314.892 233.95 314.664 234.179 C 314.436 234.409 314.258 234.684 314.143 234.987 C 314.027 235.29 313.977 235.614 313.994 235.938 C 314.011 236.262 314.096 236.579 314.243 236.867 C 314.39 237.156 314.596 237.411 314.847 237.614 C 314.513 237.204 314.33 236.69 314.329 236.159 Z" fill="white"/>
    <path d="M 309.196 232.782 C 310.467 232.782 311.498 231.746 311.498 230.467 C 311.498 229.189 310.467 228.153 309.196 228.153 C 307.925 228.153 306.894 229.189 306.894 230.467 C 306.894 231.746 307.925 232.782 309.196 232.782 Z" fill="#795548"/>
    <path d="M 311.488 229.221 C 312.759 229.221 313.79 228.185 313.79 226.907 C 313.79 225.629 312.759 224.592 311.488 224.592 C 310.217 224.592 309.186 225.629 309.186 226.907 C 309.186 228.185 310.217 229.221 311.488 229.221 Z" fill="#795548"/>
    <path opacity="0.05" d="M 307.249 230.822 C 307.25 230.387 307.374 229.961 307.605 229.594 C 307.836 229.226 308.165 228.932 308.555 228.743 C 308.944 228.555 309.379 228.481 309.809 228.53 C 310.238 228.579 310.646 228.748 310.984 229.019 C 310.781 228.766 310.528 228.559 310.241 228.412 C 309.954 228.264 309.639 228.178 309.317 228.161 C 308.994 228.144 308.672 228.195 308.371 228.311 C 308.069 228.427 307.796 228.605 307.567 228.835 C 307.339 229.064 307.162 229.339 307.046 229.642 C 306.931 229.945 306.88 230.269 306.897 230.593 C 306.915 230.917 307 231.234 307.147 231.523 C 307.294 231.812 307.499 232.066 307.751 232.27 C 307.424 231.859 307.246 231.348 307.249 230.822 Z" fill="white"/>
    <path d="M 301.763 234.561 C 303.034 234.561 304.065 233.525 304.065 232.247 C 304.065 230.968 303.034 229.932 301.763 229.932 C 300.492 229.932 299.461 230.968 299.461 232.247 C 299.461 233.525 300.492 234.561 301.763 234.561 Z" fill="#795548"/>
    <path opacity="0.05" d="M 299.818 232.601 C 299.819 232.166 299.942 231.74 300.173 231.372 C 300.403 231.004 300.733 230.708 301.123 230.52 C 301.513 230.332 301.948 230.258 302.378 230.307 C 302.808 230.356 303.215 230.527 303.553 230.798 C 303.351 230.546 303.098 230.339 302.811 230.191 C 302.523 230.043 302.208 229.958 301.886 229.94 C 301.564 229.923 301.242 229.974 300.94 230.09 C 300.639 230.206 300.365 230.385 300.137 230.614 C 299.909 230.843 299.731 231.119 299.616 231.422 C 299.5 231.725 299.449 232.049 299.467 232.373 C 299.484 232.697 299.569 233.013 299.716 233.302 C 299.863 233.591 300.069 233.846 300.32 234.049 C 299.993 233.638 299.816 233.127 299.818 232.601 Z" fill="white"/>
    <path d="M 297.162 237.941 C 298.433 237.941 299.464 236.905 299.464 235.626 C 299.464 234.348 298.433 233.312 297.162 233.312 C 295.891 233.312 294.86 234.348 294.86 235.626 C 294.86 236.905 295.891 237.941 297.162 237.941 Z" fill="#795548"/>
    <path opacity="0.05" d="M 295.215 235.983 C 295.216 235.548 295.339 235.122 295.57 234.755 C 295.801 234.387 296.13 234.092 296.52 233.903 C 296.909 233.715 297.344 233.641 297.774 233.689 C 298.204 233.738 298.612 233.907 298.95 234.178 C 298.748 233.926 298.494 233.719 298.207 233.571 C 297.92 233.423 297.605 233.337 297.283 233.32 C 296.96 233.303 296.638 233.354 296.337 233.47 C 296.035 233.586 295.762 233.764 295.534 233.994 C 295.305 234.223 295.128 234.499 295.012 234.802 C 294.897 235.105 294.846 235.429 294.863 235.753 C 294.881 236.077 294.966 236.393 295.113 236.682 C 295.26 236.971 295.466 237.225 295.717 237.429 C 295.39 237.019 295.213 236.509 295.215 235.983 Z" fill="white"/>
    <path d="M 310.965 239.187 C 312.236 239.187 313.267 238.151 313.267 236.873 C 313.267 235.595 312.236 234.558 310.965 234.558 C 309.694 234.558 308.664 235.595 308.664 236.873 C 308.664 238.151 309.694 239.187 310.965 239.187 Z" fill="#795548"/>
    <path opacity="0.05" d="M 309.021 237.227 C 309.021 236.792 309.144 236.366 309.375 235.998 C 309.606 235.63 309.935 235.335 310.325 235.146 C 310.715 234.958 311.15 234.884 311.58 234.933 C 312.01 234.983 312.418 235.153 312.756 235.425 C 312.553 235.172 312.3 234.965 312.013 234.817 C 311.726 234.669 311.411 234.584 311.088 234.566 C 310.766 234.549 310.444 234.6 310.142 234.716 C 309.841 234.832 309.567 235.011 309.339 235.24 C 309.111 235.47 308.933 235.745 308.818 236.048 C 308.703 236.351 308.652 236.675 308.669 236.999 C 308.686 237.323 308.771 237.64 308.918 237.928 C 309.065 238.217 309.271 238.472 309.523 238.675 C 309.195 238.265 309.018 237.753 309.021 237.227 Z" fill="white"/>
    <path d="M 316.099 228.156 C 317.37 228.156 318.4 227.119 318.4 225.841 C 318.4 224.563 317.37 223.527 316.099 223.527 C 314.827 223.527 313.797 224.563 313.797 225.841 C 313.797 227.119 314.827 228.156 316.099 228.156 Z" fill="#795548"/>
    <path opacity="0.05" d="M 314.152 226.195 C 314.152 225.76 314.275 225.334 314.506 224.966 C 314.737 224.598 315.066 224.303 315.456 224.115 C 315.846 223.926 316.281 223.852 316.711 223.902 C 317.141 223.951 317.549 224.121 317.887 224.393 C 317.684 224.14 317.431 223.933 317.144 223.785 C 316.857 223.637 316.542 223.552 316.219 223.535 C 315.897 223.517 315.575 223.568 315.274 223.684 C 314.972 223.8 314.699 223.979 314.47 224.209 C 314.242 224.438 314.065 224.713 313.949 225.016 C 313.834 225.319 313.783 225.643 313.8 225.967 C 313.817 226.291 313.902 226.608 314.049 226.897 C 314.197 227.186 314.402 227.44 314.654 227.644 C 314.327 227.232 314.15 226.722 314.152 226.195 Z" fill="white"/>
    <path d="M 310.435 225.841 C 311.707 225.841 312.737 224.805 312.737 223.527 C 312.737 222.249 311.707 221.213 310.435 221.213 C 309.164 221.213 308.134 222.249 308.134 223.527 C 308.134 224.805 309.164 225.841 310.435 225.841 Z" fill="#795548"/>
    <path opacity="0.05" d="M 308.488 223.884 C 308.489 223.448 308.611 223.022 308.842 222.653 C 309.072 222.285 309.402 221.989 309.792 221.801 C 310.182 221.612 310.617 221.538 311.047 221.587 C 311.478 221.637 311.885 221.807 312.224 222.079 C 312.021 221.826 311.768 221.619 311.481 221.471 C 311.193 221.323 310.878 221.238 310.556 221.22 C 310.234 221.203 309.912 221.254 309.61 221.37 C 309.309 221.486 309.035 221.665 308.807 221.894 C 308.579 222.124 308.401 222.399 308.286 222.702 C 308.17 223.005 308.12 223.329 308.137 223.653 C 308.154 223.977 308.239 224.294 308.386 224.583 C 308.533 224.871 308.739 225.126 308.99 225.329 C 308.664 224.919 308.487 224.409 308.488 223.884 Z" fill="white"/>
    <path d="M 304.595 226.376 C 305.866 226.376 306.896 225.34 306.896 224.062 C 306.896 222.784 305.866 221.748 304.595 221.748 C 303.323 221.748 302.293 222.784 302.293 224.062 C 302.293 225.34 303.323 226.376 304.595 226.376 Z" fill="#795548"/>
    <path opacity="0.05" d="M 302.648 224.416 C 302.649 223.982 302.773 223.556 303.004 223.189 C 303.234 222.821 303.564 222.526 303.953 222.338 C 304.343 222.15 304.778 222.076 305.208 222.125 C 305.637 222.174 306.045 222.343 306.383 222.614 C 306.18 222.361 305.927 222.154 305.64 222.006 C 305.353 221.858 305.038 221.773 304.715 221.756 C 304.393 221.738 304.071 221.789 303.77 221.905 C 303.468 222.021 303.195 222.2 302.966 222.429 C 302.738 222.659 302.561 222.934 302.445 223.237 C 302.33 223.54 302.279 223.864 302.296 224.188 C 302.313 224.512 302.398 224.829 302.545 225.118 C 302.692 225.407 302.898 225.661 303.15 225.865 C 302.823 225.454 302.645 224.943 302.648 224.416 Z" fill="white"/>
    <path d="M 304.595 230.113 C 305.866 230.113 306.896 229.077 306.896 227.799 C 306.896 226.521 305.866 225.484 304.595 225.484 C 303.323 225.484 302.293 226.521 302.293 227.799 C 302.293 229.077 303.323 230.113 304.595 230.113 Z" fill="#795548"/>
    <path opacity="0.05" d="M 302.648 228.153 C 302.649 227.718 302.773 227.293 303.004 226.925 C 303.234 226.558 303.564 226.263 303.953 226.075 C 304.343 225.887 304.778 225.813 305.208 225.861 C 305.637 225.91 306.045 226.08 306.383 226.35 C 306.18 226.098 305.927 225.891 305.64 225.743 C 305.353 225.595 305.038 225.51 304.715 225.492 C 304.393 225.475 304.071 225.526 303.77 225.642 C 303.468 225.758 303.195 225.937 302.966 226.166 C 302.738 226.395 302.561 226.671 302.445 226.974 C 302.33 227.277 302.279 227.601 302.296 227.925 C 302.313 228.249 302.398 228.565 302.545 228.854 C 302.692 229.143 302.898 229.398 303.15 229.601 C 302.823 229.19 302.645 228.679 302.648 228.153 Z" fill="white"/>
    <path d="M 314.152 235.983 C 315.423 235.983 316.454 234.947 316.454 233.669 C 316.454 232.391 315.423 231.355 314.152 231.355 C 312.881 231.355 311.85 232.391 311.85 233.669 C 311.85 234.947 312.881 235.983 314.152 235.983 Z" fill="#795548"/>
    <path opacity="0.05" d="M 312.205 234.026 C 312.205 233.59 312.327 233.163 312.557 232.795 C 312.788 232.426 313.117 232.13 313.508 231.942 C 313.898 231.754 314.334 231.68 314.764 231.73 C 315.195 231.779 315.602 231.95 315.94 232.223 C 315.739 231.967 315.486 231.757 315.198 231.606 C 314.91 231.455 314.594 231.368 314.269 231.349 C 313.945 231.33 313.621 231.38 313.318 231.496 C 313.014 231.612 312.739 231.792 312.51 232.023 C 312.28 232.253 312.102 232.531 311.987 232.836 C 311.871 233.141 311.822 233.467 311.841 233.793 C 311.86 234.118 311.947 234.436 312.097 234.726 C 312.247 235.015 312.457 235.269 312.711 235.472 C 312.384 235.062 312.205 234.552 312.205 234.026 Z" fill="white"/>
    <path d="M 316.806 234.739 C 318.077 234.739 319.108 233.703 319.108 232.425 C 319.108 231.147 318.077 230.111 316.806 230.111 C 315.535 230.111 314.504 231.147 314.504 232.425 C 314.504 233.703 315.535 234.739 316.806 234.739 Z" fill="#795548"/>
    <path opacity="0.05" d="M 314.859 232.779 C 314.86 232.344 314.982 231.918 315.213 231.55 C 315.444 231.182 315.773 230.887 316.163 230.698 C 316.554 230.51 316.989 230.436 317.419 230.486 C 317.849 230.535 318.256 230.705 318.594 230.977 C 318.392 230.723 318.139 230.515 317.851 230.366 C 317.564 230.217 317.248 230.131 316.925 230.113 C 316.603 230.096 316.28 230.146 315.978 230.263 C 315.676 230.379 315.401 230.558 315.173 230.788 C 314.944 231.018 314.766 231.294 314.651 231.597 C 314.536 231.901 314.486 232.226 314.503 232.55 C 314.521 232.875 314.607 233.192 314.755 233.481 C 314.904 233.77 315.111 234.025 315.363 234.228 C 315.035 233.817 314.857 233.306 314.859 232.779 Z" fill="white"/>
    <path d="M 301.763 242.745 C 303.034 242.745 304.065 241.709 304.065 240.431 C 304.065 239.153 303.034 238.117 301.763 238.117 C 300.492 238.117 299.461 239.153 299.461 240.431 C 299.461 241.709 300.492 242.745 301.763 242.745 Z" fill="#795548"/>
    <path opacity="0.1" d="M 301.763 242.745 C 303.034 242.745 304.065 241.709 304.065 240.431 C 304.065 239.153 303.034 238.117 301.763 238.117 C 300.492 238.117 299.461 239.153 299.461 240.431 C 299.461 241.709 300.492 242.745 301.763 242.745 Z" fill="white"/>
    <path opacity="0.05" d="M 299.818 240.786 C 299.819 240.35 299.942 239.924 300.173 239.556 C 300.403 239.188 300.733 238.893 301.123 238.705 C 301.513 238.516 301.948 238.443 302.378 238.492 C 302.808 238.541 303.215 238.711 303.553 238.983 C 303.351 238.73 303.098 238.523 302.811 238.375 C 302.523 238.228 302.208 238.142 301.886 238.125 C 301.564 238.107 301.242 238.158 300.94 238.274 C 300.639 238.391 300.365 238.569 300.137 238.799 C 299.909 239.028 299.731 239.303 299.616 239.606 C 299.5 239.909 299.449 240.233 299.467 240.557 C 299.484 240.881 299.569 241.198 299.716 241.487 C 299.863 241.776 300.069 242.03 300.32 242.234 C 299.993 241.823 299.816 241.312 299.818 240.786 Z" fill="white"/>
    <path d="M 309.021 241.499 C 310.292 241.499 311.322 240.463 311.322 239.185 C 311.322 237.907 310.292 236.87 309.021 236.87 C 307.75 236.87 306.719 237.907 306.719 239.185 C 306.719 240.463 307.75 241.499 309.021 241.499 Z" fill="#795548"/>
    <path opacity="0.1" d="M 309.021 241.499 C 310.292 241.499 311.322 240.463 311.322 239.185 C 311.322 237.907 310.292 236.87 309.021 236.87 C 307.75 236.87 306.719 237.907 306.719 239.185 C 306.719 240.463 307.75 241.499 309.021 241.499 Z" fill="white"/>
    <path opacity="0.05" d="M 307.074 239.541 C 307.074 239.106 307.196 238.679 307.426 238.31 C 307.657 237.942 307.986 237.646 308.377 237.458 C 308.767 237.269 309.203 237.196 309.633 237.245 C 310.064 237.295 310.471 237.466 310.809 237.739 C 310.607 237.485 310.354 237.277 310.067 237.128 C 309.779 236.979 309.464 236.892 309.141 236.874 C 308.818 236.856 308.495 236.907 308.193 237.023 C 307.891 237.139 307.616 237.317 307.388 237.547 C 307.159 237.777 306.981 238.053 306.865 238.356 C 306.75 238.66 306.699 238.985 306.717 239.31 C 306.735 239.634 306.82 239.951 306.968 240.24 C 307.116 240.53 307.323 240.784 307.576 240.987 C 307.249 240.577 307.072 240.067 307.074 239.541 Z" fill="white"/>
    <path d="M 306.364 243.635 C 307.635 243.635 308.666 242.599 308.666 241.321 C 308.666 240.042 307.635 239.006 306.364 239.006 C 305.093 239.006 304.062 240.042 304.062 241.321 C 304.062 242.599 305.093 243.635 306.364 243.635 Z" fill="#795548"/>
    <path opacity="0.1" d="M 306.364 243.635 C 307.635 243.635 308.666 242.599 308.666 241.321 C 308.666 240.042 307.635 239.006 306.364 239.006 C 305.093 239.006 304.062 240.042 304.062 241.321 C 304.062 242.599 305.093 243.635 306.364 243.635 Z" fill="white"/>
    <path opacity="0.05" d="M 304.42 241.675 C 304.42 241.24 304.543 240.814 304.774 240.446 C 305.004 240.077 305.334 239.782 305.724 239.594 C 306.114 239.406 306.549 239.332 306.979 239.381 C 307.409 239.43 307.817 239.601 308.155 239.872 C 307.952 239.62 307.699 239.413 307.412 239.265 C 307.125 239.117 306.81 239.032 306.487 239.014 C 306.165 238.997 305.843 239.048 305.541 239.164 C 305.24 239.28 304.966 239.459 304.738 239.688 C 304.51 239.917 304.332 240.193 304.217 240.496 C 304.101 240.799 304.051 241.123 304.068 241.447 C 304.085 241.771 304.17 242.087 304.317 242.376 C 304.464 242.665 304.67 242.92 304.921 243.123 C 304.594 242.712 304.417 242.201 304.42 241.675 Z" fill="white"/>
    <path d="M 297.694 245.414 C 298.965 245.414 299.996 244.378 299.996 243.1 C 299.996 241.822 298.965 240.786 297.694 240.786 C 296.423 240.786 295.392 241.822 295.392 243.1 C 295.392 244.378 296.423 245.414 297.694 245.414 Z" fill="#795548"/>
    <path opacity="0.1" d="M 297.694 245.414 C 298.965 245.414 299.996 244.378 299.996 243.1 C 299.996 241.822 298.965 240.786 297.694 240.786 C 296.423 240.786 295.392 241.822 295.392 243.1 C 295.392 244.378 296.423 245.414 297.694 245.414 Z" fill="white"/>
    <path opacity="0.05" d="M 295.747 243.457 C 295.747 243.021 295.87 242.595 296.1 242.226 C 296.331 241.858 296.66 241.562 297.051 241.374 C 297.441 241.185 297.876 241.111 298.306 241.16 C 298.736 241.21 299.144 241.38 299.482 241.652 C 299.281 241.397 299.027 241.188 298.74 241.038 C 298.452 240.888 298.136 240.802 297.812 240.783 C 297.489 240.765 297.165 240.816 296.863 240.932 C 296.56 241.048 296.285 241.227 296.056 241.458 C 295.827 241.688 295.649 241.965 295.534 242.269 C 295.419 242.574 295.369 242.899 295.388 243.225 C 295.406 243.55 295.493 243.867 295.642 244.157 C 295.792 244.446 296 244.7 296.254 244.902 C 295.926 244.492 295.747 243.982 295.747 243.457 Z" fill="white"/>
    <path d="M 299.994 243.635 C 301.265 243.635 302.295 242.599 302.295 241.321 C 302.295 240.042 301.265 239.006 299.994 239.006 C 298.722 239.006 297.692 240.042 297.692 241.321 C 297.692 242.599 298.722 243.635 299.994 243.635 Z" fill="#795548"/>
    <path opacity="0.1" d="M 299.994 243.635 C 301.265 243.635 302.295 242.599 302.295 241.321 C 302.295 240.042 301.265 239.006 299.994 239.006 C 298.722 239.006 297.692 240.042 297.692 241.321 C 297.692 242.599 298.722 243.635 299.994 243.635 Z" fill="white"/>
    <path opacity="0.05" d="M 298.047 241.675 C 298.047 241.24 298.17 240.814 298.401 240.446 C 298.631 240.078 298.961 239.782 299.351 239.594 C 299.741 239.406 300.176 239.332 300.606 239.381 C 301.036 239.431 301.444 239.601 301.782 239.873 C 301.58 239.619 301.326 239.411 301.039 239.262 C 300.751 239.113 300.436 239.027 300.113 239.009 C 299.79 238.991 299.467 239.042 299.165 239.158 C 298.863 239.275 298.589 239.453 298.36 239.683 C 298.132 239.913 297.954 240.189 297.839 240.493 C 297.723 240.797 297.673 241.122 297.691 241.446 C 297.709 241.771 297.795 242.088 297.943 242.377 C 298.091 242.666 298.298 242.92 298.551 243.123 C 298.223 242.713 298.045 242.202 298.047 241.675 Z" fill="white"/>
    <path d="M 299.994 239.72 C 301.265 239.72 302.295 238.684 302.295 237.405 C 302.295 236.127 301.265 235.091 299.994 235.091 C 298.722 235.091 297.692 236.127 297.692 237.405 C 297.692 238.684 298.722 239.72 299.994 239.72 Z" fill="#795548"/>
    <path opacity="0.1" d="M 299.994 239.72 C 301.265 239.72 302.295 238.684 302.295 237.405 C 302.295 236.127 301.265 235.091 299.994 235.091 C 298.722 235.091 297.692 236.127 297.692 237.405 C 297.692 238.684 298.722 239.72 299.994 239.72 Z" fill="white"/>
    <path opacity="0.05" d="M 298.047 237.762 C 298.046 237.327 298.169 236.9 298.399 236.531 C 298.63 236.163 298.959 235.867 299.35 235.679 C 299.74 235.49 300.176 235.417 300.606 235.466 C 301.036 235.516 301.444 235.687 301.782 235.96 C 301.58 235.705 301.327 235.496 301.039 235.346 C 300.752 235.196 300.436 235.109 300.112 235.09 C 299.789 235.072 299.465 235.122 299.163 235.238 C 298.86 235.354 298.585 235.533 298.356 235.764 C 298.127 235.994 297.949 236.27 297.833 236.575 C 297.718 236.879 297.668 237.205 297.686 237.53 C 297.704 237.855 297.791 238.173 297.94 238.462 C 298.089 238.751 298.297 239.006 298.551 239.208 C 298.223 238.798 298.045 238.288 298.047 237.762 Z" fill="white"/>
    <path d="M 304.42 236.162 C 305.691 236.162 306.721 235.126 306.721 233.847 C 306.721 232.569 305.691 231.533 304.42 231.533 C 303.148 231.533 302.118 232.569 302.118 233.847 C 302.118 235.126 303.148 236.162 304.42 236.162 Z" fill="#795548"/>
    <path opacity="0.1" d="M 304.42 236.162 C 305.691 236.162 306.721 235.126 306.721 233.847 C 306.721 232.569 305.691 231.533 304.42 231.533 C 303.148 231.533 302.118 232.569 302.118 233.847 C 302.118 235.126 303.148 236.162 304.42 236.162 Z" fill="white"/>
    <path opacity="0.05" d="M 302.473 234.204 C 302.473 233.769 302.595 233.342 302.826 232.974 C 303.056 232.605 303.386 232.31 303.776 232.121 C 304.166 231.933 304.601 231.859 305.032 231.908 C 305.462 231.957 305.87 232.127 306.208 232.399 C 306.005 232.147 305.752 231.94 305.465 231.792 C 305.178 231.644 304.863 231.558 304.54 231.541 C 304.218 231.524 303.896 231.575 303.594 231.691 C 303.293 231.807 303.019 231.985 302.791 232.215 C 302.563 232.444 302.385 232.719 302.27 233.022 C 302.154 233.325 302.104 233.65 302.121 233.974 C 302.138 234.298 302.223 234.614 302.37 234.903 C 302.517 235.192 302.723 235.446 302.975 235.65 C 302.648 235.24 302.471 234.73 302.473 234.204 Z" fill="white"/>
    <path d="M 312.205 244.881 C 313.476 244.881 314.507 243.845 314.507 242.567 C 314.507 241.289 313.476 240.253 312.205 240.253 C 310.934 240.253 309.903 241.289 309.903 242.567 C 309.903 243.845 310.934 244.881 312.205 244.881 Z" fill="#795548"/>
    <path opacity="0.1" d="M 312.205 244.881 C 313.476 244.881 314.507 243.845 314.507 242.567 C 314.507 241.289 313.476 240.253 312.205 240.253 C 310.934 240.253 309.903 241.289 309.903 242.567 C 309.903 243.845 310.934 244.881 312.205 244.881 Z" fill="white"/>
    <path opacity="0.05" d="M 310.258 242.921 C 310.259 242.486 310.381 242.06 310.612 241.692 C 310.843 241.324 311.172 241.029 311.562 240.841 C 311.952 240.652 312.388 240.578 312.818 240.628 C 313.248 240.677 313.655 240.847 313.993 241.119 C 313.791 240.865 313.538 240.657 313.25 240.508 C 312.963 240.359 312.647 240.273 312.324 240.256 C 312.002 240.238 311.679 240.289 311.377 240.405 C 311.075 240.521 310.8 240.7 310.572 240.93 C 310.343 241.16 310.165 241.436 310.05 241.739 C 309.935 242.043 309.884 242.368 309.902 242.693 C 309.92 243.017 310.006 243.334 310.154 243.623 C 310.303 243.912 310.51 244.167 310.762 244.37 C 310.434 243.959 310.256 243.448 310.258 242.921 Z" fill="white"/>
    <path d="M 318.575 237.762 C 319.847 237.762 320.877 236.726 320.877 235.448 C 320.877 234.17 319.847 233.134 318.575 233.134 C 317.304 233.134 316.274 234.17 316.274 235.448 C 316.274 236.726 317.304 237.762 318.575 237.762 Z" fill="#795548"/>
    <path opacity="0.1" d="M 318.575 237.762 C 319.847 237.762 320.877 236.726 320.877 235.448 C 320.877 234.17 319.847 233.134 318.575 233.134 C 317.304 233.134 316.274 234.17 316.274 235.448 C 316.274 236.726 317.304 237.762 318.575 237.762 Z" fill="white"/>
    <path opacity="0.05" d="M 316.629 235.805 C 316.628 235.369 316.75 234.943 316.981 234.574 C 317.212 234.205 317.541 233.91 317.932 233.721 C 318.322 233.533 318.758 233.459 319.188 233.509 C 319.618 233.559 320.026 233.73 320.364 234.002 C 320.164 233.741 319.911 233.527 319.622 233.372 C 319.333 233.217 319.014 233.126 318.688 233.106 C 318.361 233.085 318.034 233.134 317.727 233.251 C 317.421 233.367 317.143 233.548 316.912 233.782 C 316.681 234.015 316.503 234.295 316.388 234.603 C 316.273 234.912 316.226 235.241 316.248 235.57 C 316.27 235.898 316.362 236.218 316.517 236.508 C 316.672 236.798 316.887 237.051 317.147 237.251 C 316.814 236.843 316.631 236.332 316.629 235.805 Z" fill="white"/>
    <path d="M 318.575 227.087 C 319.847 227.087 320.877 226.051 320.877 224.773 C 320.877 223.495 319.847 222.459 318.575 222.459 C 317.304 222.459 316.274 223.495 316.274 224.773 C 316.274 226.051 317.304 227.087 318.575 227.087 Z" fill="#795548"/>
    <path opacity="0.1" d="M 318.575 227.087 C 319.847 227.087 320.877 226.051 320.877 224.773 C 320.877 223.495 319.847 222.459 318.575 222.459 C 317.304 222.459 316.274 223.495 316.274 224.773 C 316.274 226.051 317.304 227.087 318.575 227.087 Z" fill="white"/>
    <path opacity="0.05" d="M 316.629 225.128 C 316.629 224.692 316.752 224.266 316.983 223.898 C 317.213 223.53 317.543 223.235 317.933 223.047 C 318.323 222.858 318.758 222.785 319.188 222.834 C 319.618 222.883 320.026 223.053 320.364 223.325 C 320.163 223.065 319.91 222.851 319.621 222.698 C 319.333 222.544 319.014 222.454 318.688 222.434 C 318.362 222.413 318.035 222.463 317.73 222.58 C 317.424 222.697 317.147 222.878 316.916 223.111 C 316.686 223.344 316.507 223.623 316.393 223.931 C 316.278 224.239 316.23 224.568 316.252 224.896 C 316.274 225.224 316.365 225.543 316.519 225.833 C 316.674 226.122 316.887 226.376 317.147 226.576 C 316.814 226.167 316.631 225.656 316.629 225.128 Z" fill="white"/>
    <path d="M 320.877 231.535 C 322.148 231.535 323.179 230.499 323.179 229.221 C 323.179 227.943 322.148 226.907 320.877 226.907 C 319.606 226.907 318.575 227.943 318.575 229.221 C 318.575 230.499 319.606 231.535 320.877 231.535 Z" fill="#795548"/>
    <path opacity="0.1" d="M 320.877 231.535 C 322.148 231.535 323.179 230.499 323.179 229.221 C 323.179 227.943 322.148 226.907 320.877 226.907 C 319.606 226.907 318.575 227.943 318.575 229.221 C 318.575 230.499 319.606 231.535 320.877 231.535 Z" fill="white"/>
    <path opacity="0.05" d="M 318.93 229.578 C 318.93 229.142 319.053 228.716 319.283 228.347 C 319.514 227.979 319.843 227.683 320.234 227.495 C 320.624 227.306 321.059 227.232 321.489 227.282 C 321.92 227.331 322.327 227.501 322.665 227.773 C 322.463 227.52 322.21 227.313 321.923 227.165 C 321.635 227.017 321.32 226.932 320.998 226.915 C 320.676 226.897 320.353 226.948 320.052 227.064 C 319.751 227.18 319.477 227.359 319.249 227.588 C 319.021 227.818 318.843 228.093 318.728 228.396 C 318.612 228.699 318.561 229.023 318.579 229.347 C 318.596 229.671 318.681 229.988 318.828 230.277 C 318.975 230.565 319.181 230.82 319.432 231.024 C 319.105 230.613 318.928 230.103 318.93 229.578 Z" fill="white"/>
    <path d="M 323.177 234.915 C 324.448 234.915 325.478 233.879 325.478 232.601 C 325.478 231.323 324.448 230.287 323.177 230.287 C 321.905 230.287 320.875 231.323 320.875 232.601 C 320.875 233.879 321.905 234.915 323.177 234.915 Z" fill="#795548"/>
    <path opacity="0.1" d="M 323.177 234.915 C 324.448 234.915 325.478 233.879 325.478 232.601 C 325.478 231.323 324.448 230.287 323.177 230.287 C 321.905 230.287 320.875 231.323 320.875 232.601 C 320.875 233.879 321.905 234.915 323.177 234.915 Z" fill="white"/>
    <path opacity="0.05" d="M 321.23 232.955 C 321.229 232.52 321.352 232.093 321.582 231.724 C 321.813 231.356 322.142 231.06 322.533 230.872 C 322.923 230.683 323.359 230.609 323.789 230.659 C 324.219 230.709 324.627 230.88 324.965 231.153 C 324.763 230.898 324.51 230.688 324.223 230.539 C 323.935 230.389 323.619 230.302 323.296 230.283 C 322.972 230.265 322.648 230.315 322.346 230.431 C 322.043 230.547 321.768 230.726 321.539 230.957 C 321.31 231.187 321.132 231.463 321.016 231.768 C 320.901 232.072 320.851 232.398 320.869 232.723 C 320.888 233.048 320.974 233.366 321.123 233.655 C 321.272 233.944 321.48 234.198 321.734 234.401 C 321.406 233.992 321.228 233.481 321.23 232.955 Z" fill="white"/>
    <path d="M 312.205 231.002 C 313.476 231.002 314.507 229.966 314.507 228.688 C 314.507 227.41 313.476 226.374 312.205 226.374 C 310.934 226.374 309.903 227.41 309.903 228.688 C 309.903 229.966 310.934 231.002 312.205 231.002 Z" fill="#795548"/>
    <path opacity="0.1" d="M 312.205 231.002 C 313.476 231.002 314.507 229.966 314.507 228.688 C 314.507 227.41 313.476 226.374 312.205 226.374 C 310.934 226.374 309.903 227.41 309.903 228.688 C 309.903 229.966 310.934 231.002 312.205 231.002 Z" fill="white"/>
    <path opacity="0.05" d="M 310.258 229.043 C 310.259 228.607 310.381 228.181 310.612 227.813 C 310.843 227.445 311.172 227.15 311.562 226.962 C 311.952 226.773 312.388 226.7 312.818 226.749 C 313.248 226.798 313.655 226.968 313.993 227.24 C 313.791 226.986 313.538 226.778 313.25 226.629 C 312.963 226.481 312.647 226.394 312.324 226.377 C 312.002 226.359 311.679 226.41 311.377 226.526 C 311.075 226.642 310.8 226.821 310.572 227.051 C 310.343 227.281 310.165 227.557 310.05 227.86 C 309.935 228.164 309.884 228.489 309.902 228.814 C 309.92 229.138 310.006 229.455 310.154 229.744 C 310.303 230.033 310.51 230.288 310.762 230.491 C 310.434 230.08 310.256 229.569 310.258 229.043 Z" fill="white"/>
    <path d="M 305.304 232.782 C 306.576 232.782 307.606 231.746 307.606 230.467 C 307.606 229.189 306.576 228.153 305.304 228.153 C 304.033 228.153 303.003 229.189 303.003 230.467 C 303.003 231.746 304.033 232.782 305.304 232.782 Z" fill="#795548"/>
    <path opacity="0.1" d="M 305.304 232.782 C 306.576 232.782 307.606 231.746 307.606 230.467 C 307.606 229.189 306.576 228.153 305.304 228.153 C 304.033 228.153 303.003 229.189 303.003 230.467 C 303.003 231.746 304.033 232.782 305.304 232.782 Z" fill="white"/>
    <path opacity="0.05" d="M 303.357 230.822 C 303.358 230.387 303.481 229.96 303.712 229.592 C 303.942 229.224 304.272 228.929 304.662 228.741 C 305.052 228.552 305.487 228.479 305.917 228.528 C 306.347 228.577 306.754 228.747 307.092 229.019 C 306.89 228.766 306.637 228.559 306.35 228.412 C 306.062 228.264 305.747 228.178 305.425 228.161 C 305.103 228.144 304.781 228.195 304.479 228.311 C 304.178 228.427 303.904 228.605 303.676 228.835 C 303.448 229.064 303.27 229.339 303.155 229.642 C 303.039 229.945 302.989 230.269 303.006 230.593 C 303.023 230.917 303.108 231.234 303.255 231.523 C 303.402 231.812 303.608 232.066 303.859 232.27 C 303.532 231.859 303.355 231.348 303.357 230.822 Z" fill="white"/>
    <path d="M 309.728 230.113 C 310.999 230.113 312.03 229.077 312.03 227.799 C 312.03 226.521 310.999 225.484 309.728 225.484 C 308.457 225.484 307.426 226.521 307.426 227.799 C 307.426 229.077 308.457 230.113 309.728 230.113 Z" fill="#795548"/>
    <path opacity="0.1" d="M 309.728 230.113 C 310.999 230.113 312.03 229.077 312.03 227.799 C 312.03 226.521 310.999 225.484 309.728 225.484 C 308.457 225.484 307.426 226.521 307.426 227.799 C 307.426 229.077 308.457 230.113 309.728 230.113 Z" fill="white"/>
    <path opacity="0.05" d="M 307.781 228.153 C 307.782 227.718 307.904 227.292 308.135 226.924 C 308.366 226.556 308.695 226.26 309.085 226.072 C 309.476 225.884 309.911 225.81 310.341 225.859 C 310.771 225.908 311.178 226.079 311.516 226.35 C 311.314 226.098 311.061 225.891 310.773 225.743 C 310.486 225.595 310.171 225.51 309.849 225.492 C 309.527 225.475 309.204 225.526 308.903 225.642 C 308.602 225.758 308.328 225.937 308.1 226.166 C 307.871 226.395 307.694 226.671 307.578 226.974 C 307.463 227.277 307.412 227.601 307.43 227.925 C 307.447 228.249 307.532 228.565 307.679 228.854 C 307.826 229.143 308.032 229.398 308.283 229.601 C 307.956 229.19 307.779 228.679 307.781 228.153 Z" fill="white"/>
    <path d="M 313.797 228.156 C 315.068 228.156 316.099 227.119 316.099 225.841 C 316.099 224.563 315.068 223.527 313.797 223.527 C 312.526 223.527 311.495 224.563 311.495 225.841 C 311.495 227.119 312.526 228.156 313.797 228.156 Z" fill="#795548"/>
    <path opacity="0.1" d="M 313.797 228.156 C 315.068 228.156 316.099 227.119 316.099 225.841 C 316.099 224.563 315.068 223.527 313.797 223.527 C 312.526 223.527 311.495 224.563 311.495 225.841 C 311.495 227.119 312.526 228.156 313.797 228.156 Z" fill="white"/>
    <path opacity="0.05" d="M 311.85 226.195 C 311.852 225.761 311.975 225.335 312.206 224.968 C 312.437 224.6 312.766 224.305 313.156 224.117 C 313.546 223.929 313.98 223.855 314.41 223.904 C 314.839 223.953 315.247 224.122 315.585 224.393 C 315.383 224.14 315.13 223.933 314.842 223.785 C 314.555 223.637 314.24 223.552 313.918 223.535 C 313.595 223.517 313.273 223.568 312.972 223.684 C 312.67 223.8 312.397 223.979 312.169 224.209 C 311.94 224.438 311.763 224.713 311.647 225.016 C 311.532 225.319 311.481 225.643 311.498 225.967 C 311.516 226.291 311.601 226.608 311.748 226.897 C 311.895 227.186 312.101 227.44 312.352 227.644 C 312.025 227.233 311.848 226.722 311.85 226.195 Z" fill="white"/>
    <path d="M 302.295 230.113 C 303.566 230.113 304.597 229.077 304.597 227.799 C 304.597 226.521 303.566 225.484 302.295 225.484 C 301.024 225.484 299.994 226.521 299.994 227.799 C 299.994 229.077 301.024 230.113 302.295 230.113 Z" fill="#795548"/>
    <path opacity="0.1" d="M 302.295 230.113 C 303.566 230.113 304.597 229.077 304.597 227.799 C 304.597 226.521 303.566 225.484 302.295 225.484 C 301.024 225.484 299.994 226.521 299.994 227.799 C 299.994 229.077 301.024 230.113 302.295 230.113 Z" fill="white"/>
    <path opacity="0.05" d="M 300.339 228.153 C 300.34 227.718 300.462 227.292 300.693 226.924 C 300.924 226.556 301.253 226.26 301.643 226.072 C 302.034 225.884 302.469 225.81 302.899 225.859 C 303.329 225.908 303.736 226.079 304.074 226.35 C 303.872 226.098 303.618 225.891 303.331 225.743 C 303.044 225.595 302.729 225.51 302.407 225.492 C 302.084 225.475 301.762 225.526 301.461 225.642 C 301.159 225.758 300.886 225.937 300.658 226.166 C 300.429 226.395 300.252 226.671 300.136 226.974 C 300.021 227.277 299.97 227.601 299.987 227.925 C 300.005 228.249 300.09 228.565 300.237 228.854 C 300.384 229.143 300.59 229.398 300.841 229.601 C 300.515 229.19 300.338 228.679 300.339 228.153 Z" fill="white"/>
    <path d="M 310.435 237.584 C 311.707 237.584 312.737 236.548 312.737 235.27 C 312.737 233.992 311.707 232.955 310.435 232.955 C 309.164 232.955 308.134 233.992 308.134 235.27 C 308.134 236.548 309.164 237.584 310.435 237.584 Z" fill="#795548"/>
    <path opacity="0.1" d="M 310.435 237.584 C 311.707 237.584 312.737 236.548 312.737 235.27 C 312.737 233.992 311.707 232.955 310.435 232.955 C 309.164 232.955 308.134 233.992 308.134 235.27 C 308.134 236.548 309.164 237.584 310.435 237.584 Z" fill="white"/>
    <path opacity="0.05" d="M 308.488 235.626 C 308.488 235.191 308.61 234.764 308.841 234.395 C 309.071 234.027 309.401 233.731 309.792 233.543 C 310.182 233.354 310.618 233.281 311.048 233.33 C 311.478 233.38 311.886 233.551 312.224 233.824 C 312.021 233.571 311.768 233.364 311.481 233.216 C 311.193 233.068 310.878 232.983 310.556 232.966 C 310.234 232.948 309.912 232.999 309.61 233.115 C 309.309 233.231 309.035 233.41 308.807 233.639 C 308.579 233.869 308.401 234.144 308.286 234.447 C 308.17 234.75 308.12 235.074 308.137 235.398 C 308.154 235.722 308.239 236.039 308.386 236.328 C 308.533 236.617 308.739 236.871 308.99 237.075 C 308.664 236.663 308.487 236.152 308.488 235.626 Z" fill="white"/>
    <path d="M 300.703 237.408 C 301.974 237.408 303.005 236.372 303.005 235.094 C 303.005 233.816 301.974 232.779 300.703 232.779 C 299.432 232.779 298.401 233.816 298.401 235.094 C 298.401 236.372 299.432 237.408 300.703 237.408 Z" fill="#795548"/>
    <path opacity="0.1" d="M 300.703 237.408 C 301.974 237.408 303.005 236.372 303.005 235.094 C 303.005 233.816 301.974 232.779 300.703 232.779 C 299.432 232.779 298.401 233.816 298.401 235.094 C 298.401 236.372 299.432 237.408 300.703 237.408 Z" fill="white"/>
    <path opacity="0.05" d="M 298.756 235.448 C 298.757 235.013 298.88 234.587 299.11 234.219 C 299.341 233.851 299.671 233.555 300.061 233.367 C 300.451 233.179 300.886 233.105 301.316 233.154 C 301.746 233.204 302.153 233.374 302.491 233.646 C 302.289 233.393 302.036 233.186 301.749 233.038 C 301.461 232.89 301.146 232.805 300.824 232.787 C 300.502 232.77 300.179 232.821 299.878 232.937 C 299.577 233.053 299.303 233.232 299.075 233.461 C 298.847 233.691 298.669 233.966 298.554 234.269 C 298.438 234.572 298.387 234.896 298.405 235.22 C 298.422 235.544 298.507 235.861 298.654 236.149 C 298.801 236.438 299.007 236.693 299.258 236.896 C 298.931 236.486 298.754 235.974 298.756 235.448 Z" fill="white"/>
    <path d="M 315.566 240.788 C 316.838 240.788 317.868 239.752 317.868 238.474 C 317.868 237.195 316.838 236.159 315.566 236.159 C 314.295 236.159 313.265 237.195 313.265 238.474 C 313.265 239.752 314.295 240.788 315.566 240.788 Z" fill="#795548"/>
    <path opacity="0.1" d="M 315.566 240.788 C 316.838 240.788 317.868 239.752 317.868 238.474 C 317.868 237.195 316.838 236.159 315.566 236.159 C 314.295 236.159 313.265 237.195 313.265 238.474 C 313.265 239.752 314.295 240.788 315.566 240.788 Z" fill="white"/>
    <path opacity="0.05" d="M 313.622 238.823 C 313.622 238.388 313.744 237.962 313.975 237.593 C 314.206 237.225 314.535 236.929 314.925 236.741 C 315.315 236.552 315.751 236.478 316.181 236.527 C 316.611 236.576 317.019 236.747 317.357 237.018 C 317.154 236.766 316.901 236.559 316.614 236.411 C 316.327 236.263 316.012 236.178 315.69 236.16 C 315.367 236.143 315.045 236.194 314.744 236.31 C 314.442 236.426 314.169 236.605 313.94 236.834 C 313.712 237.063 313.535 237.339 313.419 237.642 C 313.304 237.945 313.253 238.269 313.27 238.593 C 313.288 238.917 313.372 239.233 313.52 239.522 C 313.667 239.811 313.872 240.066 314.124 240.269 C 313.797 239.859 313.62 239.349 313.622 238.823 Z" fill="white"/>
    <path d="M 319.108 242.034 C 320.379 242.034 321.409 240.998 321.409 239.72 C 321.409 238.442 320.379 237.406 319.108 237.406 C 317.837 237.406 316.806 238.442 316.806 239.72 C 316.806 240.998 317.837 242.034 319.108 242.034 Z" fill="#795548"/>
    <path opacity="0.1" d="M 319.108 242.034 C 320.379 242.034 321.409 240.998 321.409 239.72 C 321.409 238.442 320.379 237.406 319.108 237.406 C 317.837 237.406 316.806 238.442 316.806 239.72 C 316.806 240.998 317.837 242.034 319.108 242.034 Z" fill="white"/>
    <path opacity="0.05" d="M 317.161 240.074 C 317.161 239.639 317.284 239.213 317.515 238.845 C 317.746 238.477 318.075 238.182 318.465 237.993 C 318.855 237.805 319.29 237.731 319.72 237.781 C 320.15 237.83 320.558 238 320.896 238.272 C 320.693 238.019 320.44 237.812 320.153 237.664 C 319.866 237.516 319.551 237.431 319.229 237.414 C 318.906 237.396 318.584 237.447 318.283 237.563 C 317.981 237.679 317.708 237.858 317.479 238.087 C 317.251 238.317 317.074 238.592 316.958 238.895 C 316.843 239.198 316.792 239.522 316.809 239.846 C 316.826 240.17 316.911 240.487 317.058 240.776 C 317.206 241.065 317.411 241.319 317.663 241.523 C 317.335 241.112 317.158 240.601 317.161 240.074 Z" fill="white"/>
    <path d="M 322.114 244.346 C 323.386 244.346 324.416 243.31 324.416 242.032 C 324.416 240.754 323.386 239.718 322.114 239.718 C 320.843 239.718 319.813 240.754 319.813 242.032 C 319.813 243.31 320.843 244.346 322.114 244.346 Z" fill="#795548"/>
    <path opacity="0.1" d="M 322.114 244.346 C 323.386 244.346 324.416 243.31 324.416 242.032 C 324.416 240.754 323.386 239.718 322.114 239.718 C 320.843 239.718 319.813 240.754 319.813 242.032 C 319.813 243.31 320.843 244.346 322.114 244.346 Z" fill="white"/>
    <path opacity="0.05" d="M 320.168 242.389 C 320.168 241.953 320.291 241.527 320.522 241.159 C 320.752 240.791 321.082 240.496 321.472 240.308 C 321.862 240.119 322.297 240.046 322.727 240.095 C 323.157 240.144 323.565 240.314 323.903 240.586 C 323.701 240.332 323.448 240.124 323.16 239.975 C 322.873 239.826 322.557 239.74 322.235 239.721 C 321.912 239.703 321.589 239.754 321.287 239.87 C 320.985 239.986 320.71 240.165 320.481 240.394 C 320.253 240.624 320.075 240.9 319.959 241.204 C 319.844 241.507 319.793 241.832 319.811 242.157 C 319.829 242.481 319.914 242.799 320.062 243.088 C 320.21 243.377 320.417 243.631 320.669 243.834 C 320.343 243.424 320.166 242.914 320.168 242.389 Z" fill="white"/>
    <path d="M 327.07 241.321 C 328.342 241.321 329.372 240.284 329.372 239.006 C 329.372 237.728 328.342 236.692 327.07 236.692 C 325.799 236.692 324.769 237.728 324.769 239.006 C 324.769 240.284 325.799 241.321 327.07 241.321 Z" fill="#795548"/>
    <path opacity="0.1" d="M 327.07 241.321 C 328.342 241.321 329.372 240.284 329.372 239.006 C 329.372 237.728 328.342 236.692 327.07 236.692 C 325.799 236.692 324.769 237.728 324.769 239.006 C 324.769 240.284 325.799 241.321 327.07 241.321 Z" fill="white"/>
    <path opacity="0.05" d="M 325.124 239.363 C 325.123 238.928 325.245 238.501 325.476 238.132 C 325.707 237.764 326.036 237.468 326.427 237.279 C 326.817 237.091 327.253 237.017 327.683 237.067 C 328.113 237.117 328.521 237.288 328.859 237.561 C 328.656 237.308 328.403 237.101 328.116 236.953 C 327.828 236.805 327.513 236.72 327.191 236.702 C 326.869 236.685 326.547 236.736 326.245 236.852 C 325.944 236.968 325.67 237.147 325.442 237.376 C 325.214 237.606 325.036 237.881 324.921 238.184 C 324.805 238.487 324.755 238.811 324.772 239.135 C 324.789 239.459 324.874 239.776 325.021 240.064 C 325.168 240.353 325.374 240.608 325.625 240.811 C 325.299 240.4 325.122 239.889 325.124 239.363 Z" fill="white"/>
    <path d="M 324.416 238.652 C 325.687 238.652 326.718 237.616 326.718 236.338 C 326.718 235.059 325.687 234.023 324.416 234.023 C 323.145 234.023 322.114 235.059 322.114 236.338 C 322.114 237.616 323.145 238.652 324.416 238.652 Z" fill="#795548"/>
    <path opacity="0.1" d="M 324.416 238.652 C 325.687 238.652 326.718 237.616 326.718 236.338 C 326.718 235.059 325.687 234.023 324.416 234.023 C 323.145 234.023 322.114 235.059 322.114 236.338 C 322.114 237.616 323.145 238.652 324.416 238.652 Z" fill="white"/>
    <path opacity="0.05" d="M 322.469 236.694 C 322.469 236.259 322.591 235.832 322.822 235.463 C 323.052 235.095 323.382 234.799 323.772 234.611 C 324.163 234.422 324.598 234.349 325.029 234.398 C 325.459 234.448 325.867 234.619 326.204 234.892 C 326.004 234.633 325.751 234.42 325.463 234.267 C 325.174 234.113 324.856 234.024 324.531 234.004 C 324.205 233.984 323.879 234.033 323.574 234.15 C 323.268 234.266 322.992 234.447 322.761 234.679 C 322.531 234.911 322.352 235.19 322.237 235.497 C 322.122 235.804 322.074 236.133 322.095 236.46 C 322.116 236.787 322.206 237.107 322.359 237.396 C 322.512 237.686 322.725 237.94 322.983 238.14 C 322.652 237.732 322.471 237.221 322.469 236.694 Z" fill="white"/>
    <path d="M 308.134 224.062 C 309.405 224.062 310.435 223.026 310.435 221.748 C 310.435 220.47 309.405 219.433 308.134 219.433 C 306.862 219.433 305.832 220.47 305.832 221.748 C 305.832 223.026 306.862 224.062 308.134 224.062 Z" fill="#795548"/>
    <path opacity="0.1" d="M 308.134 224.062 C 309.405 224.062 310.435 223.026 310.435 221.748 C 310.435 220.47 309.405 219.433 308.134 219.433 C 306.862 219.433 305.832 220.47 305.832 221.748 C 305.832 223.026 306.862 224.062 308.134 224.062 Z" fill="white"/>
    <path opacity="0.05" d="M 306.189 222.105 C 306.189 221.669 306.312 221.243 306.542 220.874 C 306.773 220.506 307.102 220.21 307.492 220.022 C 307.883 219.833 308.318 219.759 308.748 219.808 C 309.178 219.858 309.586 220.028 309.924 220.3 C 309.722 220.047 309.469 219.84 309.181 219.692 C 308.894 219.544 308.579 219.459 308.257 219.441 C 307.935 219.424 307.612 219.475 307.311 219.591 C 307.01 219.707 306.736 219.886 306.508 220.115 C 306.279 220.345 306.102 220.62 305.986 220.923 C 305.871 221.226 305.82 221.55 305.837 221.874 C 305.855 222.198 305.94 222.515 306.087 222.804 C 306.234 223.092 306.44 223.347 306.691 223.55 C 306.364 223.14 306.187 222.63 306.189 222.105 Z" fill="white"/>
    <path d="M 298.931 234.382 C 300.203 234.382 301.233 233.346 301.233 232.068 C 301.233 230.79 300.203 229.754 298.931 229.754 C 297.66 229.754 296.63 230.79 296.63 232.068 C 296.63 233.346 297.66 234.382 298.931 234.382 Z" fill="#795548"/>
    <path opacity="0.1" d="M 298.931 234.382 C 300.203 234.382 301.233 233.346 301.233 232.068 C 301.233 230.79 300.203 229.754 298.931 229.754 C 297.66 229.754 296.63 230.79 296.63 232.068 C 296.63 233.346 297.66 234.382 298.931 234.382 Z" fill="white"/>
    <path opacity="0.05" d="M 296.987 232.423 C 296.987 231.987 297.11 231.561 297.341 231.193 C 297.572 230.825 297.901 230.53 298.291 230.342 C 298.681 230.153 299.116 230.08 299.546 230.129 C 299.976 230.178 300.384 230.348 300.722 230.62 C 300.519 230.367 300.266 230.16 299.979 230.012 C 299.692 229.865 299.377 229.779 299.054 229.762 C 298.732 229.744 298.41 229.795 298.109 229.911 C 297.807 230.028 297.534 230.206 297.305 230.436 C 297.077 230.665 296.9 230.94 296.784 231.243 C 296.669 231.546 296.618 231.87 296.635 232.194 C 296.652 232.518 296.737 232.835 296.884 233.124 C 297.031 233.413 297.237 233.667 297.489 233.871 C 297.161 233.46 296.984 232.949 296.987 232.423 Z" fill="white"/>
    <path d="M 295.392 240.966 C 296.664 240.966 297.694 239.93 297.694 238.652 C 297.694 237.374 296.664 236.338 295.392 236.338 C 294.121 236.338 293.091 237.374 293.091 238.652 C 293.091 239.93 294.121 240.966 295.392 240.966 Z" fill="#795548"/>
    <path opacity="0.1" d="M 295.392 240.966 C 296.664 240.966 297.694 239.93 297.694 238.652 C 297.694 237.374 296.664 236.338 295.392 236.338 C 294.121 236.338 293.091 237.374 293.091 238.652 C 293.091 239.93 294.121 240.966 295.392 240.966 Z" fill="white"/>
    <path opacity="0.05" d="M 293.445 239.006 C 293.446 238.571 293.569 238.145 293.8 237.777 C 294.03 237.409 294.36 237.114 294.75 236.925 C 295.14 236.737 295.575 236.663 296.005 236.713 C 296.435 236.762 296.842 236.932 297.181 237.204 C 296.976 236.954 296.723 236.75 296.435 236.605 C 296.148 236.461 295.834 236.378 295.513 236.363 C 295.192 236.347 294.871 236.4 294.572 236.517 C 294.272 236.634 294 236.813 293.774 237.042 C 293.547 237.271 293.371 237.545 293.256 237.847 C 293.141 238.149 293.091 238.472 293.108 238.794 C 293.125 239.117 293.209 239.433 293.355 239.721 C 293.501 240.009 293.705 240.263 293.954 240.466 C 293.622 240.053 293.442 239.538 293.445 239.006 Z" fill="white"/>
    <path d="M 306.364 238.652 C 307.635 238.652 308.666 237.616 308.666 236.338 C 308.666 235.059 307.635 234.023 306.364 234.023 C 305.093 234.023 304.062 235.059 304.062 236.338 C 304.062 237.616 305.093 238.652 306.364 238.652 Z" fill="#795548"/>
    <path opacity="0.1" d="M 306.364 238.652 C 307.635 238.652 308.666 237.616 308.666 236.338 C 308.666 235.059 307.635 234.023 306.364 234.023 C 305.093 234.023 304.062 235.059 304.062 236.338 C 304.062 237.616 305.093 238.652 306.364 238.652 Z" fill="white"/>
    <path opacity="0.05" d="M 304.42 236.694 C 304.419 236.259 304.541 235.832 304.772 235.464 C 305.003 235.095 305.332 234.799 305.723 234.611 C 306.113 234.422 306.549 234.349 306.979 234.398 C 307.409 234.448 307.817 234.619 308.155 234.892 C 307.953 234.638 307.7 234.43 307.412 234.281 C 307.125 234.132 306.809 234.045 306.487 234.027 C 306.164 234.009 305.841 234.06 305.539 234.176 C 305.237 234.292 304.962 234.471 304.733 234.7 C 304.505 234.93 304.327 235.206 304.211 235.51 C 304.096 235.813 304.045 236.138 304.063 236.463 C 304.081 236.787 304.166 237.104 304.314 237.394 C 304.462 237.683 304.669 237.937 304.921 238.14 C 304.594 237.731 304.417 237.22 304.42 236.694 Z" fill="white"/>
    <path d="M 306.719 229.223 C 307.99 229.223 309.021 228.187 309.021 226.909 C 309.021 225.631 307.99 224.595 306.719 224.595 C 305.448 224.595 304.417 225.631 304.417 226.909 C 304.417 228.187 305.448 229.223 306.719 229.223 Z" fill="#795548"/>
    <path opacity="0.1" d="M 306.719 229.223 C 307.99 229.223 309.021 228.187 309.021 226.909 C 309.021 225.631 307.99 224.595 306.719 224.595 C 305.448 224.595 304.417 225.631 304.417 226.909 C 304.417 228.187 305.448 229.223 306.719 229.223 Z" fill="white"/>
    <path opacity="0.05" d="M 304.774 227.264 C 304.775 226.828 304.898 226.402 305.129 226.034 C 305.359 225.666 305.689 225.371 306.079 225.183 C 306.469 224.994 306.904 224.921 307.334 224.97 C 307.764 225.019 308.171 225.189 308.509 225.461 C 308.307 225.208 308.054 225.001 307.767 224.853 C 307.479 224.706 307.164 224.62 306.842 224.603 C 306.52 224.585 306.198 224.636 305.896 224.753 C 305.595 224.869 305.321 225.047 305.093 225.277 C 304.865 225.506 304.687 225.781 304.572 226.084 C 304.456 226.387 304.405 226.711 304.423 227.035 C 304.44 227.359 304.525 227.676 304.672 227.965 C 304.819 228.254 305.025 228.508 305.276 228.712 C 304.95 228.301 304.773 227.79 304.774 227.264 Z" fill="white"/>
    <path d="M 307.604 226.731 C 308.875 226.731 309.905 225.695 309.905 224.416 C 309.905 223.138 308.875 222.102 307.604 222.102 C 306.333 222.102 305.302 223.138 305.302 224.416 C 305.302 225.695 306.333 226.731 307.604 226.731 Z" fill="#795548"/>
    <path opacity="0.1" d="M 307.604 226.731 C 308.875 226.731 309.905 225.695 309.905 224.416 C 309.905 223.138 308.875 222.102 307.604 222.102 C 306.333 222.102 305.302 223.138 305.302 224.416 C 305.302 225.695 306.333 226.731 307.604 226.731 Z" fill="white"/>
    <path opacity="0.05" d="M 305.657 224.773 C 305.657 224.338 305.779 223.911 306.009 223.542 C 306.24 223.174 306.569 222.878 306.96 222.689 C 307.35 222.501 307.786 222.427 308.216 222.477 C 308.647 222.527 309.054 222.698 309.392 222.971 C 309.192 222.71 308.939 222.495 308.65 222.34 C 308.361 222.186 308.043 222.095 307.716 222.074 C 307.389 222.053 307.062 222.102 306.756 222.219 C 306.45 222.336 306.172 222.517 305.941 222.75 C 305.71 222.983 305.531 223.263 305.416 223.572 C 305.302 223.88 305.254 224.209 305.276 224.538 C 305.298 224.866 305.39 225.186 305.545 225.476 C 305.7 225.766 305.915 226.019 306.175 226.219 C 305.843 225.811 305.66 225.3 305.657 224.773 Z" fill="white"/>
    <path d="M 304.595 241.321 C 305.866 241.321 306.896 240.284 306.896 239.006 C 306.896 237.728 305.866 236.692 304.595 236.692 C 303.323 236.692 302.293 237.728 302.293 239.006 C 302.293 240.284 303.323 241.321 304.595 241.321 Z" fill="#795548"/>
    <path opacity="0.05" d="M 302.648 239.363 C 302.648 238.928 302.771 238.502 303.002 238.134 C 303.233 237.766 303.562 237.471 303.952 237.282 C 304.342 237.094 304.777 237.02 305.207 237.069 C 305.637 237.119 306.045 237.289 306.383 237.561 C 306.18 237.308 305.927 237.101 305.64 236.953 C 305.353 236.805 305.038 236.72 304.715 236.702 C 304.393 236.685 304.071 236.736 303.77 236.852 C 303.468 236.968 303.195 237.147 302.966 237.376 C 302.738 237.606 302.561 237.881 302.445 238.184 C 302.33 238.487 302.279 238.811 302.296 239.135 C 302.313 239.459 302.398 239.776 302.545 240.064 C 302.692 240.353 302.898 240.608 303.15 240.811 C 302.823 240.4 302.646 239.889 302.648 239.363 Z" fill="white"/>
    <path d="M 298.756 231.714 C 300.027 231.714 301.058 230.678 301.058 229.399 C 301.058 228.121 300.027 227.085 298.756 227.085 C 297.485 227.085 296.455 228.121 296.455 229.399 C 296.455 230.678 297.485 231.714 298.756 231.714 Z" fill="#795548"/>
    <path opacity="0.05" d="M 296.809 229.754 C 296.81 229.319 296.933 228.893 297.163 228.524 C 297.394 228.156 297.724 227.861 298.114 227.673 C 298.504 227.485 298.939 227.411 299.369 227.46 C 299.799 227.509 300.206 227.68 300.544 227.951 C 300.342 227.699 300.089 227.492 299.802 227.344 C 299.514 227.196 299.199 227.11 298.877 227.093 C 298.555 227.076 298.233 227.127 297.931 227.243 C 297.63 227.359 297.356 227.537 297.128 227.767 C 296.9 227.996 296.722 228.271 296.607 228.574 C 296.491 228.877 296.44 229.202 296.458 229.526 C 296.475 229.85 296.56 230.166 296.707 230.455 C 296.854 230.744 297.06 230.998 297.311 231.202 C 296.984 230.791 296.807 230.28 296.809 229.754 Z" fill="white"/>
    <path d="M 301.588 238.476 C 302.859 238.476 303.89 237.44 303.89 236.162 C 303.89 234.883 302.859 233.847 301.588 233.847 C 300.317 233.847 299.286 234.883 299.286 236.162 C 299.286 237.44 300.317 238.476 301.588 238.476 Z" fill="#795548"/>
    <path opacity="0.05" d="M 299.639 236.516 C 299.639 236.081 299.762 235.655 299.993 235.287 C 300.224 234.919 300.553 234.623 300.943 234.435 C 301.333 234.247 301.768 234.173 302.198 234.222 C 302.628 234.271 303.036 234.442 303.374 234.713 C 303.171 234.461 302.918 234.254 302.631 234.106 C 302.344 233.958 302.029 233.873 301.706 233.855 C 301.384 233.838 301.062 233.889 300.76 234.005 C 300.459 234.121 300.185 234.3 299.957 234.529 C 299.729 234.759 299.551 235.034 299.436 235.337 C 299.321 235.64 299.27 235.964 299.287 236.288 C 299.304 236.612 299.389 236.928 299.536 237.217 C 299.683 237.506 299.889 237.761 300.141 237.964 C 299.813 237.554 299.636 237.042 299.639 236.516 Z" fill="white"/>
    <path d="M 309.905 221.75 C 311.177 221.75 312.207 220.714 312.207 219.436 C 312.207 218.158 311.177 217.121 309.905 217.121 C 308.634 217.121 307.604 218.158 307.604 219.436 C 307.604 220.714 308.634 221.75 309.905 221.75 Z" fill="#795548"/>
    <path opacity="0.05" d="M 307.959 219.79 C 307.959 219.355 308.082 218.929 308.313 218.561 C 308.543 218.193 308.873 217.898 309.263 217.709 C 309.653 217.521 310.088 217.447 310.518 217.496 C 310.948 217.546 311.356 217.716 311.694 217.988 C 311.491 217.735 311.238 217.528 310.951 217.38 C 310.664 217.232 310.349 217.147 310.026 217.129 C 309.704 217.112 309.382 217.163 309.08 217.279 C 308.779 217.395 308.505 217.574 308.277 217.803 C 308.049 218.033 307.871 218.308 307.756 218.611 C 307.64 218.914 307.59 219.238 307.607 219.562 C 307.624 219.886 307.709 220.203 307.856 220.491 C 308.003 220.78 308.209 221.035 308.46 221.238 C 308.133 220.828 307.956 220.316 307.959 219.79 Z" fill="white"/>
    <path d="M 309.728 226.909 C 310.999 226.909 312.03 225.873 312.03 224.595 C 312.03 223.317 310.999 222.281 309.728 222.281 C 308.457 222.281 307.426 223.317 307.426 224.595 C 307.426 225.873 308.457 226.909 309.728 226.909 Z" fill="#795548"/>
    <path opacity="0.05" d="M 307.781 224.951 C 307.781 224.516 307.904 224.09 308.134 223.721 C 308.365 223.353 308.694 223.057 309.084 222.869 C 309.475 222.68 309.91 222.606 310.34 222.655 C 310.77 222.704 311.178 222.875 311.516 223.147 C 311.314 222.894 311.061 222.687 310.773 222.539 C 310.486 222.391 310.171 222.306 309.849 222.288 C 309.527 222.271 309.204 222.322 308.903 222.438 C 308.602 222.554 308.328 222.733 308.1 222.962 C 307.871 223.192 307.694 223.467 307.578 223.77 C 307.463 224.073 307.412 224.397 307.43 224.721 C 307.447 225.045 307.532 225.362 307.679 225.65 C 307.826 225.939 308.032 226.194 308.283 226.397 C 307.956 225.987 307.779 225.477 307.781 224.951 Z" fill="white"/>
    <path d="M 313.797 225.13 C 315.068 225.13 316.099 224.094 316.099 222.816 C 316.099 221.537 315.068 220.501 313.797 220.501 C 312.526 220.501 311.495 221.537 311.495 222.816 C 311.495 224.094 312.526 225.13 313.797 225.13 Z" fill="#795548"/>
    <path opacity="0.05" d="M 311.85 223.17 C 311.852 222.735 311.975 222.31 312.206 221.942 C 312.437 221.575 312.766 221.28 313.156 221.092 C 313.546 220.904 313.98 220.83 314.41 220.879 C 314.839 220.927 315.247 221.097 315.585 221.367 C 315.383 221.115 315.13 220.908 314.842 220.76 C 314.555 220.612 314.24 220.527 313.918 220.509 C 313.595 220.492 313.273 220.543 312.972 220.659 C 312.67 220.775 312.397 220.954 312.169 221.183 C 311.94 221.413 311.763 221.688 311.647 221.991 C 311.532 222.294 311.481 222.618 311.498 222.942 C 311.516 223.266 311.601 223.583 311.748 223.871 C 311.895 224.16 312.101 224.415 312.352 224.618 C 312.025 224.207 311.848 223.696 311.85 223.17 Z" fill="white"/>
    <path d="M 312.027 235.094 C 313.299 235.094 314.329 234.057 314.329 232.779 C 314.329 231.501 313.299 230.465 312.027 230.465 C 310.756 230.465 309.726 231.501 309.726 232.779 C 309.726 234.057 310.756 235.094 312.027 235.094 Z" fill="#795548"/>
    <path d="M 313.276 234.047 C 314.548 234.047 315.578 233.011 315.578 231.733 C 315.578 230.454 314.548 229.418 313.276 229.418 C 312.005 229.418 310.975 230.454 310.975 231.733 C 310.975 233.011 312.005 234.047 313.276 234.047 Z" fill="#795548"/>
    <path opacity="0.05" d="M 310.081 233.136 C 310.08 232.701 310.202 232.274 310.433 231.905 C 310.664 231.537 310.993 231.241 311.384 231.052 C 311.774 230.864 312.21 230.79 312.64 230.84 C 313.07 230.89 313.478 231.061 313.816 231.334 C 313.614 231.079 313.361 230.869 313.073 230.719 C 312.786 230.57 312.47 230.483 312.146 230.464 C 311.823 230.446 311.499 230.496 311.196 230.612 C 310.894 230.728 310.619 230.907 310.39 231.137 C 310.161 231.368 309.983 231.644 309.867 231.949 C 309.752 232.253 309.702 232.578 309.72 232.904 C 309.738 233.229 309.825 233.547 309.974 233.836 C 310.123 234.125 310.331 234.379 310.585 234.582 C 310.257 234.172 310.079 233.662 310.081 233.136 Z" fill="white"/>
    <path d="M 310.79 241.499 C 312.061 241.499 313.092 240.463 313.092 239.185 C 313.092 237.907 312.061 236.87 310.79 236.87 C 309.519 236.87 308.488 237.907 308.488 239.185 C 308.488 240.463 309.519 241.499 310.79 241.499 Z" fill="#795548"/>
    <path opacity="0.05" d="M 308.843 239.541 C 308.843 239.106 308.965 238.679 309.196 238.31 C 309.426 237.942 309.756 237.646 310.146 237.458 C 310.537 237.269 310.972 237.196 311.403 237.245 C 311.833 237.295 312.241 237.466 312.578 237.739 C 312.376 237.485 312.123 237.277 311.836 237.128 C 311.549 236.979 311.233 236.892 310.91 236.874 C 310.587 236.856 310.264 236.907 309.962 237.023 C 309.66 237.139 309.386 237.317 309.157 237.547 C 308.928 237.777 308.75 238.053 308.635 238.356 C 308.519 238.66 308.469 238.985 308.487 239.31 C 308.504 239.634 308.59 239.951 308.738 240.24 C 308.886 240.53 309.093 240.784 309.345 240.987 C 309.018 240.577 308.841 240.067 308.843 239.541 Z" fill="white"/>
    <path d="M 311.675 236.873 C 312.946 236.873 313.977 235.837 313.977 234.559 C 313.977 233.28 312.946 232.244 311.675 232.244 C 310.404 232.244 309.373 233.28 309.373 234.559 C 309.373 235.837 310.404 236.873 311.675 236.873 Z" fill="#795548"/>
    <path opacity="0.05" d="M 309.728 234.915 C 309.728 234.48 309.85 234.053 310.08 233.684 C 310.311 233.316 310.641 233.02 311.031 232.831 C 311.422 232.643 311.857 232.569 312.287 232.619 C 312.718 232.669 313.125 232.84 313.463 233.113 C 313.261 232.859 313.008 232.65 312.721 232.501 C 312.433 232.352 312.118 232.266 311.795 232.248 C 311.472 232.23 311.149 232.281 310.847 232.397 C 310.545 232.513 310.271 232.691 310.042 232.921 C 309.813 233.151 309.635 233.427 309.52 233.73 C 309.404 234.034 309.354 234.359 309.371 234.683 C 309.389 235.008 309.475 235.325 309.623 235.614 C 309.771 235.903 309.978 236.158 310.23 236.361 C 309.903 235.951 309.726 235.441 309.728 234.915 Z" fill="white"/>
    <path d="M 315.744 232.958 C 317.015 232.958 318.046 231.922 318.046 230.643 C 318.046 229.365 317.015 228.329 315.744 228.329 C 314.473 228.329 313.442 229.365 313.442 230.643 C 313.442 231.922 314.473 232.958 315.744 232.958 Z" fill="#795548"/>
    <path d="M 327.822 238.194 C 329.093 238.194 330.124 237.158 330.124 235.88 C 330.124 234.602 329.093 233.566 327.822 233.566 C 326.551 233.566 325.52 234.602 325.52 235.88 C 325.52 237.158 326.551 238.194 327.822 238.194 Z" fill="#795548"/>
    <path opacity="0.05" d="M 313.797 231 C 313.797 230.565 313.919 230.138 314.149 229.769 C 314.38 229.4 314.71 229.105 315.1 228.916 C 315.49 228.728 315.926 228.654 316.356 228.704 C 316.787 228.754 317.194 228.925 317.532 229.197 C 317.33 228.944 317.077 228.736 316.789 228.587 C 316.502 228.438 316.186 228.352 315.863 228.334 C 315.54 228.316 315.218 228.367 314.915 228.483 C 314.613 228.6 314.339 228.778 314.111 229.008 C 313.882 229.238 313.704 229.514 313.589 229.818 C 313.474 230.122 313.423 230.447 313.441 230.771 C 313.459 231.096 313.545 231.413 313.693 231.702 C 313.842 231.991 314.049 232.245 314.301 232.448 C 313.974 232.038 313.796 231.527 313.797 231 Z" fill="white"/>
    <path d="M 313.444 239.187 C 314.716 239.187 315.746 238.151 315.746 236.873 C 315.746 235.595 314.716 234.558 313.444 234.558 C 312.173 234.558 311.143 235.595 311.143 236.873 C 311.143 238.151 312.173 239.187 313.444 239.187 Z" fill="#795548"/>
    <path opacity="0.05" d="M 311.498 237.227 C 311.498 236.792 311.621 236.366 311.852 235.998 C 312.082 235.63 312.412 235.334 312.802 235.146 C 313.192 234.958 313.627 234.884 314.057 234.933 C 314.487 234.983 314.895 235.153 315.233 235.424 C 315.032 235.167 314.779 234.955 314.49 234.802 C 314.202 234.65 313.884 234.562 313.559 234.542 C 313.234 234.523 312.908 234.573 312.604 234.689 C 312.3 234.806 312.023 234.986 311.793 235.218 C 311.563 235.45 311.385 235.729 311.27 236.035 C 311.156 236.342 311.107 236.669 311.127 236.996 C 311.148 237.323 311.237 237.642 311.39 237.931 C 311.542 238.221 311.754 238.474 312.011 238.675 C 311.68 238.266 311.498 237.755 311.498 237.227 Z" fill="white"/>
    <path d="M 320.7 228.156 C 321.971 228.156 323.002 227.119 323.002 225.841 C 323.002 224.563 321.971 223.527 320.7 223.527 C 319.429 223.527 318.398 224.563 318.398 225.841 C 318.398 227.119 319.429 228.156 320.7 228.156 Z" fill="#795548"/>
    <path opacity="0.05" d="M 318.753 226.195 C 318.754 225.76 318.876 225.334 319.107 224.966 C 319.338 224.598 319.667 224.303 320.057 224.115 C 320.447 223.926 320.883 223.852 321.313 223.902 C 321.743 223.951 322.15 224.121 322.488 224.393 C 322.286 224.14 322.032 223.933 321.745 223.785 C 321.458 223.637 321.143 223.552 320.821 223.535 C 320.498 223.517 320.176 223.568 319.875 223.684 C 319.573 223.8 319.3 223.979 319.071 224.209 C 318.843 224.438 318.666 224.713 318.55 225.016 C 318.435 225.319 318.384 225.643 318.401 225.967 C 318.419 226.291 318.504 226.608 318.651 226.897 C 318.798 227.186 319.004 227.44 319.255 227.644 C 318.929 227.232 318.751 226.722 318.753 226.195 Z" fill="white"/>
    <path d="M 318.93 231.535 C 320.202 231.535 321.232 230.499 321.232 229.221 C 321.232 227.943 320.202 226.907 318.93 226.907 C 317.659 226.907 316.629 227.943 316.629 229.221 C 316.629 230.499 317.659 231.535 318.93 231.535 Z" fill="#795548"/>
    <path opacity="0.05" d="M 316.983 229.578 C 316.984 229.142 317.106 228.716 317.337 228.347 C 317.567 227.979 317.897 227.683 318.287 227.495 C 318.677 227.306 319.112 227.232 319.542 227.282 C 319.973 227.331 320.38 227.501 320.718 227.773 C 320.516 227.52 320.263 227.313 319.976 227.165 C 319.688 227.017 319.373 226.932 319.051 226.915 C 318.729 226.897 318.407 226.948 318.105 227.064 C 317.804 227.18 317.53 227.359 317.302 227.588 C 317.074 227.818 316.896 228.093 316.781 228.396 C 316.665 228.699 316.615 229.023 316.632 229.347 C 316.649 229.671 316.734 229.988 316.881 230.277 C 317.028 230.565 317.234 230.82 317.485 231.024 C 317.159 230.613 316.982 230.103 316.983 229.578 Z" fill="white"/>
    <path d="M 320.345 234.739 C 321.616 234.739 322.647 233.703 322.647 232.425 C 322.647 231.147 321.616 230.111 320.345 230.111 C 319.074 230.111 318.043 231.147 318.043 232.425 C 318.043 233.703 319.074 234.739 320.345 234.739 Z" fill="#795548"/>
    <path opacity="0.05" d="M 318.398 232.779 C 318.399 232.344 318.521 231.918 318.752 231.55 C 318.983 231.182 319.312 230.887 319.702 230.698 C 320.093 230.51 320.528 230.436 320.958 230.486 C 321.388 230.535 321.795 230.705 322.133 230.977 C 321.931 230.723 321.678 230.515 321.39 230.366 C 321.103 230.217 320.787 230.131 320.464 230.113 C 320.142 230.096 319.819 230.146 319.517 230.263 C 319.215 230.379 318.94 230.558 318.712 230.788 C 318.483 231.018 318.305 231.294 318.19 231.597 C 318.075 231.901 318.024 232.226 318.042 232.55 C 318.06 232.875 318.146 233.192 318.294 233.481 C 318.443 233.77 318.65 234.025 318.902 234.228 C 318.574 233.817 318.396 233.306 318.398 232.779 Z" fill="white"/>
    <path d="M 323.884 241.321 C 325.155 241.321 326.186 240.284 326.186 239.006 C 326.186 237.728 325.155 236.692 323.884 236.692 C 322.613 236.692 321.582 237.728 321.582 239.006 C 321.582 240.284 322.613 241.321 323.884 241.321 Z" fill="#795548"/>
    <path opacity="0.05" d="M 321.939 239.363 C 321.939 238.928 322.061 238.501 322.292 238.132 C 322.522 237.764 322.852 237.468 323.242 237.279 C 323.633 237.091 324.068 237.017 324.499 237.067 C 324.929 237.117 325.337 237.288 325.674 237.561 C 325.472 237.308 325.219 237.101 324.932 236.953 C 324.644 236.805 324.329 236.72 324.007 236.702 C 323.685 236.685 323.363 236.736 323.061 236.852 C 322.76 236.968 322.486 237.147 322.258 237.376 C 322.03 237.606 321.852 237.881 321.737 238.184 C 321.621 238.487 321.57 238.811 321.588 239.135 C 321.605 239.459 321.69 239.776 321.837 240.064 C 321.984 240.353 322.19 240.608 322.441 240.811 C 322.114 240.4 321.937 239.889 321.939 239.363 Z" fill="white"/>
    <path d="M 326.716 235.983 C 327.987 235.983 329.017 234.947 329.017 233.669 C 329.017 232.391 327.987 231.355 326.716 231.355 C 325.444 231.355 324.414 232.391 324.414 233.669 C 324.414 234.947 325.444 235.983 326.716 235.983 Z" fill="#795548"/>
    <path d="M 302.144 232.843 C 303.415 232.843 304.445 231.807 304.445 230.529 C 304.445 229.25 303.415 228.214 302.144 228.214 C 300.872 228.214 299.842 229.25 299.842 230.529 C 299.842 231.807 300.872 232.843 302.144 232.843 Z" fill="#795548"/>
    <path opacity="0.05" d="M 324.769 234.026 C 324.769 233.59 324.892 233.164 325.123 232.796 C 325.354 232.428 325.683 232.133 326.073 231.945 C 326.463 231.756 326.898 231.683 327.328 231.732 C 327.758 231.781 328.166 231.951 328.504 232.223 C 328.302 231.969 328.049 231.761 327.761 231.612 C 327.474 231.463 327.159 231.376 326.836 231.358 C 326.513 231.34 326.19 231.391 325.888 231.507 C 325.586 231.623 325.311 231.802 325.083 232.031 C 324.854 232.261 324.676 232.537 324.56 232.841 C 324.445 233.144 324.394 233.469 324.412 233.794 C 324.43 234.118 324.515 234.436 324.663 234.725 C 324.811 235.014 325.018 235.268 325.271 235.471 C 324.944 235.061 324.767 234.551 324.769 234.026 Z" fill="white"/>
    <path d="M 320.877 238.476 C 322.148 238.476 323.179 237.44 323.179 236.162 C 323.179 234.883 322.148 233.847 320.877 233.847 C 319.606 233.847 318.575 234.883 318.575 236.162 C 318.575 237.44 319.606 238.476 320.877 238.476 Z" fill="#795548"/>
    <path opacity="0.05" d="M 318.93 236.516 C 318.931 236.081 319.054 235.655 319.284 235.287 C 319.515 234.919 319.845 234.623 320.235 234.435 C 320.625 234.247 321.06 234.173 321.49 234.222 C 321.92 234.271 322.327 234.442 322.665 234.713 C 322.463 234.461 322.21 234.254 321.923 234.106 C 321.635 233.958 321.32 233.873 320.998 233.855 C 320.676 233.838 320.353 233.889 320.052 234.005 C 319.751 234.121 319.477 234.3 319.249 234.529 C 319.021 234.759 318.843 235.034 318.728 235.337 C 318.612 235.64 318.561 235.964 318.579 236.288 C 318.596 236.612 318.681 236.928 318.828 237.217 C 318.975 237.506 319.181 237.761 319.432 237.964 C 319.105 237.554 318.928 237.042 318.93 236.516 Z" fill="white"/>
    <path d="M 321.23 241.321 C 322.501 241.321 323.531 240.284 323.531 239.006 C 323.531 237.728 322.501 236.692 321.23 236.692 C 319.959 236.692 318.928 237.728 318.928 239.006 C 318.928 240.284 319.959 241.321 321.23 241.321 Z" fill="#795548"/>
    <path opacity="0.05" d="M 319.283 239.363 C 319.283 238.928 319.405 238.501 319.635 238.132 C 319.866 237.763 320.195 237.468 320.586 237.279 C 320.976 237.091 321.412 237.017 321.842 237.067 C 322.273 237.117 322.68 237.288 323.018 237.561 C 322.816 237.307 322.563 237.099 322.275 236.95 C 321.988 236.801 321.672 236.715 321.349 236.697 C 321.026 236.679 320.703 236.73 320.401 236.846 C 320.099 236.963 319.825 237.141 319.597 237.371 C 319.368 237.601 319.19 237.877 319.075 238.181 C 318.96 238.485 318.909 238.81 318.927 239.134 C 318.945 239.459 319.031 239.776 319.179 240.065 C 319.327 240.354 319.535 240.608 319.787 240.811 C 319.459 240.401 319.281 239.89 319.283 239.363 Z" fill="white"/>
    <path d="M 314.507 243.278 C 315.778 243.278 316.808 242.242 316.808 240.964 C 316.808 239.686 315.778 238.65 314.507 238.65 C 313.235 238.65 312.205 239.686 312.205 240.964 C 312.205 242.242 313.235 243.278 314.507 243.278 Z" fill="#795548"/>
    <path opacity="0.05" d="M 312.56 241.321 C 312.559 240.885 312.682 240.458 312.912 240.09 C 313.143 239.721 313.472 239.425 313.863 239.237 C 314.253 239.049 314.689 238.975 315.119 239.025 C 315.549 239.074 315.957 239.245 316.295 239.518 C 316.093 239.264 315.84 239.056 315.552 238.907 C 315.265 238.758 314.95 238.672 314.627 238.654 C 314.304 238.636 313.981 238.686 313.679 238.802 C 313.377 238.918 313.102 239.097 312.874 239.327 C 312.645 239.556 312.467 239.832 312.351 240.136 C 312.236 240.439 312.185 240.764 312.203 241.089 C 312.221 241.413 312.306 241.731 312.454 242.02 C 312.602 242.309 312.809 242.563 313.062 242.767 C 312.734 242.357 312.557 241.846 312.56 241.321 Z" fill="white"/>
    <path d="M 306.896 235.805 C 308.168 235.805 309.198 234.769 309.198 233.49 C 309.198 232.212 308.168 231.176 306.896 231.176 C 305.625 231.176 304.595 232.212 304.595 233.49 C 304.595 234.769 305.625 235.805 306.896 235.805 Z" fill="#795548"/>
    <path opacity="0.05" d="M 304.949 233.847 C 304.949 233.412 305.071 232.985 305.302 232.616 C 305.532 232.248 305.862 231.952 306.253 231.763 C 306.643 231.575 307.079 231.501 307.509 231.551 C 307.939 231.601 308.347 231.772 308.685 232.045 C 308.481 231.794 308.228 231.588 307.94 231.442 C 307.653 231.296 307.338 231.212 307.017 231.195 C 306.695 231.179 306.374 231.231 306.073 231.348 C 305.773 231.464 305.5 231.643 305.273 231.873 C 305.045 232.102 304.868 232.377 304.754 232.679 C 304.639 232.982 304.588 233.305 304.605 233.629 C 304.623 233.952 304.707 234.268 304.854 234.556 C 305 234.845 305.206 235.099 305.456 235.302 C 305.126 234.89 304.947 234.376 304.949 233.847 Z" fill="white"/>
    <path d="M 309.196 235.629 C 310.467 235.629 311.498 234.593 311.498 233.314 C 311.498 232.036 310.467 231 309.196 231 C 307.925 231 306.894 232.036 306.894 233.314 C 306.894 234.593 307.925 235.629 309.196 235.629 Z" fill="#795548"/>
    <path opacity="0.05" d="M 307.249 233.66 C 307.25 233.225 307.374 232.799 307.605 232.432 C 307.836 232.064 308.165 231.77 308.555 231.581 C 308.944 231.393 309.379 231.319 309.809 231.368 C 310.238 231.417 310.646 231.586 310.984 231.857 C 310.781 231.604 310.528 231.397 310.241 231.249 C 309.954 231.102 309.639 231.016 309.317 230.999 C 308.994 230.981 308.672 231.032 308.371 231.149 C 308.069 231.265 307.796 231.443 307.567 231.673 C 307.339 231.902 307.162 232.177 307.046 232.48 C 306.931 232.783 306.88 233.107 306.897 233.431 C 306.915 233.755 307 234.072 307.147 234.361 C 307.294 234.65 307.499 234.904 307.751 235.108 C 307.424 234.697 307.246 234.186 307.249 233.66 Z" fill="white"/>
    <path d="M 304.42 238.476 C 305.691 238.476 306.721 237.44 306.721 236.162 C 306.721 234.883 305.691 233.847 304.42 233.847 C 303.148 233.847 302.118 234.883 302.118 236.162 C 302.118 237.44 303.148 238.476 304.42 238.476 Z" fill="#795548"/>
    <path opacity="0.05" d="M 302.473 236.516 C 302.473 236.081 302.596 235.655 302.827 235.287 C 303.057 234.919 303.387 234.623 303.777 234.435 C 304.167 234.247 304.602 234.173 305.032 234.222 C 305.462 234.271 305.87 234.442 306.208 234.713 C 306.005 234.461 305.752 234.254 305.465 234.106 C 305.178 233.958 304.863 233.873 304.54 233.855 C 304.218 233.838 303.896 233.889 303.594 234.005 C 303.293 234.121 303.019 234.3 302.791 234.529 C 302.563 234.759 302.385 235.034 302.27 235.337 C 302.154 235.64 302.104 235.964 302.121 236.288 C 302.138 236.612 302.223 236.928 302.37 237.217 C 302.517 237.506 302.723 237.761 302.975 237.964 C 302.647 237.554 302.47 237.042 302.473 236.516 Z" fill="white"/>
    <path d="M 324.416 244.346 C 325.687 244.346 326.718 243.31 326.718 242.032 C 326.718 240.754 325.687 239.718 324.416 239.718 C 323.145 239.718 322.114 240.754 322.114 242.032 C 322.114 243.31 323.145 244.346 324.416 244.346 Z" fill="#795548"/>
    <path opacity="0.1" d="M 324.416 244.346 C 325.687 244.346 326.718 243.31 326.718 242.032 C 326.718 240.754 325.687 239.718 324.416 239.718 C 323.145 239.718 322.114 240.754 322.114 242.032 C 322.114 243.31 323.145 244.346 324.416 244.346 Z" fill="white"/>
    <path opacity="0.05" d="M 322.469 242.389 C 322.469 241.953 322.591 241.526 322.822 241.158 C 323.052 240.789 323.382 240.493 323.772 240.305 C 324.163 240.116 324.598 240.043 325.029 240.092 C 325.459 240.142 325.867 240.313 326.204 240.586 C 326.004 240.327 325.751 240.114 325.463 239.961 C 325.174 239.808 324.856 239.718 324.531 239.698 C 324.205 239.678 323.879 239.727 323.574 239.844 C 323.268 239.96 322.992 240.141 322.761 240.373 C 322.531 240.605 322.352 240.884 322.237 241.191 C 322.122 241.498 322.074 241.827 322.095 242.154 C 322.116 242.481 322.206 242.801 322.359 243.09 C 322.512 243.38 322.725 243.634 322.983 243.834 C 322.653 243.425 322.472 242.915 322.469 242.389 Z" fill="white"/>
    <path d="M 322.114 235.983 C 323.386 235.983 324.416 234.947 324.416 233.669 C 324.416 232.391 323.386 231.355 322.114 231.355 C 320.843 231.355 319.813 232.391 319.813 233.669 C 319.813 234.947 320.843 235.983 322.114 235.983 Z" fill="#795548"/>
    <path opacity="0.1" d="M 322.114 235.983 C 323.386 235.983 324.416 234.947 324.416 233.669 C 324.416 232.391 323.386 231.355 322.114 231.355 C 320.843 231.355 319.813 232.391 319.813 233.669 C 319.813 234.947 320.843 235.983 322.114 235.983 Z" fill="white"/>
    <path opacity="0.05" d="M 320.168 234.026 C 320.168 233.59 320.291 233.164 320.522 232.796 C 320.752 232.428 321.082 232.133 321.472 231.945 C 321.862 231.756 322.297 231.683 322.727 231.732 C 323.157 231.781 323.565 231.951 323.903 232.223 C 323.701 231.969 323.448 231.761 323.16 231.612 C 322.873 231.463 322.557 231.376 322.235 231.358 C 321.912 231.34 321.589 231.391 321.287 231.507 C 320.985 231.623 320.71 231.802 320.481 232.031 C 320.253 232.261 320.075 232.537 319.959 232.841 C 319.844 233.144 319.793 233.469 319.811 233.794 C 319.829 234.118 319.914 234.436 320.062 234.725 C 320.21 235.014 320.417 235.268 320.669 235.471 C 320.343 235.061 320.166 234.551 320.168 234.026 Z" fill="white"/>
    <path d="M 315.566 230.113 C 316.838 230.113 317.868 229.077 317.868 227.799 C 317.868 226.521 316.838 225.484 315.566 225.484 C 314.295 225.484 313.265 226.521 313.265 227.799 C 313.265 229.077 314.295 230.113 315.566 230.113 Z" fill="#795548"/>
    <path opacity="0.1" d="M 315.566 230.113 C 316.838 230.113 317.868 229.077 317.868 227.799 C 317.868 226.521 316.838 225.484 315.566 225.484 C 314.295 225.484 313.265 226.521 313.265 227.799 C 313.265 229.077 314.295 230.113 315.566 230.113 Z" fill="white"/>
    <path opacity="0.05" d="M 313.622 228.153 C 313.622 227.718 313.745 227.292 313.976 226.924 C 314.207 226.556 314.536 226.26 314.926 226.072 C 315.316 225.884 315.751 225.81 316.181 225.859 C 316.611 225.908 317.019 226.079 317.357 226.35 C 317.154 226.098 316.901 225.891 316.614 225.743 C 316.327 225.595 316.012 225.51 315.69 225.492 C 315.367 225.475 315.045 225.526 314.744 225.642 C 314.442 225.758 314.169 225.937 313.94 226.166 C 313.712 226.395 313.535 226.671 313.419 226.974 C 313.304 227.277 313.253 227.601 313.27 227.925 C 313.288 228.249 313.372 228.565 313.52 228.854 C 313.667 229.143 313.872 229.398 314.124 229.601 C 313.796 229.19 313.619 228.679 313.622 228.153 Z" fill="white"/>
    <path d="M 337.087 254.225 L 286.307 254.225 L 291.72 236.211 L 331.674 236.211 L 337.087 254.225 Z" fill="#F55F44"/>
    <path opacity="0.05" d="M 293.245 237.743 L 330.224 237.821 L 329.921 236.288 L 291.72 236.211 L 286.307 254.225 L 288.291 254.225 L 293.245 237.743 Z" fill="white"/>
    <path d="M 338.383 255.375 L 284.705 255.375 L 286.839 252.618 L 336.553 252.618 L 338.383 255.375 Z" fill="#FD8B10"/>
    <path d="M 338.383 255.375 L 284.705 255.375 L 286.839 252.618 L 336.553 252.618 L 338.383 255.375 Z" fill="#F55F44"/>
    <path opacity="0.1" d="M 338.383 255.375 L 284.705 255.375 L 286.839 252.618 L 336.553 252.618 L 338.383 255.375 Z" fill="black"/>
    <path opacity="0.05" d="M 329.986 236.063 L 334.578 252.618 L 336.756 252.728 L 331.62 236.063 L 329.986 236.063 Z" fill="black"/>
    <path d="M 295.152 174.633 C 295.04 182.543 288.403 188.798 280.536 188.798 L 279.441 188.798 C 278.474 188.795 277.544 189.172 276.85 189.85 C 276.323 190.346 275.956 190.989 275.797 191.697 C 275.723 191.983 275.686 192.277 275.688 192.573 L 275.688 206.536 C 275.694 209.22 274.932 211.849 273.493 214.11 C 271.432 217.345 270.225 221.046 270.225 224.886 C 270.225 225.78 270.047 226.665 269.702 227.49 C 269.358 228.314 268.854 229.062 268.219 229.688 C 267.584 230.315 266.832 230.808 266.005 231.139 C 265.179 231.469 264.295 231.631 263.406 231.615 C 259.727 231.547 256.842 228.367 256.842 224.665 L 256.842 221.173 L 255.019 221.389 L 255.019 224.886 C 255.018 225.78 254.84 226.666 254.495 227.49 C 254.151 228.315 253.646 229.062 253.011 229.688 C 252.376 230.315 251.623 230.808 250.797 231.139 C 249.97 231.469 249.087 231.631 248.197 231.615 C 244.518 231.547 241.635 228.367 241.635 224.665 L 241.635 222.898 C 239.81 223.663 229.468 223.663 226.597 222.924 L 225.817 222.863 L 225.817 224.886 C 225.817 225.78 225.639 226.665 225.295 227.49 C 224.95 228.314 224.446 229.062 223.811 229.688 C 223.176 230.315 222.424 230.808 221.598 231.139 C 220.771 231.469 219.888 231.631 218.998 231.615 C 215.317 231.547 212.434 228.367 212.434 224.665 L 212.434 221.762 L 211.825 221.706 L 211.825 224.886 C 211.825 225.449 211.756 226.011 211.619 226.557 C 211.243 228.025 210.385 229.322 209.185 230.24 C 207.986 231.158 206.513 231.642 205.006 231.615 C 201.642 231.554 198.948 228.893 198.502 225.609 C 198.464 225.297 198.444 224.984 198.441 224.67 L 198.441 210.054 C 198.434 205.034 200.105 200.156 203.187 196.206 C 203.722 195.507 204.021 194.656 204.041 193.774 C 204.062 192.893 203.803 192.028 203.302 191.305 C 199.896 186.289 194.858 177.826 195.024 171.824 C 195.066 170.087 195.54 168.564 196.618 167.383 C 196.684 167.31 196.751 167.238 196.819 167.169 C 201.721 162.006 210.359 166.069 209.605 173.164 C 209.352 175.541 209.528 177.945 210.123 180.26 C 210.46 181.568 210.918 182.842 211.491 184.064 C 212.063 185.292 213.005 186.307 214.183 186.965 C 215.362 187.624 216.716 187.892 218.055 187.733 C 218.965 187.622 219.881 187.567 220.798 187.569 L 248.921 187.569 C 250.571 187.565 252.178 187.043 253.518 186.075 C 254.858 185.107 255.862 183.741 256.391 182.17 C 256.676 181.346 256.82 180.479 256.816 179.607 L 256.816 157.612 C 256.816 157.038 256.93 156.47 257.153 155.941 C 257.375 155.413 257.701 154.935 258.111 154.535 C 258.521 154.136 259.006 153.824 259.538 153.617 C 260.071 153.41 260.639 153.312 261.209 153.331 C 261.767 153.347 262.315 153.477 262.822 153.712 C 263.328 153.947 263.782 154.283 264.156 154.699 C 264.916 155.544 265.339 156.643 265.341 157.783 C 265.341 158.081 265.4 158.376 265.513 158.651 C 265.627 158.927 265.793 159.177 266.003 159.387 C 266.212 159.598 266.461 159.765 266.735 159.879 C 267.009 159.992 267.302 160.051 267.599 160.05 L 280.854 160.05 C 282.749 160.05 284.625 160.428 286.373 161.163 C 288.122 161.898 289.707 162.976 291.037 164.333 C 292.367 165.69 293.416 167.3 294.121 169.068 C 294.827 170.836 295.176 172.728 295.147 174.633 L 295.152 174.633 Z" fill="#F3AD55"/>
    <path d="M 211.605 226.557 C 211.229 228.025 210.371 229.322 209.171 230.24 C 207.972 231.158 206.499 231.642 204.992 231.615 C 201.628 231.554 198.934 228.892 198.488 225.609 C 202.541 224.506 208.155 223.75 211.605 226.557 Z" fill="#FBDCA3"/>
    <path d="M 225.595 226.557 C 225.22 228.025 224.363 229.322 223.163 230.24 C 221.964 231.158 220.492 231.642 218.984 231.615 C 215.62 231.554 212.915 228.892 212.481 225.609 C 216.533 224.506 222.147 223.75 225.595 226.557 Z" fill="#FBDCA3"/>
    <path d="M 254.797 226.557 C 254.421 228.025 253.563 229.323 252.363 230.24 C 251.163 231.158 249.691 231.642 248.183 231.615 C 244.819 231.554 242.114 228.892 241.682 225.609 C 245.732 224.506 251.346 223.75 254.797 226.557 Z" fill="#FBDCA3"/>
    <path d="M 270.006 226.557 C 269.629 228.025 268.772 229.322 267.572 230.24 C 266.372 231.158 264.899 231.642 263.392 231.615 C 260.028 231.554 257.323 228.892 256.888 225.609 C 260.941 224.506 266.555 223.75 270.006 226.557 Z" fill="#FBDCA3"/>
    <path d="M 210.109 180.266 C 205.382 178.358 199.604 174.868 195.01 171.831 C 195.052 170.094 195.526 168.571 196.604 167.39 C 196.67 167.317 196.737 167.244 196.805 167.176 C 201.707 162.013 210.345 166.076 209.591 173.171 C 209.338 175.548 209.514 177.952 210.109 180.266 Z" fill="#FBDCA3"/>
    <path d="M 215.833 187.618 C 215.833 187.618 228.847 204.09 250.149 187.576 L 215.833 187.618 Z" fill="#FBDCA3"/>
    <path d="M 256.828 156.992 C 256.828 156.992 264.737 167.39 256.828 180.229 L 256.828 156.992 Z" fill="#FBDCA3"/>
    <path d="M 275.688 192.469 C 275.688 192.469 268.722 201.17 275.594 208.076 L 275.688 192.469 Z" fill="#FBDCA3"/>
    <path opacity="0.1" d="M 276.294 190.634 C 275.779 191.122 275.954 191.594 275.797 192.31 L 253.184 186.353 C 254.4 185.414 255.908 184.292 256.408 182.799 C 259.115 184.914 264.475 188.463 276.294 190.634 Z" fill="black"/>
    <path d="M 276.85 189.85 C 276.323 190.346 275.956 190.989 275.797 191.697 L 253.751 185.918 C 254.982 184.965 255.905 183.666 256.403 182.186 C 259.115 184.304 265.029 187.679 276.85 189.85 Z" fill="#383F4D"/>
    <path opacity="0.1" d="M 257.232 183.409 C 257.232 183.409 264.13 188.625 275.688 190.237 L 257.232 183.409 Z" fill="black"/>
    <path d="M 257.232 182.799 C 257.232 182.799 264.13 188.014 275.688 189.629 L 257.232 182.799 Z" fill="#F3AD55"/>
    <path opacity="0.1" d="M 274.471 183.294 C 274.471 183.294 286.029 186.963 289.071 175.342 L 274.471 183.294 Z" fill="black"/>
    <path d="M 274.471 182.682 C 274.471 182.682 286.029 186.353 289.071 174.732 L 274.471 182.682 Z" fill="#FBDCA3"/>
    <path d="M 295.154 175.342 C 295.826 175.342 296.371 174.384 296.371 173.201 C 296.371 172.019 295.826 171.061 295.154 171.061 C 294.483 171.061 293.938 172.019 293.938 173.201 C 293.938 174.384 294.483 175.342 295.154 175.342 Z" fill="#383F4D"/>
    <path opacity="0.1" d="M 202.994 217.241 L 205.426 197.668 C 205.426 197.668 198.124 209.289 202.994 217.241 Z" fill="black"/>
    <path d="M 206.028 197.668 C 206.028 197.668 198.729 209.289 203.594 217.241 L 206.028 197.668 Z" fill="#FBDCA3"/>
  </g>
</svg>