<?xml version="1.0" encoding="utf-8"?>
<svg viewBox="0 72.52 184.636 184.84" xmlns="http://www.w3.org/2000/svg">
  <g transform="matrix(1, 0, 0, 1, -88.300004, 66.214006)" style="">
    <title>logo medallion</title>
    <circle style="fill: rgb(4, 90, 124);" cx="180.618" cy="98.726" r="92.075"/>
    <g transform="matrix(0.467025, 0, 0, 0.467025, 96.203636, 52.685474)" style="">
      <title>logo</title>
      <path d="M 63.122 67.32 C 63.122 67.753 62.115 68.103 60.102 68.37 C 58.082 68.637 56.049 68.77 54.002 68.77 C 51.949 68.77 50.632 68.653 50.052 68.42 C 49.465 68.187 49.172 67.82 49.172 67.32 L 49.172 36.57 C 49.172 35.737 50.139 34.977 52.072 34.29 C 54.005 33.61 56.105 33.27 58.372 33.27 C 61.539 33.27 63.122 34.02 63.122 35.52 L 63.122 46.52 L 67.572 46.52 L 67.572 36.57 C 67.572 35.737 68.549 34.977 70.502 34.29 C 72.449 33.61 74.555 33.27 76.822 33.27 C 79.955 33.27 81.522 34.02 81.522 35.52 L 81.522 67.32 C 81.522 67.753 80.505 68.103 78.472 68.37 C 76.439 68.637 74.405 68.77 72.372 68.77 C 70.339 68.77 69.032 68.653 68.452 68.42 C 67.865 68.187 67.572 67.82 67.572 67.32 L 67.572 55.87 L 63.122 55.87 L 63.122 67.32 ZM 111.363 68.77 L 90.163 68.77 C 88.53 68.77 87.43 68.653 86.863 68.42 C 86.296 68.187 86.013 67.82 86.013 67.32 L 86.013 35.67 C 86.013 34.803 86.406 34.187 87.193 33.82 C 87.973 33.453 89.38 33.27 91.413 33.27 L 111.513 33.27 C 112.213 33.27 112.563 34.43 112.563 36.75 C 112.563 39.063 112.413 40.827 112.113 42.04 C 111.813 43.26 111.413 43.87 110.913 43.87 C 108.746 43.87 105.096 43.653 99.963 43.22 L 99.963 46.57 C 104.896 46.37 108.113 46.27 109.613 46.27 C 110.513 46.27 110.963 47.32 110.963 49.42 C 110.963 51.52 110.79 53.11 110.443 54.19 C 110.09 55.277 109.613 55.82 109.013 55.82 L 99.963 55.62 L 99.963 58.82 C 105.763 58.387 109.763 58.17 111.963 58.17 C 112.663 58.17 113.013 59.337 113.013 61.67 C 113.013 64.003 112.863 65.77 112.563 66.97 C 112.263 68.17 111.863 68.77 111.363 68.77 ZM 131.005 57.07 L 131.005 67.32 C 131.005 67.753 129.989 68.103 127.955 68.37 C 125.922 68.637 123.882 68.77 121.835 68.77 C 119.782 68.77 118.465 68.653 117.885 68.42 C 117.299 68.187 117.005 67.82 117.005 67.32 L 117.005 35.17 C 117.005 34.303 118.099 33.687 120.285 33.32 C 122.465 32.953 125.222 32.77 128.555 32.77 C 131.889 32.77 134.049 32.777 135.035 32.79 C 136.015 32.81 137.172 32.87 138.505 32.97 C 139.839 33.07 140.899 33.237 141.685 33.47 C 142.465 33.703 143.332 34.003 144.285 34.37 C 145.232 34.737 145.972 35.21 146.505 35.79 C 147.039 36.377 147.555 37.07 148.055 37.87 C 148.955 39.303 149.405 41.343 149.405 43.99 C 149.405 46.643 148.965 48.88 148.085 50.7 C 147.199 52.513 146.022 53.887 144.555 54.82 C 148.389 60.853 150.305 64.687 150.305 66.32 C 150.305 67.953 147.022 68.77 140.455 68.77 C 138.555 68.77 137.239 68.687 136.505 68.52 C 135.772 68.353 135.305 67.987 135.105 67.42 L 131.855 57.12 L 131.005 57.07 Z M 131.005 40.67 L 131.005 49.37 L 132.305 49.37 C 134.239 49.37 135.205 47.87 135.205 44.87 C 135.205 43.337 134.949 42.253 134.435 41.62 C 133.915 40.987 133.322 40.67 132.655 40.67 L 131.005 40.67 ZM 178.646 68.77 L 157.446 68.77 C 155.813 68.77 154.713 68.653 154.146 68.42 C 153.58 68.187 153.296 67.82 153.296 67.32 L 153.296 35.67 C 153.296 34.803 153.69 34.187 154.476 33.82 C 155.256 33.453 156.663 33.27 158.696 33.27 L 178.796 33.27 C 179.496 33.27 179.846 34.43 179.846 36.75 C 179.846 39.063 179.696 40.827 179.396 42.04 C 179.096 43.26 178.696 43.87 178.196 43.87 C 176.03 43.87 172.38 43.653 167.246 43.22 L 167.246 46.57 C 172.18 46.37 175.396 46.27 176.896 46.27 C 177.796 46.27 178.246 47.32 178.246 49.42 C 178.246 51.52 178.073 53.11 177.726 54.19 C 177.373 55.277 176.896 55.82 176.296 55.82 L 167.246 55.62 L 167.246 58.82 C 173.046 58.387 177.046 58.17 179.246 58.17 C 179.946 58.17 180.296 59.337 180.296 61.67 C 180.296 64.003 180.146 65.77 179.846 66.97 C 179.546 68.17 179.146 68.77 178.646 68.77 ZM 183.789 34.27 C 183.789 32.437 184.105 31.227 184.739 30.64 C 185.372 30.06 186.672 29.77 188.639 29.77 C 190.605 29.77 191.965 30.037 192.719 30.57 C 193.465 31.103 193.839 32.337 193.839 34.27 C 193.839 42.703 192.165 46.92 188.819 46.92 C 185.465 46.92 183.789 42.703 183.789 34.27 ZM 223.285 66.67 C 222.285 67.403 220.895 68.01 219.115 68.49 C 217.329 68.977 215.029 69.22 212.215 69.22 C 209.395 69.22 206.719 68.987 204.185 68.52 C 201.652 68.053 199.835 67.537 198.735 66.97 C 197.635 66.403 197.085 65.853 197.085 65.32 C 197.085 63.453 197.352 61.51 197.885 59.49 C 198.419 57.477 199.052 56.47 199.785 56.47 C 199.919 56.47 201.302 56.92 203.935 57.82 C 206.569 58.72 208.552 59.17 209.885 59.17 C 211.219 59.17 212.085 59.027 212.485 58.74 C 212.885 58.46 213.085 58.053 213.085 57.52 C 213.085 56.987 212.719 56.51 211.985 56.09 C 211.252 55.677 210.335 55.31 209.235 54.99 C 208.135 54.677 206.945 54.22 205.665 53.62 C 204.379 53.02 203.185 52.353 202.085 51.62 C 200.985 50.887 200.069 49.843 199.335 48.49 C 198.602 47.143 198.235 45.603 198.235 43.87 C 198.235 36.47 202.652 32.77 211.485 32.77 C 214.785 32.77 217.635 32.977 220.035 33.39 C 222.435 33.81 224.129 34.277 225.115 34.79 C 226.095 35.31 226.585 35.82 226.585 36.32 C 226.585 38.053 226.179 39.92 225.365 41.92 C 224.545 43.92 223.752 44.92 222.985 44.92 C 222.852 44.92 222.419 44.77 221.685 44.47 C 219.485 43.503 217.662 43.02 216.215 43.02 C 214.762 43.02 213.779 43.153 213.265 43.42 C 212.745 43.687 212.485 44.093 212.485 44.64 C 212.485 45.193 212.852 45.643 213.585 45.99 C 214.319 46.343 215.229 46.66 216.315 46.94 C 217.395 47.227 218.579 47.66 219.865 48.24 C 221.145 48.827 222.335 49.51 223.435 50.29 C 224.535 51.077 225.452 52.187 226.185 53.62 C 226.919 55.053 227.285 56.72 227.285 58.62 C 227.285 60.62 226.769 62.437 225.735 64.07 C 225.102 65.07 224.285 65.937 223.285 66.67 ZM 250.474 68.77 C 249.641 68.77 248.434 68.77 246.854 68.77 C 245.267 68.77 244.191 68.653 243.624 68.42 C 243.057 68.187 242.774 67.82 242.774 67.32 L 242.774 35.77 C 242.774 35.003 243.801 34.393 245.854 33.94 C 247.901 33.493 250.091 33.27 252.424 33.27 C 254.757 33.27 256.424 33.57 257.424 34.17 C 258.424 34.77 259.007 35.403 259.174 36.07 L 262.574 49.27 L 263.024 49.27 L 266.224 36.67 C 266.457 35.77 267.551 34.977 269.504 34.29 C 271.451 33.61 273.591 33.27 275.924 33.27 C 278.257 33.27 279.984 33.453 281.104 33.82 C 282.217 34.187 282.774 34.653 282.774 35.22 L 282.774 67.32 C 282.774 67.753 281.824 68.103 279.924 68.37 C 278.024 68.637 275.707 68.77 272.974 68.77 C 270.241 68.77 268.874 68.287 268.874 67.32 C 268.874 64.687 269.157 60.003 269.724 53.27 L 269.274 53.27 L 266.674 66.32 C 266.574 66.82 266.167 67.187 265.454 67.42 C 264.734 67.653 263.657 67.77 262.224 67.77 C 260.791 67.77 259.914 67.67 259.594 67.47 C 259.281 67.27 259.074 66.887 258.974 66.32 L 256.274 53.27 L 255.824 53.27 C 256.424 60.137 256.724 64.82 256.724 67.32 C 256.724 68.187 254.641 68.67 250.474 68.77 ZM 309.613 67.32 C 309.613 67.753 308.596 68.103 306.563 68.37 C 304.53 68.637 302.506 68.77 300.493 68.77 C 298.473 68.77 297.163 68.66 296.563 68.44 C 295.963 68.227 295.663 67.853 295.663 67.32 L 295.663 58.62 C 289.063 45.12 285.763 37.787 285.763 36.62 C 285.763 35.92 286.88 35.187 289.113 34.42 C 291.346 33.653 293.696 33.27 296.163 33.27 C 299.33 33.27 301.013 34.203 301.213 36.07 L 302.563 49.52 L 303.113 49.52 L 304.063 36.42 C 304.13 35.487 305.313 34.727 307.613 34.14 C 309.913 33.56 312.096 33.27 314.163 33.27 C 316.23 33.27 317.663 33.57 318.463 34.17 C 319.263 34.77 319.663 35.403 319.663 36.07 C 319.663 36.703 316.313 44.22 309.613 58.62 L 309.613 67.32 Z" transform="matrix(1, 0, 0, 1, 0, 0)" style="fill: rgb(246, 246, 246); white-space: pre;"/>
      <g transform="matrix(1, 0, 0, 1, 18.533457, 0.13175)">
        <path d="M 132.237 140.572 L 132.237 156.272 C 132.237 157.172 130.137 157.895 125.937 158.442 C 121.737 158.995 117.537 159.272 113.337 159.272 C 109.13 159.272 106.444 159.032 105.277 158.552 C 104.104 158.065 103.517 157.305 103.517 156.272 L 103.517 89.852 C 103.517 86.545 113.434 84.892 133.267 84.892 C 145.254 84.892 153.174 85.719 157.027 87.372 C 161.714 89.305 164.88 91.922 166.527 95.222 C 168.734 99.495 169.837 104.972 169.837 111.652 C 169.837 120.812 168.254 127.459 165.087 131.592 C 162.814 134.619 160.54 136.579 158.267 137.472 C 155.994 138.372 154.117 139.009 152.637 139.382 C 151.157 139.762 149.314 140.055 147.107 140.262 C 144.08 140.542 139.95 140.682 134.717 140.682 L 132.237 140.572 Z M 132.337 102.252 L 132.337 123.422 L 134.817 123.422 C 136.124 123.422 137.157 123.235 137.917 122.862 C 138.677 122.482 139.35 121.449 139.937 119.762 C 140.517 118.075 140.807 115.699 140.807 112.632 C 140.807 109.565 140.48 107.225 139.827 105.612 C 139.174 103.992 138.52 103.025 137.867 102.712 C 137.214 102.405 136.44 102.252 135.547 102.252 L 132.337 102.252 ZM 228.929 159.272 L 185.129 159.272 C 181.749 159.272 179.476 159.032 178.309 158.552 C 177.136 158.065 176.549 157.305 176.549 156.272 L 176.549 90.892 C 176.549 89.099 177.359 87.822 178.979 87.062 C 180.599 86.309 183.509 85.932 187.709 85.932 L 229.239 85.932 C 230.679 85.932 231.399 88.325 231.399 93.112 C 231.399 97.899 231.089 101.549 230.469 104.062 C 229.849 106.575 229.026 107.832 227.999 107.832 C 223.519 107.832 215.976 107.382 205.369 106.482 L 205.369 113.402 C 215.562 112.995 222.209 112.792 225.309 112.792 C 227.169 112.792 228.099 114.959 228.099 119.292 C 228.099 123.632 227.736 126.922 227.009 129.162 C 226.289 131.402 225.309 132.522 224.069 132.522 L 205.369 132.102 L 205.369 138.712 C 217.356 137.819 225.619 137.372 230.159 137.372 C 231.606 137.372 232.329 139.782 232.329 144.602 C 232.329 149.422 232.019 153.072 231.399 155.552 C 230.779 158.032 229.956 159.272 228.929 159.272 ZM 283.461 156.792 C 283.461 157.552 281.344 158.155 277.111 158.602 C 272.877 159.049 268.644 159.272 264.411 159.272 C 260.171 159.272 257.484 159.082 256.351 158.702 C 255.211 158.322 254.641 157.685 254.641 156.792 L 254.641 112.372 L 240.291 112.372 C 239.531 112.372 238.874 111.409 238.321 109.482 C 237.774 107.555 237.501 104.679 237.501 100.852 C 237.501 97.032 237.914 93.589 238.741 90.522 C 239.567 87.462 240.667 85.932 242.041 85.932 L 297.931 85.932 C 298.964 85.932 299.667 86.895 300.041 88.822 C 300.421 90.749 300.611 93.539 300.611 97.192 C 300.611 100.839 300.234 104.282 299.481 107.522 C 298.721 110.755 297.687 112.372 296.381 112.372 L 283.461 112.372 L 283.461 156.792 Z" transform="matrix(1, 0, 0, 1, 0, 0)" style="fill: rgb(255, 132, 0); white-space: pre;"/>
        <ellipse style="fill: rgb(216, 216, 216);" cx="65.31" cy="157.619" rx="10.847" ry="2.367"/>
        <g transform="matrix(0.674582, -0.000001, 0.000001, 0.674582, -4.918539, -34.124229)" style="">
          <title>location_mark</title>
          <g>
            <title>mark</title>
            <circle style="fill: rgb(244, 52, 113);" cx="101.101" cy="207.38" r="33.908" transform="matrix(1.083187, 0, 0, 1, -5.589594, 0)"/>
            <path d="M -109.185 -279.568 Q -104.199 -289.716 -99.214 -279.568 L -71.418 -222.983 Q -66.433 -212.835 -76.403 -212.835 L -131.996 -212.835 Q -141.966 -212.835 -136.981 -222.983 Z" style="fill: rgb(244, 52, 113);" transform="matrix(-1, 0, 0, -1, 0, 0)"/>
          </g>
          <g transform="matrix(2.675844, 0, 0, 2.675844, -382.80896, -454.501953)" style="">
            <title>mark heart</title>
            <path style="fill: rgb(246, 246, 246);" d="M 182.166 245.257 C 182.487 242.908 183.633 241.421 185.84 241.488 C 188.426 241.566 189.973 243.532 189.746 246.511 C 189.485 249.944 186.716 252.416 182.202 253.946"/>
            <path style="fill: rgb(246, 246, 246);" d="M 174.951 250.621 C 175.272 252.97 176.53 254.569 178.737 254.502 C 181.323 254.424 183.199 252.501 182.972 249.522 C 182.711 246.089 179.468 243.446 174.954 241.916" transform="matrix(-1, 0, 0, -1, 357.174469, 495.863785)"/>
            <rect x="181.433" y="245.172" width="1.585" height="8.636" style="fill: rgb(246, 246, 246);" rx="0.793" ry="0.793"/>
          </g>
          <g transform="matrix(0.611284, -0.021347, 0.021347, 0.611284, 2.187052, -36.613403)" style="">
            <title>mark paw</title>
            <ellipse style="fill: rgb(246, 246, 246);" cx="153.17" cy="417.568" rx="23.134" ry="14.747"/>
            <ellipse style="fill: rgb(246, 246, 246);" cx="153.17" cy="417.568" rx="15.423" ry="14.747" transform="matrix(0, 1, -1, 0, 571.235596, 256.893311)"/>
            <ellipse style="fill: rgb(246, 246, 246);" cx="153.17" cy="417.568" rx="11.411" ry="9.183" transform="matrix(0.374606, 0.927184, -0.927184, 0.374606, 452.050715, 100.51479)"/>
            <ellipse style="fill: rgb(246, 246, 246);" cx="153.17" cy="417.568" rx="11.411" ry="9.183" transform="matrix(-0.374606, 0.927184, 0.927184, 0.374606, -146.26559, 100.926495)"/>
            <ellipse style="fill: rgb(246, 246, 246);" cx="153.17" cy="417.568" rx="11.411" ry="9.183" transform="matrix(0.156434, 0.987688, -0.987688, 0.156434, 529.198521, 167.33765)"/>
            <ellipse style="fill: rgb(246, 246, 246);" cx="153.17" cy="417.568" rx="11.411" ry="9.183" transform="matrix(-0.156434, 0.987688, 0.987688, 0.156434, -223.35616, 165.844715)"/>
          </g>
        </g>
      </g>
      <g style="">
        <title>p paw</title>
        <rect x="145.927" y="97.538" width="22.797" height="33.205" style="fill: rgb(255, 132, 0);"/>
        <g transform="matrix(0.586863, 0, 0, 0.586863, 66.738098, -124.925919)" style="">
          <ellipse style="fill: rgb(246, 246, 246);" cx="153.17" cy="417.568" rx="23.134" ry="14.747"/>
          <ellipse style="fill: rgb(246, 246, 246);" cx="153.17" cy="417.568" rx="15.423" ry="14.747" transform="matrix(0, 1, -1, 0, 571.235596, 256.893311)"/>
          <ellipse style="fill: rgb(246, 246, 246);" cx="153.17" cy="417.568" rx="11.411" ry="9.183" transform="matrix(0.374606, 0.927184, -0.927184, 0.374606, 452.050715, 100.51479)"/>
          <ellipse style="fill: rgb(246, 246, 246);" cx="153.17" cy="417.568" rx="11.411" ry="9.183" transform="matrix(-0.374606, 0.927184, 0.927184, 0.374606, -146.26559, 100.926495)"/>
          <ellipse style="fill: rgb(246, 246, 246);" cx="153.17" cy="417.568" rx="11.411" ry="9.183" transform="matrix(0.156434, 0.987688, -0.987688, 0.156434, 529.198521, 167.33765)"/>
          <ellipse style="fill: rgb(246, 246, 246);" cx="153.17" cy="417.568" rx="11.411" ry="9.183" transform="matrix(-0.156434, 0.987688, 0.987688, 0.156434, -223.35616, 165.844715)"/>
        </g>
      </g>
    </g>
  </g>
  <g transform="matrix(1, 0, 0, 1, -88.300004, 66.213998)" style="">
    <title>logo medallion</title>
    <circle style="fill: rgb(4, 90, 124);" cx="180.618" cy="98.726" r="92.075"/>
    <g transform="matrix(0.467025, 0, 0, 0.467025, 96.203636, 52.685474)" style="">
      <title>logo</title>
      <path d="M 63.122 67.32 C 63.122 67.753 62.115 68.103 60.102 68.37 C 58.082 68.637 56.049 68.77 54.002 68.77 C 51.949 68.77 50.632 68.653 50.052 68.42 C 49.465 68.187 49.172 67.82 49.172 67.32 L 49.172 36.57 C 49.172 35.737 50.139 34.977 52.072 34.29 C 54.005 33.61 56.105 33.27 58.372 33.27 C 61.539 33.27 63.122 34.02 63.122 35.52 L 63.122 46.52 L 67.572 46.52 L 67.572 36.57 C 67.572 35.737 68.549 34.977 70.502 34.29 C 72.449 33.61 74.555 33.27 76.822 33.27 C 79.955 33.27 81.522 34.02 81.522 35.52 L 81.522 67.32 C 81.522 67.753 80.505 68.103 78.472 68.37 C 76.439 68.637 74.405 68.77 72.372 68.77 C 70.339 68.77 69.032 68.653 68.452 68.42 C 67.865 68.187 67.572 67.82 67.572 67.32 L 67.572 55.87 L 63.122 55.87 L 63.122 67.32 ZM 111.363 68.77 L 90.163 68.77 C 88.53 68.77 87.43 68.653 86.863 68.42 C 86.296 68.187 86.013 67.82 86.013 67.32 L 86.013 35.67 C 86.013 34.803 86.406 34.187 87.193 33.82 C 87.973 33.453 89.38 33.27 91.413 33.27 L 111.513 33.27 C 112.213 33.27 112.563 34.43 112.563 36.75 C 112.563 39.063 112.413 40.827 112.113 42.04 C 111.813 43.26 111.413 43.87 110.913 43.87 C 108.746 43.87 105.096 43.653 99.963 43.22 L 99.963 46.57 C 104.896 46.37 108.113 46.27 109.613 46.27 C 110.513 46.27 110.963 47.32 110.963 49.42 C 110.963 51.52 110.79 53.11 110.443 54.19 C 110.09 55.277 109.613 55.82 109.013 55.82 L 99.963 55.62 L 99.963 58.82 C 105.763 58.387 109.763 58.17 111.963 58.17 C 112.663 58.17 113.013 59.337 113.013 61.67 C 113.013 64.003 112.863 65.77 112.563 66.97 C 112.263 68.17 111.863 68.77 111.363 68.77 ZM 131.005 57.07 L 131.005 67.32 C 131.005 67.753 129.989 68.103 127.955 68.37 C 125.922 68.637 123.882 68.77 121.835 68.77 C 119.782 68.77 118.465 68.653 117.885 68.42 C 117.299 68.187 117.005 67.82 117.005 67.32 L 117.005 35.17 C 117.005 34.303 118.099 33.687 120.285 33.32 C 122.465 32.953 125.222 32.77 128.555 32.77 C 131.889 32.77 134.049 32.777 135.035 32.79 C 136.015 32.81 137.172 32.87 138.505 32.97 C 139.839 33.07 140.899 33.237 141.685 33.47 C 142.465 33.703 143.332 34.003 144.285 34.37 C 145.232 34.737 145.972 35.21 146.505 35.79 C 147.039 36.377 147.555 37.07 148.055 37.87 C 148.955 39.303 149.405 41.343 149.405 43.99 C 149.405 46.643 148.965 48.88 148.085 50.7 C 147.199 52.513 146.022 53.887 144.555 54.82 C 148.389 60.853 150.305 64.687 150.305 66.32 C 150.305 67.953 147.022 68.77 140.455 68.77 C 138.555 68.77 137.239 68.687 136.505 68.52 C 135.772 68.353 135.305 67.987 135.105 67.42 L 131.855 57.12 L 131.005 57.07 Z M 131.005 40.67 L 131.005 49.37 L 132.305 49.37 C 134.239 49.37 135.205 47.87 135.205 44.87 C 135.205 43.337 134.949 42.253 134.435 41.62 C 133.915 40.987 133.322 40.67 132.655 40.67 L 131.005 40.67 ZM 178.646 68.77 L 157.446 68.77 C 155.813 68.77 154.713 68.653 154.146 68.42 C 153.58 68.187 153.296 67.82 153.296 67.32 L 153.296 35.67 C 153.296 34.803 153.69 34.187 154.476 33.82 C 155.256 33.453 156.663 33.27 158.696 33.27 L 178.796 33.27 C 179.496 33.27 179.846 34.43 179.846 36.75 C 179.846 39.063 179.696 40.827 179.396 42.04 C 179.096 43.26 178.696 43.87 178.196 43.87 C 176.03 43.87 172.38 43.653 167.246 43.22 L 167.246 46.57 C 172.18 46.37 175.396 46.27 176.896 46.27 C 177.796 46.27 178.246 47.32 178.246 49.42 C 178.246 51.52 178.073 53.11 177.726 54.19 C 177.373 55.277 176.896 55.82 176.296 55.82 L 167.246 55.62 L 167.246 58.82 C 173.046 58.387 177.046 58.17 179.246 58.17 C 179.946 58.17 180.296 59.337 180.296 61.67 C 180.296 64.003 180.146 65.77 179.846 66.97 C 179.546 68.17 179.146 68.77 178.646 68.77 ZM 183.789 34.27 C 183.789 32.437 184.105 31.227 184.739 30.64 C 185.372 30.06 186.672 29.77 188.639 29.77 C 190.605 29.77 191.965 30.037 192.719 30.57 C 193.465 31.103 193.839 32.337 193.839 34.27 C 193.839 42.703 192.165 46.92 188.819 46.92 C 185.465 46.92 183.789 42.703 183.789 34.27 ZM 223.285 66.67 C 222.285 67.403 220.895 68.01 219.115 68.49 C 217.329 68.977 215.029 69.22 212.215 69.22 C 209.395 69.22 206.719 68.987 204.185 68.52 C 201.652 68.053 199.835 67.537 198.735 66.97 C 197.635 66.403 197.085 65.853 197.085 65.32 C 197.085 63.453 197.352 61.51 197.885 59.49 C 198.419 57.477 199.052 56.47 199.785 56.47 C 199.919 56.47 201.302 56.92 203.935 57.82 C 206.569 58.72 208.552 59.17 209.885 59.17 C 211.219 59.17 212.085 59.027 212.485 58.74 C 212.885 58.46 213.085 58.053 213.085 57.52 C 213.085 56.987 212.719 56.51 211.985 56.09 C 211.252 55.677 210.335 55.31 209.235 54.99 C 208.135 54.677 206.945 54.22 205.665 53.62 C 204.379 53.02 203.185 52.353 202.085 51.62 C 200.985 50.887 200.069 49.843 199.335 48.49 C 198.602 47.143 198.235 45.603 198.235 43.87 C 198.235 36.47 202.652 32.77 211.485 32.77 C 214.785 32.77 217.635 32.977 220.035 33.39 C 222.435 33.81 224.129 34.277 225.115 34.79 C 226.095 35.31 226.585 35.82 226.585 36.32 C 226.585 38.053 226.179 39.92 225.365 41.92 C 224.545 43.92 223.752 44.92 222.985 44.92 C 222.852 44.92 222.419 44.77 221.685 44.47 C 219.485 43.503 217.662 43.02 216.215 43.02 C 214.762 43.02 213.779 43.153 213.265 43.42 C 212.745 43.687 212.485 44.093 212.485 44.64 C 212.485 45.193 212.852 45.643 213.585 45.99 C 214.319 46.343 215.229 46.66 216.315 46.94 C 217.395 47.227 218.579 47.66 219.865 48.24 C 221.145 48.827 222.335 49.51 223.435 50.29 C 224.535 51.077 225.452 52.187 226.185 53.62 C 226.919 55.053 227.285 56.72 227.285 58.62 C 227.285 60.62 226.769 62.437 225.735 64.07 C 225.102 65.07 224.285 65.937 223.285 66.67 ZM 250.474 68.77 C 249.641 68.77 248.434 68.77 246.854 68.77 C 245.267 68.77 244.191 68.653 243.624 68.42 C 243.057 68.187 242.774 67.82 242.774 67.32 L 242.774 35.77 C 242.774 35.003 243.801 34.393 245.854 33.94 C 247.901 33.493 250.091 33.27 252.424 33.27 C 254.757 33.27 256.424 33.57 257.424 34.17 C 258.424 34.77 259.007 35.403 259.174 36.07 L 262.574 49.27 L 263.024 49.27 L 266.224 36.67 C 266.457 35.77 267.551 34.977 269.504 34.29 C 271.451 33.61 273.591 33.27 275.924 33.27 C 278.257 33.27 279.984 33.453 281.104 33.82 C 282.217 34.187 282.774 34.653 282.774 35.22 L 282.774 67.32 C 282.774 67.753 281.824 68.103 279.924 68.37 C 278.024 68.637 275.707 68.77 272.974 68.77 C 270.241 68.77 268.874 68.287 268.874 67.32 C 268.874 64.687 269.157 60.003 269.724 53.27 L 269.274 53.27 L 266.674 66.32 C 266.574 66.82 266.167 67.187 265.454 67.42 C 264.734 67.653 263.657 67.77 262.224 67.77 C 260.791 67.77 259.914 67.67 259.594 67.47 C 259.281 67.27 259.074 66.887 258.974 66.32 L 256.274 53.27 L 255.824 53.27 C 256.424 60.137 256.724 64.82 256.724 67.32 C 256.724 68.187 254.641 68.67 250.474 68.77 ZM 309.613 67.32 C 309.613 67.753 308.596 68.103 306.563 68.37 C 304.53 68.637 302.506 68.77 300.493 68.77 C 298.473 68.77 297.163 68.66 296.563 68.44 C 295.963 68.227 295.663 67.853 295.663 67.32 L 295.663 58.62 C 289.063 45.12 285.763 37.787 285.763 36.62 C 285.763 35.92 286.88 35.187 289.113 34.42 C 291.346 33.653 293.696 33.27 296.163 33.27 C 299.33 33.27 301.013 34.203 301.213 36.07 L 302.563 49.52 L 303.113 49.52 L 304.063 36.42 C 304.13 35.487 305.313 34.727 307.613 34.14 C 309.913 33.56 312.096 33.27 314.163 33.27 C 316.23 33.27 317.663 33.57 318.463 34.17 C 319.263 34.77 319.663 35.403 319.663 36.07 C 319.663 36.703 316.313 44.22 309.613 58.62 L 309.613 67.32 Z" transform="matrix(1, 0, 0, 1, 0, 0)" style="fill: rgb(246, 246, 246); white-space: pre;"/>
      <g transform="matrix(1, 0, 0, 1, 18.533457, 0.13175)">
        <path d="M 132.237 140.572 L 132.237 156.272 C 132.237 157.172 130.137 157.895 125.937 158.442 C 121.737 158.995 117.537 159.272 113.337 159.272 C 109.13 159.272 106.444 159.032 105.277 158.552 C 104.104 158.065 103.517 157.305 103.517 156.272 L 103.517 89.852 C 103.517 86.545 113.434 84.892 133.267 84.892 C 145.254 84.892 153.174 85.719 157.027 87.372 C 161.714 89.305 164.88 91.922 166.527 95.222 C 168.734 99.495 169.837 104.972 169.837 111.652 C 169.837 120.812 168.254 127.459 165.087 131.592 C 162.814 134.619 160.54 136.579 158.267 137.472 C 155.994 138.372 154.117 139.009 152.637 139.382 C 151.157 139.762 149.314 140.055 147.107 140.262 C 144.08 140.542 139.95 140.682 134.717 140.682 L 132.237 140.572 Z M 132.337 102.252 L 132.337 123.422 L 134.817 123.422 C 136.124 123.422 137.157 123.235 137.917 122.862 C 138.677 122.482 139.35 121.449 139.937 119.762 C 140.517 118.075 140.807 115.699 140.807 112.632 C 140.807 109.565 140.48 107.225 139.827 105.612 C 139.174 103.992 138.52 103.025 137.867 102.712 C 137.214 102.405 136.44 102.252 135.547 102.252 L 132.337 102.252 ZM 228.929 159.272 L 185.129 159.272 C 181.749 159.272 179.476 159.032 178.309 158.552 C 177.136 158.065 176.549 157.305 176.549 156.272 L 176.549 90.892 C 176.549 89.099 177.359 87.822 178.979 87.062 C 180.599 86.309 183.509 85.932 187.709 85.932 L 229.239 85.932 C 230.679 85.932 231.399 88.325 231.399 93.112 C 231.399 97.899 231.089 101.549 230.469 104.062 C 229.849 106.575 229.026 107.832 227.999 107.832 C 223.519 107.832 215.976 107.382 205.369 106.482 L 205.369 113.402 C 215.562 112.995 222.209 112.792 225.309 112.792 C 227.169 112.792 228.099 114.959 228.099 119.292 C 228.099 123.632 227.736 126.922 227.009 129.162 C 226.289 131.402 225.309 132.522 224.069 132.522 L 205.369 132.102 L 205.369 138.712 C 217.356 137.819 225.619 137.372 230.159 137.372 C 231.606 137.372 232.329 139.782 232.329 144.602 C 232.329 149.422 232.019 153.072 231.399 155.552 C 230.779 158.032 229.956 159.272 228.929 159.272 ZM 283.461 156.792 C 283.461 157.552 281.344 158.155 277.111 158.602 C 272.877 159.049 268.644 159.272 264.411 159.272 C 260.171 159.272 257.484 159.082 256.351 158.702 C 255.211 158.322 254.641 157.685 254.641 156.792 L 254.641 112.372 L 240.291 112.372 C 239.531 112.372 238.874 111.409 238.321 109.482 C 237.774 107.555 237.501 104.679 237.501 100.852 C 237.501 97.032 237.914 93.589 238.741 90.522 C 239.567 87.462 240.667 85.932 242.041 85.932 L 297.931 85.932 C 298.964 85.932 299.667 86.895 300.041 88.822 C 300.421 90.749 300.611 93.539 300.611 97.192 C 300.611 100.839 300.234 104.282 299.481 107.522 C 298.721 110.755 297.687 112.372 296.381 112.372 L 283.461 112.372 L 283.461 156.792 Z" transform="matrix(1, 0, 0, 1, 0, 0)" style="fill: rgb(255, 132, 0); white-space: pre;"/>
        <ellipse style="fill: rgb(216, 216, 216);" cx="65.31" cy="157.619" rx="10.847" ry="2.367"/>
        <g transform="matrix(0.674582, -0.000001, 0.000001, 0.674582, -4.918539, -34.124229)" style="">
          <title>location_mark</title>
          <g>
            <title>mark</title>
            <circle style="fill: rgb(244, 52, 113);" cx="101.101" cy="207.38" r="33.908" transform="matrix(1.083187, 0, 0, 1, -5.589594, 0)"/>
            <path d="M -109.185 -279.568 Q -104.199 -289.716 -99.214 -279.568 L -71.418 -222.983 Q -66.433 -212.835 -76.403 -212.835 L -131.996 -212.835 Q -141.966 -212.835 -136.981 -222.983 Z" style="fill: rgb(244, 52, 113);" transform="matrix(-1, 0, 0, -1, 0, 0)"/>
          </g>
          <g transform="matrix(2.675844, 0, 0, 2.675844, -382.80896, -454.501953)" style="">
            <title>mark heart</title>
            <path style="fill: rgb(246, 246, 246);" d="M 182.166 245.257 C 182.487 242.908 183.633 241.421 185.84 241.488 C 188.426 241.566 189.973 243.532 189.746 246.511 C 189.485 249.944 186.716 252.416 182.202 253.946"/>
            <path style="fill: rgb(246, 246, 246);" d="M 174.951 250.621 C 175.272 252.97 176.53 254.569 178.737 254.502 C 181.323 254.424 183.199 252.501 182.972 249.522 C 182.711 246.089 179.468 243.446 174.954 241.916" transform="matrix(-1, 0, 0, -1, 357.174469, 495.863785)"/>
            <rect x="181.433" y="245.172" width="1.585" height="8.636" style="fill: rgb(246, 246, 246);" rx="0.793" ry="0.793"/>
          </g>
          <g transform="matrix(0.611284, -0.021347, 0.021347, 0.611284, 2.187052, -36.613403)" style="">
            <title>mark paw</title>
            <ellipse style="fill: rgb(246, 246, 246);" cx="153.17" cy="417.568" rx="23.134" ry="14.747"/>
            <ellipse style="fill: rgb(246, 246, 246);" cx="153.17" cy="417.568" rx="15.423" ry="14.747" transform="matrix(0, 1, -1, 0, 571.235596, 256.893311)"/>
            <ellipse style="fill: rgb(246, 246, 246);" cx="153.17" cy="417.568" rx="11.411" ry="9.183" transform="matrix(0.374606, 0.927184, -0.927184, 0.374606, 452.050715, 100.51479)"/>
            <ellipse style="fill: rgb(246, 246, 246);" cx="153.17" cy="417.568" rx="11.411" ry="9.183" transform="matrix(-0.374606, 0.927184, 0.927184, 0.374606, -146.26559, 100.926495)"/>
            <ellipse style="fill: rgb(246, 246, 246);" cx="153.17" cy="417.568" rx="11.411" ry="9.183" transform="matrix(0.156434, 0.987688, -0.987688, 0.156434, 529.198521, 167.33765)"/>
            <ellipse style="fill: rgb(246, 246, 246);" cx="153.17" cy="417.568" rx="11.411" ry="9.183" transform="matrix(-0.156434, 0.987688, 0.987688, 0.156434, -223.35616, 165.844715)"/>
          </g>
        </g>
      </g>
      <g style="visibility: hidden;">
        <title>p paw</title>
        <rect x="145.927" y="97.538" width="22.797" height="33.205" style="fill: rgb(255, 132, 0);"/>
        <g transform="matrix(0.586863, 0, 0, 0.586863, 66.738098, -124.925919)" style="">
          <ellipse style="fill: rgb(246, 246, 246);" cx="153.17" cy="417.568" rx="23.134" ry="14.747"/>
          <ellipse style="fill: rgb(246, 246, 246);" cx="153.17" cy="417.568" rx="15.423" ry="14.747" transform="matrix(0, 1, -1, 0, 571.235596, 256.893311)"/>
          <ellipse style="fill: rgb(246, 246, 246);" cx="153.17" cy="417.568" rx="11.411" ry="9.183" transform="matrix(0.374606, 0.927184, -0.927184, 0.374606, 452.050715, 100.51479)"/>
          <ellipse style="fill: rgb(246, 246, 246);" cx="153.17" cy="417.568" rx="11.411" ry="9.183" transform="matrix(-0.374606, 0.927184, 0.927184, 0.374606, -146.26559, 100.926495)"/>
          <ellipse style="fill: rgb(246, 246, 246);" cx="153.17" cy="417.568" rx="11.411" ry="9.183" transform="matrix(0.156434, 0.987688, -0.987688, 0.156434, 529.198521, 167.33765)"/>
          <ellipse style="fill: rgb(246, 246, 246);" cx="153.17" cy="417.568" rx="11.411" ry="9.183" transform="matrix(-0.156434, 0.987688, 0.987688, 0.156434, -223.35616, 165.844715)"/>
        </g>
      </g>
    </g>
  </g>
</svg>