<?xml version="1.0" encoding="utf-8"?>
<svg viewBox="0 0 352.384 297.929" xmlns="http://www.w3.org/2000/svg">
  <defs>
    <linearGradient id="paint0_linear_87_652" x1="50.4417" y1="69.1916" x2="110.68" y2="78.9544" gradientUnits="userSpaceOnUse">
      <stop stop-color="#808080" stop-opacity="0.25"/>
      <stop offset="0.54" stop-color="#808080" stop-opacity="0.12"/>
      <stop offset="1" stop-color="#808080" stop-opacity="0.1"/>
    </linearGradient>
  </defs>
  <g transform="matrix(1, 0, 0, 1, -2.780999, -16.765503)">
    <path opacity="0.1" d="M 254.589 212.886 C 253.172 213.614 251.688 214.243 250.226 214.86 C 244.816 217.135 239.323 219.434 233.514 220.216 C 222.597 221.674 211.335 217.706 200.611 220.182 C 191.628 222.249 184.199 228.584 175.423 231.405 C 171.343 232.716 167.097 233.23 162.814 233.23 L 162.261 233.23 C 161.733 233.23 161.208 233.21 160.681 233.19 C 156.338 233.028 151.977 232.397 147.719 231.569 C 134.276 228.99 120.594 224.263 110.316 215.56 C 140.242 210.106 201.888 201.739 254.589 212.886 Z" fill="#252223"/>
    <path opacity="0.3" d="M 265.02 147.628 L 265.02 134.931 L 257.46 134.931 L 257.46 147.628 L 248.507 147.628 L 248.507 127.988 L 241.942 127.988 L 241.942 113.307 L 236.57 113.307 L 236.57 98.23 L 225.429 98.23 L 225.429 113.307 L 220.057 113.307 L 220.057 127.988 L 213.69 127.988 L 213.69 110.331 L 210.109 110.331 L 210.109 101.404 L 207.921 101.404 L 207.921 110.331 L 195.188 110.331 L 195.188 166.672 L 185.439 166.672 L 185.439 160.721 L 179.47 160.721 L 179.47 166.672 L 169.721 166.672 L 169.721 147.628 L 152.213 147.628 L 152.213 134.931 L 144.653 134.931 L 144.653 147.628 L 144.255 147.628 L 144.255 172.029 L 136.297 172.029 L 136.297 157.745 L 126.747 157.745 L 126.747 172.029 L 118.789 172.029 L 118.789 127.988 L 112.622 127.988 L 112.622 113.307 L 89.941 113.307 L 89.941 127.988 L 83.973 127.988 L 83.973 205.555 L 118.789 205.555 L 144.255 205.555 L 169.721 205.555 L 195.188 205.555 L 213.69 205.555 L 248.507 205.555 L 273.973 205.555 L 273.973 147.628 L 265.02 147.628 Z" fill="#FD8B10"/>
    <path opacity="0.4" d="M 96.109 132.55 L 87.753 132.55 L 87.753 137.312 L 96.109 137.312 L 96.109 132.55 Z" fill="white"/>
    <path opacity="0.4" d="M 106.454 137.312 L 114.81 137.312 L 114.81 132.55 L 106.454 132.55 L 106.454 137.312 Z" fill="white"/>
    <path opacity="0.4" d="M 96.109 141.874 L 87.753 141.874 L 87.753 146.636 L 96.109 146.636 L 96.109 141.874 Z" fill="white"/>
    <path opacity="0.4" d="M 106.454 146.636 L 114.81 146.636 L 114.81 141.874 L 106.454 141.874 L 106.454 146.636 Z" fill="white"/>
    <path opacity="0.4" d="M 96.109 151.199 L 87.753 151.199 L 87.753 155.96 L 96.109 155.96 L 96.109 151.199 Z" fill="white"/>
    <path opacity="0.4" d="M 106.454 155.96 L 114.81 155.96 L 114.81 151.198 L 106.454 151.198 L 106.454 155.96 Z" fill="white"/>
    <path opacity="0.4" d="M 96.109 160.523 L 87.753 160.523 L 87.753 165.284 L 96.109 165.284 L 96.109 160.523 Z" fill="white"/>
    <path opacity="0.4" d="M 106.454 165.284 L 114.81 165.284 L 114.81 160.523 L 106.454 160.523 L 106.454 165.284 Z" fill="white"/>
    <path opacity="0.4" d="M 96.109 169.847 L 87.753 169.847 L 87.753 174.608 L 96.109 174.608 L 96.109 169.847 Z" fill="white"/>
    <path opacity="0.4" d="M 106.454 174.608 L 114.81 174.608 L 114.81 169.847 L 106.454 169.847 L 106.454 174.608 Z" fill="white"/>
    <path opacity="0.4" d="M 96.109 179.17 L 87.753 179.17 L 87.753 183.932 L 96.109 183.932 L 96.109 179.17 Z" fill="white"/>
    <path opacity="0.4" d="M 106.454 183.932 L 114.81 183.932 L 114.81 179.171 L 106.454 179.171 L 106.454 183.932 Z" fill="white"/>
    <path opacity="0.4" d="M 96.109 188.494 L 87.753 188.494 L 87.753 193.256 L 96.109 193.256 L 96.109 188.494 Z" fill="white"/>
    <path opacity="0.4" d="M 106.454 193.256 L 114.81 193.256 L 114.81 188.494 L 106.454 188.494 L 106.454 193.256 Z" fill="white"/>
    <path opacity="0.4" d="M 141.271 176.79 L 121.774 176.79 L 121.774 179.17 L 141.271 179.17 L 141.271 176.79 Z" fill="white"/>
    <path opacity="0.4" d="M 141.271 180.361 L 121.774 180.361 L 121.774 182.742 L 141.271 182.742 L 141.271 180.361 Z" fill="white"/>
    <path opacity="0.4" d="M 141.271 183.932 L 121.774 183.932 L 121.774 186.312 L 141.271 186.312 L 141.271 183.932 Z" fill="white"/>
    <path opacity="0.4" d="M 192.203 177.98 L 172.706 177.98 L 172.706 180.361 L 192.203 180.361 L 192.203 177.98 Z" fill="white"/>
    <path opacity="0.4" d="M 192.203 181.551 L 172.706 181.551 L 172.706 183.932 L 192.203 183.932 L 192.203 181.551 Z" fill="white"/>
    <path opacity="0.4" d="M 192.203 185.122 L 172.706 185.122 L 172.706 187.503 L 192.203 187.503 L 192.203 185.122 Z" fill="white"/>
    <path opacity="0.4" d="M 141.271 187.503 L 121.774 187.503 L 121.774 189.883 L 141.271 189.883 L 141.271 187.503 Z" fill="white"/>
    <path opacity="0.4" d="M 141.271 191.074 L 121.774 191.074 L 121.774 193.454 L 141.271 193.454 L 141.271 191.074 Z" fill="white"/>
    <path opacity="0.4" d="M 141.271 194.644 L 121.774 194.644 L 121.774 197.025 L 141.271 197.025 L 141.271 194.644 Z" fill="white"/>
    <path opacity="0.4" d="M 153.805 152.19 L 148.433 152.19 L 148.433 159.134 L 153.805 159.134 L 153.805 152.19 Z" fill="white"/>
    <path opacity="0.4" d="M 160.172 159.134 L 165.543 159.134 L 165.543 152.19 L 160.172 152.19 L 160.172 159.134 Z" fill="white"/>
    <path opacity="0.4" d="M 153.805 163.3 L 148.433 163.3 L 148.433 170.243 L 153.805 170.243 L 153.805 163.3 Z" fill="white"/>
    <path opacity="0.4" d="M 160.172 170.243 L 165.543 170.243 L 165.543 163.3 L 160.172 163.3 L 160.172 170.243 Z" fill="white"/>
    <path opacity="0.4" d="M 153.805 174.409 L 148.433 174.409 L 148.433 181.353 L 153.805 181.353 L 153.805 174.409 Z" fill="white"/>
    <path opacity="0.4" d="M 160.172 181.353 L 165.543 181.353 L 165.543 174.409 L 160.172 174.409 L 160.172 181.353 Z" fill="white"/>
    <path opacity="0.4" d="M 153.805 185.519 L 148.433 185.519 L 148.433 192.462 L 153.805 192.462 L 153.805 185.519 Z" fill="white"/>
    <path opacity="0.4" d="M 160.172 192.462 L 165.543 192.462 L 165.543 185.519 L 160.172 185.519 L 160.172 192.462 Z" fill="white"/>
    <path opacity="0.4" d="M 202.35 114.894 L 195.188 114.894 L 195.188 124.02 L 202.35 124.02 L 202.35 114.894 Z" fill="white"/>
    <path opacity="0.4" d="M 202.35 127.988 L 195.188 127.988 L 195.188 137.113 L 202.35 137.113 L 202.35 127.988 Z" fill="white"/>
    <path opacity="0.4" d="M 202.35 141.081 L 195.188 141.081 L 195.188 150.207 L 202.35 150.207 L 202.35 141.081 Z" fill="white"/>
    <path opacity="0.4" d="M 202.35 154.174 L 195.188 154.174 L 195.188 163.3 L 202.35 163.3 L 202.35 154.174 Z" fill="white"/>
    <path opacity="0.4" d="M 202.35 167.268 L 195.188 167.268 L 195.188 176.393 L 202.35 176.393 L 202.35 167.268 Z" fill="white"/>
    <path opacity="0.4" d="M 202.35 180.361 L 195.188 180.361 L 195.188 189.487 L 202.35 189.487 L 202.35 180.361 Z" fill="white"/>
    <path opacity="0.4" d="M 244.429 133.542 L 217.769 133.542 L 217.769 141.279 L 244.429 141.279 L 244.429 133.542 Z" fill="white"/>
    <path opacity="0.4" d="M 244.528 150.207 L 217.868 150.207 L 217.868 157.944 L 244.528 157.944 L 244.528 150.207 Z" fill="white"/>
    <path opacity="0.4" d="M 244.627 166.871 L 217.968 166.871 L 217.968 174.608 L 244.627 174.608 L 244.627 166.871 Z" fill="white"/>
    <path opacity="0.4" d="M 244.727 183.535 L 218.067 183.535 L 218.067 191.272 L 244.727 191.272 L 244.727 183.535 Z" fill="white"/>
    <path opacity="0.4" d="M 93.522 117.473 L 89.941 117.473 L 89.941 125.012 L 93.522 125.012 L 93.522 117.473 Z" fill="white"/>
    <path opacity="0.4" d="M 273.973 152.19 L 265.02 152.19 L 265.02 163.696 L 273.973 163.696 L 273.973 152.19 Z" fill="white"/>
    <path opacity="0.4" d="M 273.973 168.855 L 265.02 168.855 L 265.02 180.361 L 273.973 180.361 L 273.973 168.855 Z" fill="white"/>
    <path opacity="0.4" d="M 273.973 185.519 L 265.02 185.519 L 265.02 197.025 L 273.973 197.025 L 273.973 185.519 Z" fill="white"/>
    <path d="M 93.855 193.365 C 93.855 193.365 78.191 202.788 107.065 217.296 C 107.065 217.296 113.432 205.52 106.393 195.918 C 105.027 194.046 103.021 192.738 100.753 192.243 C 98.486 191.747 96.115 192.099 94.089 193.23 L 93.855 193.365 Z" fill="#FD8B10"/>
    <path d="M 94.036 193.167 C 94.036 193.167 107.439 203.393 107.065 217.296" stroke="#535461" stroke-miterlimit="10"/>
    <path d="M 107.793 217.831 C 107.793 217.831 102.885 201.215 108.714 188.985 C 111.159 183.852 111.971 178.089 110.841 172.519 C 110.301 169.874 109.519 167.284 108.503 164.782" stroke="#535461" stroke-width="2" stroke-miterlimit="10"/>
    <path d="M 112.124 157.063 C 112.124 159.098 108.428 164.998 108.428 164.998 C 108.428 164.998 104.729 159.092 104.729 157.063 C 104.718 156.571 104.805 156.083 104.986 155.625 C 105.166 155.168 105.437 154.751 105.781 154.4 C 106.126 154.048 106.537 153.769 106.992 153.578 C 107.446 153.387 107.934 153.289 108.427 153.289 C 108.92 153.289 109.408 153.387 109.862 153.578 C 110.316 153.769 110.728 154.048 111.072 154.4 C 111.417 154.751 111.687 155.168 111.868 155.625 C 112.049 156.083 112.136 156.571 112.124 157.063 Z" fill="#FD8B10"/>
    <path d="M 118.244 168.343 C 117.134 170.053 110.811 173.005 110.811 173.005 C 110.811 173.005 110.925 166.044 112.035 164.335 C 112.574 163.529 113.41 162.966 114.362 162.769 C 115.314 162.573 116.306 162.758 117.122 163.285 C 117.938 163.811 118.514 164.638 118.724 165.584 C 118.934 166.531 118.762 167.522 118.244 168.343 Z" fill="#FD8B10"/>
    <path d="M 117.976 187.62 C 116.153 188.536 109.2 187.901 109.2 187.901 C 109.2 187.901 112.823 181.95 114.647 181.033 C 115.521 180.608 116.529 180.543 117.45 180.852 C 118.372 181.162 119.135 181.822 119.573 182.688 C 120.01 183.554 120.088 184.558 119.789 185.481 C 119.49 186.404 118.839 187.172 117.976 187.62 Z" fill="#FD8B10"/>
    <path d="M 114.48 202.159 C 112.839 203.369 105.879 203.917 105.879 203.917 C 105.879 203.917 108.44 197.44 110.083 196.23 C 110.873 195.671 111.851 195.443 112.807 195.596 C 113.763 195.748 114.622 196.268 115.197 197.045 C 115.773 197.821 116.02 198.792 115.886 199.748 C 115.752 200.704 115.247 201.57 114.48 202.159 Z" fill="#FD8B10"/>
    <path d="M 103.046 173.4 C 104.51 174.818 111.337 176.288 111.337 176.288 C 111.337 176.288 109.665 169.529 108.199 168.111 C 107.851 167.773 107.439 167.508 106.988 167.329 C 106.537 167.15 106.055 167.062 105.569 167.069 C 105.084 167.076 104.604 167.178 104.158 167.37 C 103.713 167.561 103.309 167.839 102.971 168.186 C 102.632 168.533 102.366 168.944 102.186 169.394 C 102.007 169.844 101.918 170.324 101.926 170.808 C 101.933 171.293 102.035 171.771 102.227 172.215 C 102.42 172.66 102.698 173.062 103.046 173.4 Z" fill="#FD8B10"/>
    <path d="M 99.175 190.455 C 100.997 191.373 107.95 190.738 107.95 190.738 C 107.95 190.738 104.327 184.787 102.505 183.87 C 102.07 183.641 101.594 183.5 101.104 183.456 C 100.614 183.412 100.12 183.467 99.652 183.615 C 99.183 183.764 98.749 184.005 98.374 184.323 C 98 184.641 97.693 185.031 97.472 185.469 C 97.25 185.907 97.119 186.384 97.084 186.873 C 97.05 187.363 97.114 187.854 97.273 188.318 C 97.431 188.783 97.681 189.211 98.008 189.578 C 98.334 189.944 98.731 190.243 99.175 190.455 Z" fill="#FD8B10"/>
    <path d="M 97.692 207.547 C 99.334 208.758 106.295 209.305 106.295 209.305 C 106.295 209.305 103.733 202.828 102.089 201.618 C 101.299 201.059 100.321 200.831 99.365 200.984 C 98.409 201.136 97.551 201.657 96.975 202.433 C 96.399 203.209 96.152 204.18 96.286 205.136 C 96.42 206.093 96.925 206.958 97.692 207.547 Z" fill="#FD8B10"/>
    <path opacity="0.25" d="M 112.124 157.063 C 112.124 159.098 108.428 164.998 108.428 164.998 C 108.428 164.998 104.729 159.092 104.729 157.063 C 104.718 156.571 104.805 156.083 104.986 155.625 C 105.166 155.168 105.437 154.751 105.781 154.4 C 106.126 154.048 106.537 153.769 106.992 153.578 C 107.446 153.387 107.934 153.289 108.427 153.289 C 108.92 153.289 109.408 153.387 109.862 153.578 C 110.316 153.769 110.728 154.048 111.072 154.4 C 111.417 154.751 111.687 155.168 111.868 155.625 C 112.049 156.083 112.136 156.571 112.124 157.063 Z" fill="black"/>
    <path opacity="0.25" d="M 118.244 168.343 C 117.134 170.053 110.811 173.005 110.811 173.005 C 110.811 173.005 110.925 166.044 112.035 164.335 C 112.574 163.529 113.41 162.966 114.362 162.769 C 115.314 162.573 116.306 162.758 117.122 163.285 C 117.938 163.811 118.514 164.638 118.724 165.584 C 118.934 166.531 118.762 167.522 118.244 168.343 Z" fill="black"/>
    <path opacity="0.25" d="M 117.976 187.62 C 116.153 188.536 109.2 187.901 109.2 187.901 C 109.2 187.901 112.823 181.95 114.647 181.033 C 115.521 180.608 116.529 180.543 117.45 180.852 C 118.372 181.162 119.135 181.822 119.573 182.688 C 120.01 183.554 120.088 184.558 119.789 185.481 C 119.49 186.404 118.839 187.172 117.976 187.62 Z" fill="black"/>
    <path opacity="0.25" d="M 114.48 202.159 C 112.839 203.369 105.879 203.917 105.879 203.917 C 105.879 203.917 108.44 197.44 110.083 196.23 C 110.873 195.671 111.851 195.443 112.807 195.596 C 113.763 195.748 114.622 196.268 115.197 197.045 C 115.773 197.821 116.02 198.792 115.886 199.748 C 115.752 200.704 115.247 201.57 114.48 202.159 Z" fill="black"/>
    <path opacity="0.25" d="M 103.046 173.4 C 104.51 174.818 111.337 176.288 111.337 176.288 C 111.337 176.288 109.665 169.529 108.199 168.111 C 107.851 167.773 107.439 167.508 106.988 167.329 C 106.537 167.15 106.055 167.062 105.569 167.069 C 105.084 167.076 104.604 167.178 104.158 167.37 C 103.713 167.561 103.309 167.839 102.971 168.186 C 102.632 168.533 102.366 168.944 102.186 169.394 C 102.007 169.844 101.918 170.324 101.926 170.808 C 101.933 171.293 102.035 171.771 102.227 172.215 C 102.42 172.66 102.698 173.062 103.046 173.4 Z" fill="black"/>
    <path opacity="0.25" d="M 99.175 190.455 C 100.997 191.373 107.95 190.738 107.95 190.738 C 107.95 190.738 104.327 184.787 102.505 183.87 C 102.07 183.641 101.594 183.5 101.104 183.456 C 100.614 183.412 100.12 183.467 99.652 183.615 C 99.183 183.764 98.749 184.005 98.374 184.323 C 98 184.641 97.693 185.031 97.472 185.469 C 97.25 185.907 97.119 186.384 97.084 186.873 C 97.05 187.363 97.114 187.854 97.273 188.318 C 97.431 188.783 97.681 189.211 98.008 189.578 C 98.334 189.944 98.731 190.243 99.175 190.455 Z" fill="black"/>
    <path opacity="0.25" d="M 97.692 207.547 C 99.334 208.758 106.295 209.305 106.295 209.305 C 106.295 209.305 103.733 202.828 102.089 201.618 C 101.299 201.059 100.321 200.831 99.365 200.984 C 98.409 201.136 97.551 201.657 96.975 202.433 C 96.399 203.209 96.152 204.18 96.286 205.136 C 96.42 206.093 96.925 206.958 97.692 207.547 Z" fill="black"/>
    <path d="M 260.997 213.54 C 260.997 213.54 256.089 196.924 261.918 184.694 C 264.364 179.561 265.177 173.798 264.047 168.228 C 263.506 165.583 262.723 162.994 261.71 160.491" stroke="#535461" stroke-width="2" stroke-miterlimit="10"/>
    <path d="M 265.336 152.772 C 265.336 154.807 261.638 160.707 261.638 160.707 C 261.638 160.707 257.939 154.801 257.939 152.772 C 257.939 151.793 258.329 150.855 259.023 150.164 C 259.716 149.472 260.657 149.084 261.638 149.084 C 262.619 149.084 263.56 149.472 264.253 150.164 C 264.947 150.855 265.336 151.793 265.336 152.772 Z" fill="#FD8B10"/>
    <path d="M 271.448 164.052 C 270.338 165.762 264.015 168.714 264.015 168.714 C 264.015 168.714 264.131 161.752 265.241 160.044 C 265.774 159.223 266.612 158.647 267.571 158.443 C 268.53 158.238 269.531 158.422 270.354 158.953 C 271.177 159.485 271.755 160.32 271.96 161.276 C 272.165 162.233 271.981 163.231 271.448 164.052 Z" fill="#FD8B10"/>
    <path d="M 271.182 183.329 C 269.357 184.245 262.404 183.61 262.404 183.61 C 262.404 183.61 266.029 177.659 267.851 176.742 C 268.727 176.302 269.743 176.227 270.674 176.533 C 271.606 176.839 272.377 177.502 272.819 178.375 C 273.261 179.249 273.336 180.261 273.029 181.19 C 272.722 182.119 272.058 182.888 271.182 183.329 Z" fill="#FD8B10"/>
    <path d="M 267.686 197.868 C 266.043 199.078 259.083 199.626 259.083 199.626 C 259.083 199.626 261.646 193.149 263.287 191.939 C 264.076 191.366 265.06 191.128 266.025 191.276 C 266.989 191.424 267.856 191.945 268.436 192.728 C 269.017 193.51 269.263 194.489 269.123 195.452 C 268.982 196.415 268.466 197.283 267.686 197.868 Z" fill="#FD8B10"/>
    <path d="M 256.25 169.103 C 257.717 170.521 264.541 171.991 264.541 171.991 C 264.541 171.991 262.869 165.232 261.405 163.814 C 261.059 163.468 260.647 163.195 260.193 163.01 C 259.74 162.825 259.254 162.731 258.764 162.735 C 258.274 162.738 257.789 162.839 257.339 163.031 C 256.888 163.222 256.48 163.502 256.138 163.852 C 255.797 164.202 255.529 164.617 255.349 165.072 C 255.17 165.526 255.083 166.012 255.093 166.501 C 255.103 166.989 255.211 167.471 255.41 167.918 C 255.608 168.364 255.894 168.767 256.25 169.103 Z" fill="#FD8B10"/>
    <path d="M 252.387 186.164 C 254.211 187.082 261.164 186.447 261.164 186.447 C 261.164 186.447 257.541 180.496 255.717 179.579 C 255.282 179.35 254.806 179.209 254.316 179.165 C 253.826 179.121 253.332 179.176 252.864 179.324 C 252.395 179.473 251.961 179.714 251.587 180.032 C 251.212 180.35 250.905 180.74 250.684 181.178 C 250.462 181.616 250.331 182.093 250.296 182.582 C 250.262 183.072 250.326 183.563 250.485 184.027 C 250.644 184.492 250.893 184.92 251.22 185.287 C 251.546 185.653 251.943 185.952 252.387 186.164 Z" fill="#FD8B10"/>
    <path d="M 250.896 203.256 C 252.54 204.466 259.499 205.014 259.499 205.014 C 259.499 205.014 256.937 198.539 255.295 197.327 C 254.506 196.754 253.522 196.516 252.558 196.664 C 251.593 196.812 250.726 197.333 250.146 198.116 C 249.566 198.898 249.319 199.877 249.46 200.84 C 249.6 201.803 250.117 202.671 250.896 203.256 Z" fill="#FD8B10"/>
    <path d="M 238.858 211.924 C 238.858 211.924 236.22 202.996 239.353 196.422 C 240.683 193.674 241.085 190.569 240.497 187.574 C 240.206 186.154 239.785 184.764 239.24 183.42" stroke="#535461" stroke-width="2" stroke-miterlimit="10"/>
    <path d="M 241.19 179.266 C 241.19 180.361 239.2 183.535 239.2 183.535 C 239.2 183.535 237.21 180.361 237.21 179.266 C 237.21 178.739 237.42 178.235 237.793 177.863 C 238.166 177.491 238.672 177.282 239.2 177.282 C 239.728 177.282 240.234 177.491 240.607 177.863 C 240.98 178.235 241.19 178.739 241.19 179.266 Z" fill="#FD8B10"/>
    <path d="M 244.474 185.328 C 243.877 186.247 240.479 187.834 240.479 187.834 C 240.479 187.834 240.541 184.092 241.138 183.174 C 241.435 182.759 241.882 182.473 242.385 182.378 C 242.888 182.283 243.409 182.384 243.838 182.662 C 244.268 182.939 244.574 183.371 244.692 183.868 C 244.811 184.365 244.733 184.888 244.474 185.328 Z" fill="#FD8B10"/>
    <path d="M 244.331 195.686 C 243.35 196.178 239.614 195.837 239.614 195.837 C 239.614 195.837 241.562 192.639 242.54 192.147 C 243.008 191.936 243.539 191.914 244.022 192.084 C 244.506 192.254 244.905 192.604 245.136 193.061 C 245.367 193.518 245.412 194.046 245.262 194.535 C 245.112 195.024 244.779 195.436 244.331 195.686 Z" fill="#FD8B10"/>
    <path d="M 242.451 203.5 C 241.57 204.151 237.829 204.445 237.829 204.445 C 237.829 204.445 239.206 200.965 240.089 200.314 C 240.298 200.142 240.539 200.015 240.799 199.939 C 241.058 199.863 241.33 199.841 241.599 199.874 C 241.867 199.907 242.126 199.994 242.359 200.13 C 242.593 200.265 242.796 200.447 242.957 200.664 C 243.118 200.881 243.232 201.128 243.294 201.391 C 243.356 201.653 243.363 201.925 243.316 202.191 C 243.268 202.456 243.167 202.709 243.019 202.934 C 242.87 203.159 242.677 203.352 242.451 203.5 Z" fill="#FD8B10"/>
    <path d="M 236.307 188.046 C 237.103 188.808 240.762 189.598 240.762 189.598 C 240.762 189.598 239.864 185.965 239.077 185.203 C 238.893 185.008 238.671 184.851 238.424 184.743 C 238.178 184.635 237.912 184.578 237.643 184.576 C 237.374 184.574 237.107 184.626 236.858 184.729 C 236.61 184.832 236.385 184.985 236.198 185.178 C 236.01 185.37 235.864 185.598 235.767 185.849 C 235.671 186.1 235.626 186.367 235.637 186.635 C 235.647 186.903 235.712 187.167 235.827 187.409 C 235.942 187.652 236.106 187.869 236.307 188.046 Z" fill="#FD8B10"/>
    <path d="M 234.226 197.212 C 235.207 197.704 238.943 197.364 238.943 197.364 C 238.943 197.364 236.996 194.166 236.015 193.672 C 235.547 193.462 235.016 193.439 234.533 193.61 C 234.049 193.78 233.65 194.13 233.419 194.587 C 233.188 195.043 233.143 195.571 233.293 196.06 C 233.443 196.549 233.777 196.962 234.224 197.212 L 234.226 197.212 Z" fill="#FD8B10"/>
    <path d="M 233.43 206.399 C 234.312 207.049 238.052 207.343 238.052 207.343 C 238.052 207.343 236.669 203.861 235.794 203.211 C 235.369 202.922 234.848 202.809 234.342 202.895 C 233.835 202.981 233.381 203.26 233.075 203.672 C 232.77 204.084 232.636 204.598 232.702 205.106 C 232.768 205.615 233.029 206.078 233.43 206.399 Z" fill="#FD8B10"/>
    <path opacity="0.1" d="M 136.631 107.689 L 135.263 107.689 C 135.392 107.695 135.521 107.675 135.643 107.629 C 135.764 107.584 135.875 107.514 135.969 107.425 C 136.062 107.336 136.137 107.229 136.188 107.11 C 136.239 106.991 136.265 106.863 136.265 106.734 C 136.265 106.605 136.239 106.477 136.188 106.358 C 136.137 106.239 136.062 106.132 135.969 106.042 C 135.875 105.953 135.764 105.884 135.643 105.838 C 135.521 105.793 135.392 105.773 135.263 105.779 L 124.175 105.779 C 124.045 105.773 123.916 105.793 123.795 105.838 C 123.673 105.884 123.563 105.953 123.469 106.042 C 123.375 106.132 123.301 106.239 123.25 106.358 C 123.199 106.477 123.172 106.605 123.172 106.734 C 123.172 106.863 123.199 106.991 123.25 107.11 C 123.301 107.229 123.375 107.336 123.469 107.425 C 123.563 107.514 123.673 107.584 123.795 107.629 C 123.916 107.675 124.045 107.695 124.175 107.689 L 125.544 107.689 C 125.289 107.689 125.046 107.79 124.866 107.969 C 124.686 108.148 124.585 108.392 124.585 108.645 C 124.585 108.899 124.686 109.142 124.866 109.321 C 125.046 109.501 125.289 109.601 125.544 109.601 L 123.628 109.601 C 123.498 109.596 123.369 109.616 123.248 109.661 C 123.126 109.707 123.015 109.776 122.922 109.865 C 122.828 109.955 122.753 110.062 122.702 110.181 C 122.651 110.3 122.625 110.427 122.625 110.557 C 122.625 110.686 122.651 110.814 122.702 110.933 C 122.753 111.052 122.828 111.159 122.922 111.248 C 123.015 111.337 123.126 111.407 123.248 111.452 C 123.369 111.497 123.498 111.518 123.628 111.512 L 134.715 111.512 C 134.845 111.518 134.974 111.497 135.096 111.452 C 135.217 111.407 135.328 111.337 135.422 111.248 C 135.515 111.159 135.59 111.052 135.641 110.933 C 135.692 110.814 135.718 110.686 135.718 110.557 C 135.718 110.427 135.692 110.3 135.641 110.181 C 135.59 110.062 135.515 109.955 135.422 109.865 C 135.328 109.776 135.217 109.707 135.096 109.661 C 134.974 109.616 134.845 109.596 134.715 109.601 L 136.631 109.601 C 136.886 109.601 137.13 109.501 137.309 109.321 C 137.489 109.142 137.59 108.899 137.59 108.645 C 137.59 108.392 137.489 108.148 137.309 107.969 C 137.13 107.79 136.886 107.689 136.631 107.689 Z" fill="#252223"/>
    <path opacity="0.1" d="M 185.574 131.693 L 184.205 131.693 C 184.335 131.699 184.464 131.679 184.586 131.634 C 184.707 131.588 184.818 131.519 184.912 131.43 C 185.005 131.34 185.08 131.233 185.131 131.114 C 185.182 130.995 185.208 130.867 185.208 130.738 C 185.208 130.609 185.182 130.481 185.131 130.362 C 185.08 130.243 185.005 130.136 184.912 130.047 C 184.818 129.958 184.707 129.888 184.586 129.843 C 184.464 129.798 184.335 129.777 184.205 129.783 L 173.117 129.783 C 172.988 129.777 172.859 129.798 172.737 129.843 C 172.616 129.888 172.505 129.958 172.411 130.047 C 172.318 130.136 172.243 130.243 172.192 130.362 C 172.141 130.481 172.115 130.609 172.115 130.738 C 172.115 130.867 172.141 130.995 172.192 131.114 C 172.243 131.233 172.318 131.34 172.411 131.43 C 172.505 131.519 172.616 131.588 172.737 131.634 C 172.859 131.679 172.988 131.699 173.117 131.693 L 174.486 131.693 C 174.232 131.693 173.988 131.794 173.808 131.974 C 173.628 132.153 173.527 132.396 173.527 132.65 C 173.527 132.903 173.628 133.147 173.808 133.326 C 173.988 133.505 174.232 133.606 174.486 133.606 L 172.57 133.606 C 172.441 133.6 172.311 133.62 172.19 133.666 C 172.069 133.711 171.958 133.78 171.864 133.87 C 171.77 133.959 171.696 134.066 171.645 134.185 C 171.594 134.304 171.568 134.432 171.568 134.561 C 171.568 134.69 171.594 134.818 171.645 134.937 C 171.696 135.056 171.77 135.163 171.864 135.252 C 171.958 135.342 172.069 135.411 172.19 135.457 C 172.311 135.502 172.441 135.522 172.57 135.516 L 183.658 135.516 C 183.787 135.522 183.917 135.502 184.039 135.457 C 184.16 135.411 184.271 135.342 184.364 135.252 C 184.458 135.163 184.533 135.056 184.584 134.937 C 184.635 134.818 184.661 134.69 184.661 134.561 C 184.661 134.432 184.635 134.304 184.584 134.185 C 184.533 134.066 184.458 133.959 184.364 133.87 C 184.271 133.78 184.16 133.711 184.039 133.666 C 183.917 133.62 183.787 133.6 183.658 133.606 L 185.574 133.606 C 185.7 133.606 185.825 133.581 185.941 133.533 C 186.058 133.485 186.163 133.415 186.252 133.326 C 186.341 133.237 186.412 133.132 186.46 133.016 C 186.508 132.9 186.533 132.775 186.533 132.65 C 186.533 132.524 186.508 132.4 186.46 132.284 C 186.412 132.168 186.341 132.062 186.252 131.974 C 186.163 131.885 186.058 131.814 185.941 131.766 C 185.825 131.718 185.7 131.693 185.574 131.693 Z" fill="#252223"/>
    <path opacity="0.1" d="M 268.936 100.349 L 267.567 100.349 C 267.696 100.355 267.826 100.334 267.947 100.289 C 268.068 100.244 268.179 100.174 268.273 100.085 C 268.367 99.996 268.441 99.888 268.492 99.769 C 268.543 99.651 268.569 99.523 268.569 99.393 C 268.569 99.264 268.543 99.136 268.492 99.018 C 268.441 98.899 268.367 98.791 268.273 98.702 C 268.179 98.613 268.068 98.543 267.947 98.498 C 267.826 98.453 267.696 98.432 267.567 98.438 L 256.479 98.438 C 256.35 98.432 256.22 98.453 256.099 98.498 C 255.978 98.543 255.867 98.613 255.773 98.702 C 255.679 98.791 255.605 98.899 255.554 99.018 C 255.503 99.136 255.476 99.264 255.476 99.393 C 255.476 99.523 255.503 99.651 255.554 99.769 C 255.605 99.888 255.679 99.996 255.773 100.085 C 255.867 100.174 255.978 100.244 256.099 100.289 C 256.22 100.334 256.35 100.355 256.479 100.349 L 257.848 100.349 C 257.594 100.349 257.35 100.449 257.17 100.629 C 256.99 100.808 256.889 101.051 256.889 101.305 C 256.889 101.559 256.99 101.802 257.17 101.981 C 257.35 102.16 257.594 102.261 257.848 102.261 L 255.932 102.261 C 255.802 102.255 255.673 102.276 255.552 102.321 C 255.43 102.366 255.32 102.436 255.226 102.525 C 255.132 102.614 255.058 102.722 255.007 102.84 C 254.956 102.959 254.929 103.087 254.929 103.216 C 254.929 103.346 254.956 103.473 255.007 103.592 C 255.058 103.711 255.132 103.818 255.226 103.908 C 255.32 103.997 255.43 104.066 255.552 104.112 C 255.673 104.157 255.802 104.177 255.932 104.172 L 267.02 104.172 C 267.149 104.177 267.278 104.157 267.4 104.112 C 267.521 104.066 267.632 103.997 267.726 103.908 C 267.819 103.818 267.894 103.711 267.945 103.592 C 267.996 103.473 268.022 103.346 268.022 103.216 C 268.022 103.087 267.996 102.959 267.945 102.84 C 267.894 102.722 267.819 102.614 267.726 102.525 C 267.632 102.436 267.521 102.366 267.4 102.321 C 267.278 102.276 267.149 102.255 267.02 102.261 L 268.936 102.261 C 269.19 102.261 269.434 102.16 269.614 101.981 C 269.793 101.802 269.894 101.559 269.894 101.305 C 269.894 101.051 269.793 100.808 269.614 100.629 C 269.434 100.449 269.19 100.349 268.936 100.349 Z" fill="#252223"/>
    <path d="M 224.334 203.143 C 224.413 203.143 224.489 203.112 224.545 203.056 C 224.601 203 224.633 202.925 224.633 202.846 C 224.633 202.767 224.601 202.691 224.545 202.635 C 224.489 202.579 224.413 202.548 224.334 202.548 C 224.255 202.548 224.179 202.579 224.123 202.635 C 224.067 202.691 224.036 202.767 224.036 202.846 C 224.036 202.925 224.067 203 224.123 203.056 C 224.179 203.112 224.255 203.143 224.334 203.143 Z" fill="#535461"/>
    <g opacity="0.5" transform="matrix(1, 0, 0, 1, 83.972595, 98.230019)">
      <path opacity="0.5" d="M103.859 87.8858L100.969 74.3164H101.265L101.219 74.0863H101.303L99.8067 66.7461C99.8067 66.7461 99.8823 59.0786 100.246 56.1127C100.513 53.9484 100.935 51.1908 100.626 48.8697C100.669 48.8057 100.708 48.7395 100.744 48.6714C100.871 48.4245 100.949 48.1547 100.971 47.8778C101.082 47.2291 100.995 46.5619 100.72 45.9634L103.726 44.0907C103.794 44.0907 103.863 44.1046 103.925 44.1085C103.925 44.0808 103.897 44.0371 103.875 43.9796C105.297 44.0541 106.706 43.6739 107.897 42.8941C109.087 42.1144 109.996 40.976 110.492 39.6449C110.757 40.0412 111.084 40.3922 111.461 40.6844C112.271 41.2895 113.546 41.4244 114.221 40.6725C114.466 40.3724 114.633 40.0157 114.704 39.635C114.744 39.4644 114.772 39.2898 114.796 39.1172C115.178 37.0897 114.34 34.9988 113.26 33.2212C111.909 31.0013 110.116 28.9917 107.838 27.73C105.56 26.4683 102.765 26.0159 100.3 26.8571C97.8351 27.6982 95.3521 29.9816 95.1273 32.5705C95.0159 33.8938 95.1751 34.5068 94.9005 35.8062C94.7632 36.4529 95.0597 37.7126 95.0557 38.4268C95.0316 38.558 95.0156 38.6905 95.0079 38.8236C94.9682 39.6171 95.2845 40.367 95.5153 41.1288C92.2644 41.2915 83.7154 41.9481 81.2464 44.4517C78.1745 47.5644 70.6422 48.6773 70.6422 48.6773L58.0982 51.1948L53.7212 53.0477L53.771 53.2461L53.6834 53.2838C53.6834 53.2838 53.8386 53.8611 54.0615 54.6229C53.085 55.5042 52.4458 56.6962 52.253 57.9954C52.0103 59.3424 52.1396 61.0763 52.9951 63.2882C52.9951 63.2882 57.3143 71.1978 57.6128 74.3878L63.0641 85.2374C62.5965 86.1678 57.9251 95.5712 57.1214 100.834C57.0578 101.213 57.0146 101.595 56.992 101.979C56.992 101.979 56.9622 102.257 56.8886 102.719C56.5683 104.669 55.5556 109.464 53.0826 111.706L53.1144 111.734L53.0428 111.803L53.0985 111.851C52.3564 113.265 53.4288 115.181 53.4288 115.181L54.6484 120.613L56.0132 120.833L57.4496 120.25L58.2454 121.776C58.2454 121.776 64.4428 122.768 66.2036 122.71C67.9643 122.653 64.7114 119.677 63.5714 118.794C62.9387 118.306 62.4433 116.3 62.129 114.612C62.295 114.478 62.4439 114.324 62.5727 114.154C62.5727 114.154 61.8147 110.186 64.0966 104.742C65.0695 102.425 66.116 99.7611 67.0014 97.4658C67.4769 100.549 67.9762 103.725 68.3443 105.893C68.8795 109.034 68.8098 110.95 68.6447 112.031C68.6141 112.408 68.5249 112.778 68.3801 113.128C68.3874 113.138 68.3941 113.149 68.4 113.16C68.3896 113.188 68.3769 113.215 68.3622 113.241C68.3741 113.261 68.3861 113.279 68.396 113.299C67.1506 114.719 68.4477 117.036 68.4477 117.036L69.6673 122.452L71.0321 122.672L72.4686 122.089L73.2644 123.615C73.2644 123.615 79.4618 124.607 81.2225 124.549C82.9832 124.492 79.7304 121.516 78.5884 120.633C77.6991 119.945 77.0823 116.249 76.8535 114.664C77.0186 114.648 77.1102 114.636 77.1102 114.636L77.0922 114.527H77.13L76.3502 109.98C75.0172 108.835 75.2022 92.5736 75.2022 92.5736C75.2022 92.5736 74.5079 94.2738 74.486 94.1369C74.5536 93.8631 74.8043 93.0894 75.3852 91.4409C75.7265 90.4955 75.9789 89.5205 76.1393 88.5286C76.7699 84.6581 75.5941 82.2914 75.5941 82.2914C75.6717 81.5138 74.85 78.4924 73.8792 75.2746L76.9291 69.3469C77.3533 69.5061 77.8136 69.5438 78.2581 69.456L80.568 65.2899C80.568 65.2899 85.3428 62.4531 86.7096 62.6733C87.9809 62.8717 91.964 62.0027 93.5039 60.3482C93.6146 60.2273 93.7157 60.098 93.8063 59.9614C95.0458 58.0668 94.5364 69.8528 94.5364 69.8528L93.8739 73.9355L93.8381 74.1617L95.8137 74.2013L100.469 90.1236C100.469 90.1236 100.762 95.5236 106.052 96.7238C111.342 97.924 103.859 87.8858 103.859 87.8858ZM72.0607 69.4838C71.7742 68.6029 71.5236 67.8431 71.3345 67.2738L72.3194 66.508C72.3194 66.508 72.4427 66.6112 72.6516 66.7758L72.0607 69.4838Z" fill="url(#paint0_linear_87_652)"/>
    </g>
    <path d="M 160.834 211.172 C 160.834 211.172 161.508 216.838 162.625 217.699 C 163.741 218.56 166.908 221.45 165.191 221.514 C 163.474 221.577 157.432 220.605 157.432 220.605 L 156.65 219.117 L 155.257 219.684 L 153.926 219.47 L 152.733 214.175 C 152.733 214.175 151.057 211.184 153.415 209.976 C 155.773 208.767 160.834 211.172 160.834 211.172 Z" fill="#3A384D"/>
    <path opacity="0.1" d="M 155.166 164.72 C 155.166 164.72 159.851 178.625 159.674 180.411 C 159.674 180.411 161.391 183.862 159.497 189.229 C 157.603 194.595 159.298 190.445 159.298 190.445 C 159.298 190.445 159.119 206.294 160.416 207.41 L 161.176 211.842 C 161.176 211.842 153.871 212.707 152.641 210.468 C 152.641 210.468 153.592 208.807 152.661 203.326 C 151.73 197.844 149.935 185.767 149.935 185.767 L 145.073 158.217 L 155.166 164.72 Z" fill="black"/>
    <path d="M 155.184 164.609 C 155.184 164.609 159.869 178.522 159.692 180.307 C 159.692 180.307 161.409 183.759 159.515 189.126 C 157.621 194.492 159.316 190.342 159.316 190.342 C 159.316 190.342 159.137 206.192 160.434 207.307 L 161.194 211.741 C 161.194 211.741 153.889 212.604 152.659 210.364 C 152.659 210.364 153.61 208.704 152.679 203.223 C 151.748 197.741 149.951 185.658 149.951 185.658 L 145.091 158.106 L 155.184 164.609 Z" fill="#BEC7DE"/>
    <path opacity="0.1" d="M 146.297 158.828 L 151.061 185.836 C 151.061 185.836 152.852 197.92 153.789 203.401 C 154.726 208.882 153.769 210.543 153.769 210.543 C 154.127 211.196 154.997 211.582 156.051 211.807 C 154.571 211.634 153.236 211.231 152.77 210.382 C 152.77 210.382 153.723 208.722 152.792 203.24 C 151.861 197.759 150.065 185.676 150.065 185.676 L 145.202 158.124 L 146.297 158.828 Z" fill="black"/>
    <path d="M 146.223 209.384 C 146.223 209.384 146.895 215.05 148.013 215.911 C 149.132 216.772 152.297 219.662 150.58 219.726 C 148.863 219.789 142.821 218.817 142.821 218.817 L 142.039 217.329 L 140.646 217.899 L 139.315 217.683 L 138.122 212.388 C 138.122 212.388 136.446 209.396 138.802 208.188 C 141.158 206.98 146.223 209.384 146.223 209.384 Z" fill="#3A384D"/>
    <path opacity="0.1" d="M 155.166 164.72 C 155.166 164.72 159.851 178.625 159.674 180.411 C 159.674 180.411 161.391 183.862 159.497 189.229 C 157.603 194.595 159.298 190.445 159.298 190.445 C 159.298 190.445 159.119 206.294 160.416 207.41 L 161.176 211.842 C 161.176 211.842 153.871 212.707 152.641 210.468 C 152.641 210.468 153.592 208.807 152.661 203.326 C 151.73 197.844 149.935 185.767 149.935 185.767 L 145.073 158.217 L 155.166 164.72 Z" fill="black"/>
    <path opacity="0.1" d="M 140.318 152.46 C 140.318 152.46 135.103 154.456 137.909 161.713 C 137.909 161.713 142.121 169.422 142.413 172.533 L 147.745 183.146 C 147.745 183.146 142.059 194.367 141.806 199.429 C 141.806 199.429 141.046 206.226 137.978 209.019 C 137.978 209.019 144.578 214.62 147.035 211.386 C 147.035 211.386 146.297 207.525 148.523 202.213 C 150.749 196.9 153.389 189.734 153.389 189.734 C 153.389 189.734 159.774 185.431 155.52 176.58 L 150.745 156.87 L 150.668 152.434 L 147.005 151.165 L 140.318 152.46 Z" fill="black"/>
    <path opacity="0.1" d="M 140.079 152.534 C 140.079 152.534 134.865 154.529 137.67 161.786 C 137.67 161.786 141.88 169.497 142.172 172.608 L 147.504 183.222 C 147.504 183.222 141.818 194.44 141.569 199.505 C 141.569 199.505 140.809 206.299 137.74 209.095 C 137.74 209.095 144.339 214.695 146.798 211.461 C 146.798 211.461 146.058 207.599 148.284 202.288 C 150.51 196.978 153.15 189.802 153.15 189.802 C 153.15 189.802 159.537 185.499 155.283 176.647 L 150.508 156.938 L 150.431 152.502 L 146.77 151.232 L 140.079 152.534 Z" fill="black"/>
    <path d="M 140.097 152.424 C 140.097 152.424 134.883 154.422 137.688 161.677 C 137.688 161.677 140.782 167.341 141.848 170.918 C 142.313 172.454 142.913 173.947 143.639 175.379 L 147.522 183.116 C 147.522 183.116 141.836 194.337 141.585 199.4 C 141.585 199.4 140.825 206.196 137.755 208.989 C 137.755 208.989 144.355 214.59 146.814 211.356 C 146.814 211.356 146.074 207.496 148.3 202.183 C 150.526 196.87 153.166 189.697 153.166 189.697 C 153.166 189.697 159.553 185.394 155.299 176.542 L 150.524 156.833 L 150.447 152.397 L 146.786 151.127 L 140.097 152.424 Z" fill="#BEC7DE"/>
    <path opacity="0.1" d="M 140.097 152.425 L 146.792 151.121 L 147.665 151.425 L 141.428 152.637 C 141.428 152.637 136.214 154.633 139.019 161.889 C 139.019 161.889 142.111 167.553 143.179 171.13 C 143.644 172.666 144.244 174.159 144.97 175.592 L 148.855 183.329 C 148.855 183.329 143.161 194.545 142.916 199.608 C 142.916 199.608 142.154 206.405 139.086 209.198 C 139.086 209.198 141.93 211.61 144.578 212.354 C 141.657 212.295 137.755 208.982 137.755 208.982 C 140.825 206.188 141.585 199.392 141.585 199.392 C 141.836 194.329 147.522 183.109 147.522 183.109 L 143.639 175.372 C 142.913 173.939 142.313 172.446 141.848 170.91 C 140.782 167.339 137.688 161.669 137.688 161.669 C 134.883 154.422 140.097 152.425 140.097 152.425 Z" fill="black"/>
    <path d="M 161.582 166.547 L 157.43 174.612 C 157.43 174.612 158.648 185.356 156.322 185.662 C 153.996 185.967 154.929 173.87 154.929 173.87 L 157.167 163.568 L 161.582 166.547 Z" fill="#BE7C5E"/>
    <path d="M 184.277 171.793 L 187.245 185.767 C 187.245 185.767 194.531 195.561 189.374 194.391 C 184.217 193.22 183.932 187.949 183.932 187.949 L 178.959 170.928 L 184.277 171.793 Z" fill="#BE7C5E"/>
    <path d="M 187.236 143.005 L 179.894 147.608 L 177.273 140.607 C 177.273 140.607 183.35 141.019 184.058 138.752 C 184.766 136.484 187.236 143.005 187.236 143.005 Z" fill="#BE7C5E"/>
    <path d="M 183.465 145.915 L 182.995 143.91 L 175.759 144.332 L 172.845 155.999 L 178.274 156.194 L 181.314 151.466 L 182.972 146.856 L 183.465 145.915 Z" fill="#BE7C5E"/>
    <path opacity="0.1" d="M 180.962 143.811 L 181.559 140.448 C 181.559 140.448 168.167 140.615 165.173 143.648 C 162.179 146.681 154.838 147.768 154.838 147.768 L 142.61 150.22 L 138.334 152.028 C 138.334 152.028 139.54 156.531 140.057 156.842 C 140.575 157.154 146.348 152.411 146.348 152.411 L 148.537 152.99 L 141.41 160.461 L 154.563 173.356 L 154.806 166.25 L 156.491 164.937 C 156.491 164.937 160.496 168.309 162.282 167.797 L 164.535 163.736 C 164.535 163.736 169.19 160.971 170.521 161.185 C 171.761 161.383 175.644 160.532 177.144 158.92 C 177.249 158.807 177.345 158.685 177.431 158.557 C 178.64 156.71 178.143 168.198 178.143 168.198 L 177.462 172.398 L 184.719 172.547 L 183.262 165.393 C 183.262 165.393 183.336 157.92 183.69 155.027 C 184.044 152.135 184.685 148.157 183.385 145.677 L 180.831 148.102 L 176.386 155.216 L 178.073 149.022 L 180.962 143.811 Z" fill="black"/>
    <path d="M 181 143.588 L 180.365 140.138 C 180.365 140.138 168.211 140.392 165.217 143.426 C 162.223 146.459 154.871 147.544 154.871 147.544 L 142.644 149.998 L 138.386 151.807 C 138.386 151.807 139.592 156.311 140.109 156.62 C 140.626 156.93 146.402 152.19 146.402 152.19 L 148.59 152.77 L 141.464 160.241 L 154.617 173.136 L 154.859 166.028 L 156.551 164.712 C 156.551 164.712 160.555 168.085 162.342 167.575 L 164.594 163.514 C 164.594 163.514 169.224 160.749 170.563 160.969 C 171.802 161.167 175.686 160.314 177.186 158.701 C 177.291 158.588 177.387 158.467 177.472 158.338 C 178.682 156.491 178.185 167.982 178.185 167.982 L 177.504 172.181 L 184.761 172.33 L 183.304 165.176 C 183.304 165.176 183.377 157.701 183.731 154.811 C 184.086 151.92 184.727 147.939 183.427 145.461 L 180.873 147.875 L 176.422 154.984 L 178.109 148.79 L 181 143.588 Z" fill="#7FAFF2"/>
    <path opacity="0.1" d="M 165.671 147.981 C 165.671 147.981 158.427 154.073 157.669 157.354 L 165.671 147.981 Z" fill="black"/>
    <path opacity="0.1" d="M 173.579 153.232 C 173.579 153.232 168.008 157.438 167.013 160.112 L 173.579 153.232 Z" fill="black"/>
    <path opacity="0.1" d="M 157.311 159.564 C 157.311 159.564 156.787 162.088 156.684 163.433 L 157.311 159.564 Z" fill="black"/>
    <path opacity="0.1" d="M 154.662 165.375 C 154.662 165.375 146.318 157.906 145.151 158.059 L 154.662 165.375 Z" fill="black"/>
    <path opacity="0.1" d="M 184.146 138.879 C 184.824 136.709 187.116 142.593 187.309 143.099 C 187.091 143.086 186.874 143.062 186.659 143.027 C 185.788 142.888 184.956 142.574 184.211 142.104 C 183.467 141.633 182.826 141.017 182.329 140.291 C 183.222 140.012 183.934 139.569 184.146 138.879 Z" fill="black"/>
    <path d="M 187.61 142.983 C 191.207 142.983 194.123 140.075 194.123 136.488 C 194.123 132.901 191.207 129.993 187.61 129.993 C 184.012 129.993 181.095 132.901 181.095 136.488 C 181.095 140.075 184.012 142.983 187.61 142.983 Z" fill="#BE7C5E"/>
    <path opacity="0.1" d="M 192.9 137.425 C 193.411 138.264 193.877 139.174 194.666 139.762 C 195.456 140.349 196.7 140.482 197.356 139.75 C 197.595 139.457 197.756 139.109 197.826 138.738 C 198.307 136.693 197.466 134.572 196.373 132.769 C 195.056 130.604 193.308 128.646 191.089 127.412 C 188.871 126.178 186.143 125.74 183.739 126.561 C 181.336 127.383 179.362 129.577 179.164 132.1 C 179.054 133.39 179.38 134.705 179.112 135.973 C 178.973 136.633 178.672 137.262 178.638 137.937 C 178.575 139.188 179.434 140.353 179.357 141.605 C 179.309 142.376 178.913 143.077 178.67 143.813 C 178.073 145.586 178.396 147.517 178.272 149.381 C 178.149 151.246 177.331 153.337 175.541 153.889 C 177.52 154.881 180.25 153.837 181.056 151.778 C 181.3 151.149 181.39 150.451 181.762 149.887 C 182.391 148.935 183.698 148.558 184.225 147.546 C 184.753 146.535 184.295 145.303 183.718 144.321 C 183.141 143.339 182.42 142.351 182.408 141.214 C 182.413 140.659 182.586 140.118 182.906 139.664 C 183.226 139.21 183.677 138.863 184.199 138.671 C 184.743 138.482 185.33 138.472 185.901 138.409 C 187.317 138.227 188.67 137.713 189.848 136.907 C 191.378 135.909 191.788 135.6 192.9 137.425 Z" fill="black"/>
    <path d="M 192.941 137.141 C 193.453 137.982 193.918 138.891 194.708 139.48 C 195.498 140.069 196.741 140.2 197.398 139.468 C 197.636 139.175 197.798 138.827 197.868 138.456 C 198.349 136.411 197.507 134.29 196.415 132.487 C 195.098 130.321 193.349 128.365 191.131 127.131 C 188.913 125.897 186.185 125.46 183.781 126.28 C 181.378 127.099 178.959 129.327 178.746 131.85 C 178.636 133.14 178.793 133.737 178.525 135.003 C 178.386 135.663 178.71 136.986 178.676 137.657 C 178.612 138.909 179.472 140.073 179.394 141.325 C 179.347 142.097 178.951 142.797 178.708 143.531 C 178.111 145.307 178.433 147.237 178.31 149.102 C 178.187 150.966 177.369 153.055 175.578 153.607 C 177.558 154.599 180.288 153.555 181.093 151.496 C 181.338 150.869 181.428 150.171 181.8 149.608 C 182.428 148.655 183.735 148.278 184.263 147.267 C 184.79 146.255 184.333 145.021 183.757 144.039 C 183.182 143.057 182.458 142.071 182.446 140.932 C 182.451 140.377 182.625 139.837 182.944 139.383 C 183.264 138.929 183.715 138.583 184.237 138.391 C 184.78 138.202 185.367 138.193 185.938 138.129 C 187.355 137.947 188.707 137.432 189.886 136.627 C 191.423 135.625 191.833 135.318 192.941 137.141 Z" fill="#723647"/>
    <path d="M 179.423 140.901 L 182.187 141.346 C 182.401 141.381 182.604 141.236 182.638 141.022 C 182.673 140.808 182.527 140.607 182.312 140.573 L 179.549 140.127 C 179.334 140.093 179.132 140.238 179.097 140.451 C 179.062 140.665 179.209 140.866 179.423 140.901 Z" fill="#252A62"/>
    <path d="M 173.728 195.726 C 173.774 198.832 176.402 201.28 179.518 201.28 L 179.951 201.28 C 180.334 201.279 180.703 201.427 180.978 201.693 C 181.187 201.888 181.332 202.141 181.394 202.419 C 181.423 202.531 181.438 202.646 181.438 202.762 L 181.438 208.248 C 181.436 209.302 181.738 210.335 182.309 211.223 C 183.14 212.481 183.59 213.951 183.606 215.457 C 183.606 215.808 183.676 216.156 183.813 216.481 C 183.949 216.805 184.149 217.099 184.401 217.345 C 184.652 217.592 184.951 217.785 185.278 217.916 C 185.606 218.046 185.956 218.11 186.308 218.103 C 187.765 218.077 188.907 216.828 188.907 215.374 L 188.907 214.003 L 189.631 214.086 L 189.631 215.461 C 189.631 215.812 189.701 216.16 189.838 216.483 C 189.974 216.807 190.174 217.1 190.425 217.346 C 190.677 217.592 190.974 217.786 191.302 217.916 C 191.629 218.046 191.979 218.11 192.331 218.103 C 193.789 218.077 194.931 216.828 194.931 215.374 L 194.931 214.679 C 195.653 214.981 199.75 214.981 200.886 214.679 L 201.194 214.655 L 201.194 215.449 C 201.193 215.801 201.262 216.15 201.398 216.475 C 201.534 216.8 201.734 217.095 201.985 217.342 C 202.237 217.59 202.536 217.784 202.864 217.915 C 203.192 218.046 203.543 218.11 203.896 218.103 C 205.352 218.077 206.494 216.828 206.494 215.374 L 206.494 214.235 L 206.735 214.213 L 206.735 215.463 C 206.736 215.814 206.806 216.161 206.943 216.485 C 207.08 216.808 207.28 217.102 207.531 217.347 C 207.783 217.593 208.081 217.786 208.408 217.916 C 208.735 218.046 209.085 218.11 209.437 218.103 C 210.079 218.082 210.692 217.832 211.166 217.4 C 211.64 216.967 211.944 216.38 212.023 215.744 C 212.038 215.621 212.046 215.498 212.047 215.374 L 212.047 209.636 C 212.049 207.665 211.387 205.751 210.167 204.201 C 209.955 203.926 209.837 203.592 209.829 203.246 C 209.821 202.9 209.923 202.56 210.121 202.276 C 211.47 200.306 213.465 196.981 213.4 194.625 C 213.414 193.986 213.189 193.364 212.769 192.881 C 212.743 192.851 212.715 192.823 212.69 192.796 C 210.748 190.768 207.33 192.363 207.626 195.15 C 207.727 196.084 207.66 197.028 207.427 197.938 C 207.293 198.451 207.111 198.951 206.884 199.431 C 206.657 199.913 206.284 200.312 205.817 200.571 C 205.351 200.829 204.814 200.935 204.284 200.874 C 203.923 200.83 203.561 200.808 203.198 200.808 L 192.056 200.808 C 191.402 200.808 190.765 200.604 190.233 200.225 C 189.701 199.845 189.302 199.309 189.092 198.691 C 188.979 198.368 188.921 198.028 188.923 197.686 L 188.923 189.036 C 188.923 188.811 188.877 188.588 188.789 188.38 C 188.701 188.173 188.573 187.985 188.41 187.828 C 188.248 187.671 188.056 187.548 187.845 187.467 C 187.635 187.385 187.41 187.347 187.184 187.354 C 186.963 187.362 186.747 187.414 186.547 187.507 C 186.347 187.6 186.168 187.732 186.02 187.895 C 185.718 188.227 185.551 188.658 185.55 189.106 C 185.551 189.223 185.528 189.339 185.483 189.447 C 185.438 189.555 185.372 189.653 185.289 189.736 C 185.206 189.819 185.108 189.884 184.999 189.929 C 184.891 189.974 184.774 189.997 184.657 189.996 L 179.39 189.996 C 178.64 189.996 177.897 190.145 177.204 190.434 C 176.512 190.723 175.884 191.146 175.357 191.679 C 174.83 192.213 174.415 192.845 174.135 193.539 C 173.855 194.234 173.717 194.977 173.728 195.726 Z" fill="#F3AD55"/>
    <path d="M 206.826 216.119 C 206.976 216.695 207.315 217.204 207.79 217.564 C 208.265 217.924 208.848 218.114 209.445 218.103 C 210.087 218.082 210.7 217.832 211.174 217.4 C 211.648 216.967 211.952 216.38 212.031 215.744 C 210.408 215.314 208.183 215.016 206.826 216.119 Z" fill="#FBDCA3"/>
    <path d="M 201.276 216.119 C 201.425 216.696 201.765 217.205 202.241 217.565 C 202.716 217.924 203.299 218.114 203.896 218.103 C 204.536 218.079 205.147 217.829 205.619 217.396 C 206.09 216.964 206.392 216.379 206.47 215.744 C 204.867 215.314 202.648 215.016 201.276 216.119 Z" fill="#FBDCA3"/>
    <path d="M 189.716 216.119 C 189.866 216.695 190.205 217.204 190.68 217.564 C 191.155 217.924 191.738 218.114 192.335 218.103 C 192.977 218.082 193.59 217.832 194.064 217.4 C 194.539 216.967 194.842 216.38 194.921 215.744 C 193.298 215.314 191.077 215.016 189.716 216.119 Z" fill="#FBDCA3"/>
    <path d="M 183.688 216.119 C 183.837 216.696 184.177 217.205 184.653 217.565 C 185.128 217.925 185.712 218.115 186.308 218.103 C 186.949 218.079 187.559 217.829 188.031 217.396 C 188.503 216.964 188.805 216.379 188.883 215.744 C 187.279 215.314 185.055 215.016 183.688 216.119 Z" fill="#FBDCA3"/>
    <path d="M 207.411 197.938 C 209.283 197.188 211.567 195.815 213.38 194.625 C 213.394 193.986 213.169 193.364 212.749 192.881 C 212.723 192.851 212.696 192.823 212.67 192.796 C 210.728 190.768 207.31 192.363 207.606 195.15 C 207.708 196.084 207.642 197.028 207.411 197.938 Z" fill="#FBDCA3"/>
    <path d="M 205.145 200.824 C 205.145 200.824 199.99 207.295 191.557 200.808 L 205.145 200.824 Z" fill="#FBDCA3"/>
    <path d="M 188.907 188.796 C 188.907 188.796 185.775 192.881 188.907 197.922 L 188.907 188.796 Z" fill="#FBDCA3"/>
    <path d="M 181.438 202.73 C 181.438 202.73 184.198 206.147 181.473 208.864 L 181.438 202.73 Z" fill="#FBDCA3"/>
    <path opacity="0.1" d="M 181.197 202.008 C 181.396 202.207 181.332 202.385 181.396 202.667 L 190.349 200.328 C 189.868 199.957 189.269 199.519 189.072 198.939 C 188.001 199.763 185.879 201.155 181.197 202.008 Z" fill="black"/>
    <path d="M 180.978 201.701 C 181.187 201.896 181.332 202.149 181.394 202.427 L 190.126 200.157 C 189.639 199.783 189.273 199.273 189.076 198.691 C 188.001 199.523 185.66 200.844 180.978 201.701 Z" fill="#383F4D"/>
    <path opacity="0.1" d="M 188.748 199.171 C 188.748 199.171 186.016 201.221 181.438 201.856 L 188.748 199.171 Z" fill="black"/>
    <path d="M 188.748 198.931 C 188.748 198.931 186.016 200.981 181.438 201.616 L 188.748 198.931 Z" fill="#F3AD55"/>
    <path opacity="0.1" d="M 181.919 199.126 C 181.919 199.126 177.343 200.568 176.137 196.003 L 181.919 199.126 Z" fill="black"/>
    <path d="M 181.919 198.886 C 181.919 198.886 177.343 200.328 176.137 195.763 L 181.919 198.886 Z" fill="#FBDCA3"/>
    <path d="M 173.728 196.003 C 173.994 196.003 174.21 195.627 174.21 195.162 C 174.21 194.698 173.994 194.321 173.728 194.321 C 173.462 194.321 173.247 194.698 173.247 195.162 C 173.247 195.627 173.462 196.003 173.728 196.003 Z" fill="#383F4D"/>
    <path opacity="0.1" d="M 210.228 212.459 L 209.266 204.772 C 209.266 204.772 212.156 209.335 210.228 212.459 Z" fill="black"/>
    <path d="M 209.025 204.772 C 209.025 204.772 211.916 209.335 209.988 212.459 L 209.025 204.772 Z" fill="#FBDCA3"/>
  </g>
</svg>