<?xml version="1.0" encoding="utf-8"?>
<svg viewBox="0 0 352.384 297.929" xmlns="http://www.w3.org/2000/svg">
  <path d="M 262.32 232.243 L 262.068 232.149 C 262.013 232.128 256.509 230.021 253.93 225.243 C 251.352 220.464 252.614 214.711 252.627 214.654 L 252.687 214.392 L 252.938 214.486 C 252.994 214.507 258.498 216.614 261.076 221.392 C 263.655 226.17 262.392 231.924 262.379 231.981 L 262.32 232.243 Z M 254.343 225.02 C 256.523 229.06 260.873 231.131 261.975 231.604 C 262.184 230.423 262.841 225.651 260.663 221.615 C 258.485 217.579 254.134 215.505 253.032 215.031 C 252.822 216.212 252.165 220.984 254.343 225.02 Z" fill="#3F3D56"/>
  <path d="M 255.901 223.566 C 260.534 226.352 262.319 231.885 262.319 231.885 C 262.319 231.885 256.591 232.902 251.957 230.116 C 247.324 227.33 245.539 221.797 245.539 221.797 C 245.539 221.797 251.267 220.781 255.901 223.566 Z" fill="#FD8B10"/>
  <path d="M 181.302 154.965 C 181.526 154.618 181.822 154.322 182.169 154.097 C 182.516 153.872 182.907 153.723 183.315 153.659 C 183.724 153.596 184.141 153.619 184.54 153.728 C 184.939 153.837 185.311 154.028 185.631 154.291 C 185.731 154.374 185.826 154.465 185.914 154.561 L 197.454 152.883 L 198.096 144.212 C 198.145 143.547 198.457 142.928 198.962 142.493 C 199.468 142.057 200.126 141.84 200.792 141.889 C 201.457 141.938 202.076 142.249 202.512 142.754 C 202.948 143.26 203.165 143.917 203.116 144.582 C 203.115 144.598 203.114 144.613 203.112 144.629 L 201.988 156.795 L 201.982 156.823 C 201.836 157.29 201.542 157.698 201.146 157.986 C 200.749 158.274 200.27 158.426 199.779 158.421 L 186.206 158.187 C 186.154 158.267 186.097 158.344 186.036 158.419 C 185.773 158.738 185.446 158.999 185.076 159.183 C 184.706 159.367 184.301 159.471 183.887 159.488 C 183.474 159.505 183.062 159.434 182.678 159.281 C 182.294 159.128 181.946 158.895 181.658 158.598 C 181.6 158.538 181.544 158.476 181.492 158.413 C 181.101 157.931 180.872 157.339 180.838 156.72 C 180.803 156.1 180.966 155.486 181.302 154.965 Z" fill="#FFB7B7"/>
  <path d="M 204.567 228.896 L 201.276 228.895 L 199.71 216.21 L 204.567 216.21 L 204.567 228.896 Z" fill="#FFB7B7"/>
  <path d="M 205.406 232.083 L 194.794 232.083 L 194.794 231.949 C 194.794 230.854 195.229 229.804 196.004 229.03 C 196.778 228.256 197.829 227.822 198.925 227.821 L 198.925 227.821 L 205.406 227.822 L 205.406 232.083 Z" fill="#2F2E41"/>
  <path d="M 227.565 225.914 L 224.45 226.975 L 218.869 215.475 L 223.467 213.908 L 227.565 225.914 Z" fill="#FFB7B7"/>
  <path d="M 229.389 228.66 L 219.345 232.083 L 219.302 231.956 C 218.948 230.92 219.021 229.786 219.504 228.804 C 219.987 227.821 220.841 227.071 221.878 226.717 L 221.878 226.717 L 228.013 224.627 L 229.389 228.66 Z" fill="#2F2E41"/>
  <path d="M 208.191 117.981 C 208.191 117.981 204.915 116.9 202.809 121.224 C 200.703 125.548 197.428 130.305 197.428 130.305 L 199.299 130.737 C 199.299 130.737 199.767 127.71 200.937 127.278 L 200.469 131.17 C 200.469 131.17 214.509 135.71 220.826 130.737 L 220.592 129.224 C 220.592 129.224 221.528 129.44 221.528 130.737 L 222.23 130.089 C 222.23 130.089 221.528 128.791 219.422 127.062 C 218.04 125.926 217.565 123.767 217.402 122.416 C 217.273 121.273 216.782 120.201 216.001 119.355 C 214.602 117.856 212.052 116.263 208.191 117.981 Z" fill="#2F2E41"/>
  <path d="M 209.398 133.089 C 212.703 133.089 215.382 130.412 215.382 127.11 C 215.382 123.808 212.703 121.132 209.398 121.132 C 206.094 121.132 203.415 123.808 203.415 127.11 C 203.415 130.412 206.094 133.089 209.398 133.089 Z" fill="#FFB7B7"/>
  <path d="M 201.421 138.012 L 200.333 137.65 C 200.333 137.65 198.158 138.555 198.158 140.186 C 198.158 141.817 197.795 148.339 197.795 148.339 L 202.69 148.882 L 201.421 138.012 Z" fill="#CBCBCB"/>
  <path d="M 220.891 173.648 C 220.44 173.143 220.185 172.493 220.174 171.816 C 220.162 171.139 220.393 170.48 220.827 169.959 L 217.773 144.403 C 217.743 143.8 217.953 143.21 218.358 142.762 C 218.763 142.315 219.329 142.046 219.932 142.015 C 220.535 141.984 221.126 142.193 221.575 142.597 C 222.024 143 222.294 143.566 222.326 144.168 C 222.327 144.176 222.327 144.185 222.327 144.193 L 225.059 169.777 C 225.158 169.876 225.25 169.983 225.332 170.096 C 225.551 170.399 225.709 170.742 225.795 171.106 C 225.882 171.469 225.896 171.846 225.836 172.215 C 225.777 172.584 225.646 172.938 225.45 173.256 C 225.253 173.574 224.997 173.85 224.693 174.069 C 224.662 174.092 224.63 174.114 224.598 174.136 C 224.247 174.368 223.849 174.519 223.433 174.579 C 223.016 174.639 222.592 174.607 222.19 174.483 C 221.687 174.331 221.238 174.042 220.891 173.648 Z" fill="#FFB7B7"/>
  <path d="M 218.094 148.338 L 222.99 147.795 C 222.99 147.795 222.627 141.273 222.627 139.642 C 222.627 138.012 220.451 137.106 220.451 137.106 L 219.364 137.468 L 218.094 148.338 Z" fill="#CBCBCB"/>
  <path d="M 202.146 157.388 C 202.146 157.388 197.976 165.006 197.976 174.246 C 197.976 183.486 197.614 225.88 197.614 225.88 C 197.614 225.88 203.053 228.416 206.316 225.336 L 209.217 178.413 L 220.639 224.43 C 220.639 224.43 226.079 225.517 228.617 223.706 L 223.722 191.639 C 223.722 191.639 221.727 161.564 216.288 159.39 C 210.849 157.216 202.146 157.388 202.146 157.388 Z" fill="#2F2E41"/>
  <path d="M 202.933 127.148 C 205.051 125.616 206.766 123.852 207.9 121.754 C 207.9 121.754 211.787 126.069 214.162 126.285 C 216.538 126.501 214.378 121.106 214.378 121.106 L 210.059 120.027 L 205.956 120.459 L 202.717 122.617 L 202.933 127.148 Z" fill="#2F2E41"/>
  <path d="M 215.382 136.019 C 215.382 136.019 215.554 135.926 205.229 136.302 L 200.907 137.492 L 200.333 137.65 C 200.333 137.65 200.877 148.52 202.327 150.513 C 203.778 152.506 203.415 153.593 203.053 153.774 C 202.69 153.955 201.784 153.593 202.327 154.498 C 202.871 155.404 203.597 154.861 202.871 155.404 C 202.146 155.948 201.784 157.941 201.784 157.941 L 217.738 160.115 C 217.738 160.115 218.282 153.049 219.733 149.426 C 221.183 145.802 221.546 144.353 221.546 144.353 L 220.458 137.106 L 215.382 136.019 Z" fill="#CBCBCB"/>
  <path d="M 185.048 105.116 L 184.13 105.116 L 184.13 80.001 C 184.13 76.146 182.598 72.448 179.869 69.722 C 177.141 66.996 173.441 65.465 169.583 65.465 L 116.333 65.465 C 112.474 65.465 108.774 66.996 106.046 69.722 C 103.318 72.448 101.785 76.145 101.785 80.001 L 101.785 217.787 C 101.785 221.642 103.318 225.34 106.046 228.066 C 108.774 230.792 112.474 232.323 116.332 232.323 L 169.583 232.323 C 171.493 232.323 173.385 231.947 175.15 231.217 C 176.915 230.486 178.519 229.416 179.869 228.066 C 181.22 226.716 182.292 225.114 183.023 223.35 C 183.754 221.586 184.13 219.696 184.13 217.787 L 184.13 122.994 L 185.048 122.994 L 185.048 105.116 Z" fill="#3F3D56"/>
  <path d="M 181.034 80.103 L 181.034 217.687 C 181.035 219.111 180.756 220.522 180.212 221.838 C 179.667 223.154 178.869 224.351 177.862 225.359 C 176.855 226.367 175.659 227.167 174.343 227.713 C 173.026 228.259 171.615 228.541 170.19 228.543 L 116.664 228.543 C 113.785 228.545 111.022 227.404 108.985 225.371 C 106.948 223.338 105.802 220.579 105.8 217.702 L 105.8 80.103 C 105.799 78.678 106.079 77.267 106.623 75.951 C 107.168 74.634 107.967 73.438 108.974 72.43 C 109.982 71.422 111.178 70.622 112.495 70.076 C 113.811 69.53 115.223 69.248 116.649 69.247 L 123.155 69.247 C 122.835 70.03 122.713 70.88 122.799 71.721 C 122.886 72.562 123.178 73.37 123.65 74.071 C 124.122 74.773 124.76 75.348 125.507 75.746 C 126.254 76.144 127.087 76.352 127.934 76.351 L 158.441 76.351 C 159.287 76.352 160.121 76.144 160.868 75.746 C 161.615 75.348 162.252 74.773 162.724 74.071 C 163.197 73.37 163.489 72.562 163.575 71.721 C 163.661 70.88 163.539 70.03 163.22 69.247 L 170.17 69.247 C 173.049 69.244 175.811 70.385 177.848 72.417 C 179.885 74.449 181.032 77.207 181.034 80.083 L 181.034 80.103 L 181.034 80.103 Z" fill="white"/>
  <path d="M 181.034 100.458 L 181.034 95.772 L 173.936 95.772 L 173.936 69.917 C 172.73 69.472 171.455 69.245 170.17 69.247 L 169.246 69.247 L 169.246 95.772 L 144.625 95.772 L 144.625 76.352 L 139.935 76.352 L 139.935 95.772 L 119.3 95.772 L 119.3 69.247 L 116.664 69.247 C 115.975 69.246 115.287 69.311 114.61 69.442 L 114.61 95.772 L 105.8 95.772 L 105.8 100.458 L 114.61 100.458 L 114.61 111.298 L 105.8 116.38 L 105.8 121.793 L 114.61 116.71 L 114.61 148.961 L 105.8 148.961 L 105.8 153.648 L 114.61 153.648 L 114.61 200.277 L 105.8 200.277 L 105.8 204.963 L 114.61 204.963 L 114.61 228.348 C 115.287 228.479 115.975 228.544 116.664 228.543 L 119.3 228.543 L 119.3 204.963 L 139.935 204.963 L 139.935 228.543 L 144.625 228.543 L 144.625 204.963 L 169.246 204.963 L 169.246 228.543 L 170.17 228.543 C 171.455 228.544 172.73 228.317 173.936 227.872 L 173.936 204.963 L 181.034 204.963 L 181.034 200.277 L 173.936 200.277 L 173.936 179.892 L 180.971 179.892 L 180.971 175.205 L 173.936 175.205 L 173.936 153.648 L 181.034 153.648 L 181.034 148.961 L 173.936 148.961 L 173.936 120.375 L 181.034 120.375 L 181.034 115.689 L 173.936 115.689 L 173.936 100.458 L 181.034 100.458 Z M 133.4 100.458 L 133.4 100.458 L 119.3 108.593 L 119.3 108.594 L 119.3 100.458 L 133.4 100.458 Z M 119.3 114.004 L 119.3 114.004 L 139.935 102.098 L 139.935 148.961 L 119.3 148.961 L 119.3 114.004 Z M 119.3 200.277 L 119.3 153.648 L 139.935 153.648 L 139.935 200.277 L 119.3 200.277 Z M 169.246 200.277 L 144.625 200.277 L 144.625 179.892 L 169.246 179.892 L 169.246 200.277 Z M 169.246 175.205 L 144.625 175.205 L 144.625 153.648 L 169.246 153.648 L 169.246 175.205 Z M 169.246 148.961 L 144.625 148.961 L 144.625 120.375 L 169.246 120.375 L 169.246 148.961 Z M 169.246 115.689 L 144.625 115.689 L 144.625 100.458 L 169.246 100.458 L 169.246 115.689 Z" fill="#E5E5E5"/>
  <path d="M 184.957 115.775 C 184.957 130.657 157.991 163.81 157.991 163.81 C 157.991 163.81 131.024 130.657 131.024 115.775 C 131.024 108.629 133.865 101.775 138.922 96.721 C 143.98 91.668 150.839 88.829 157.991 88.829 C 165.143 88.829 172.002 91.668 177.059 96.721 C 182.116 101.775 184.957 108.629 184.957 115.775 Z" fill="#FD8B10"/>
  <path d="M 173.936 114.604 C 173.936 117.755 173.001 120.836 171.249 123.456 C 169.497 126.076 167.007 128.118 164.093 129.324 C 161.179 130.53 157.973 130.846 154.88 130.231 C 151.787 129.616 148.946 128.099 146.716 125.87 C 144.486 123.642 142.967 120.803 142.352 117.712 C 141.737 114.621 142.052 111.418 143.259 108.506 C 144.466 105.595 146.51 103.106 149.132 101.355 C 151.754 99.605 154.837 98.67 157.991 98.67 C 160.084 98.669 162.157 99.08 164.091 99.88 C 166.025 100.679 167.782 101.851 169.263 103.33 C 170.744 104.808 171.918 106.563 172.72 108.495 C 173.522 110.427 173.935 112.498 173.936 114.589 L 173.936 114.604 Z" fill="white"/>
  <path d="M 157.935 120.893 C 161.216 120.893 163.876 118.236 163.876 114.957 C 163.876 111.679 161.216 109.021 157.935 109.021 C 154.655 109.021 151.995 111.679 151.995 114.957 C 151.995 118.236 154.655 120.893 157.935 120.893 Z" fill="#FD8B10"/>
  <path d="M 166.557 128.515 C 163.996 130.142 161.024 131.006 157.989 131.006 C 154.955 131.005 151.983 130.141 149.423 128.513 C 149.955 126.653 151.079 125.017 152.625 123.852 C 154.171 122.687 156.055 122.058 157.991 122.058 C 159.927 122.058 161.81 122.688 163.355 123.853 C 164.901 125.019 166.025 126.655 166.557 128.515 Z" fill="#FD8B10"/>
  <path d="M 157.991 183.259 C 162.005 183.259 165.26 180.007 165.26 175.995 C 165.26 171.983 162.005 168.731 157.991 168.731 C 153.976 168.731 150.721 171.983 150.721 175.995 C 150.721 180.007 153.976 183.259 157.991 183.259 Z" fill="#FD8B10"/>
  <path d="M 270.458 232.465 L 81.926 232.465 C 81.864 232.465 81.804 232.44 81.76 232.396 C 81.716 232.352 81.692 232.293 81.692 232.231 C 81.692 232.168 81.716 232.109 81.76 232.065 C 81.804 232.021 81.864 231.996 81.926 231.996 L 270.458 231.996 C 270.52 231.996 270.579 232.021 270.623 232.065 C 270.667 232.109 270.692 232.168 270.692 232.231 C 270.692 232.293 270.667 232.352 270.623 232.396 C 270.579 232.44 270.52 232.465 270.458 232.465 Z" fill="#CBCBCB"/>
</svg>