<?xml version="1.0" encoding="utf-8"?>
<svg viewBox="0 0 352.384 297.929" xmlns="http://www.w3.org/2000/svg">
  <g transform="matrix(1, 0, 0, 1, -49.080003, 21.9445)">
    <path d="M 291.68 219.52 C 314.651 219.52 333.272 215.682 333.272 210.947 C 333.272 206.213 314.651 202.375 291.68 202.375 C 268.71 202.375 250.088 206.213 250.088 210.947 C 250.088 215.682 268.71 219.52 291.68 219.52 Z" fill="#F2F2F2"/>
    <path d="M 129.992 142.375 C 130.24 142.951 130.502 143.534 130.771 144.106 L 130.194 144.376 C 129.922 143.797 129.657 143.209 129.406 142.626 L 129.992 142.375 Z" fill="#E6E6E6"/>
    <path d="M 232.925 96.291 C 233.289 97.065 233.639 97.853 233.964 98.634 L 233.376 98.878 C 232.888 97.708 232.349 96.529 231.78 95.389 L 232.351 95.106 C 232.546 95.497 232.737 95.892 232.925 96.291 Z M 230.502 91.694 L 229.952 92.015 C 229.305 90.914 228.614 89.824 227.897 88.774 L 228.424 88.416 C 229.149 89.478 229.848 90.581 230.502 91.694 Z M 235.336 102.263 C 235.75 103.485 236.126 104.734 236.455 105.977 L 235.838 106.138 C 235.514 104.91 235.141 103.675 234.731 102.467 L 235.336 102.263 Z M 226.126 85.289 L 225.625 85.682 C 224.836 84.681 224.001 83.696 223.145 82.752 L 223.617 82.325 C 224.484 83.28 225.328 84.277 226.126 85.289 Z M 237.315 109.759 C 237.557 111.023 237.758 112.312 237.912 113.591 L 237.279 113.667 C 237.126 112.402 236.928 111.127 236.689 109.877 L 237.315 109.759 Z M 220.909 79.542 L 220.467 80.001 C 219.547 79.119 218.585 78.258 217.609 77.442 L 218.018 76.955 C 219.006 77.78 219.978 78.65 220.909 79.542 Z M 238.243 117.461 C 238.308 118.75 238.329 120.056 238.304 121.343 L 237.667 121.331 C 237.691 120.059 237.67 118.767 237.606 117.493 L 238.243 117.461 Z M 214.955 74.571 L 214.581 75.086 C 213.548 74.338 212.476 73.616 211.396 72.941 L 211.734 72.402 C 212.827 73.085 213.911 73.815 214.955 74.571 Z M 238.098 125.22 C 237.985 126.505 237.826 127.801 237.626 129.072 L 236.996 128.973 C 237.194 127.716 237.352 126.435 237.463 125.164 L 238.098 125.22 Z M 208.372 70.458 L 208.071 71.018 C 206.946 70.418 205.785 69.848 204.622 69.326 L 204.883 68.746 C 206.06 69.274 207.234 69.85 208.372 70.458 Z M 236.891 132.882 C 236.603 134.137 236.269 135.398 235.897 136.633 L 235.286 136.449 C 235.654 135.229 235.985 133.982 236.269 132.741 L 236.891 132.882 Z M 201.285 67.275 L 201.064 67.871 C 199.867 67.428 198.639 67.021 197.414 66.661 L 197.595 66.051 C 198.833 66.416 200.075 66.827 201.285 67.275 Z M 234.649 140.306 C 234.193 141.512 233.69 142.716 233.154 143.886 L 232.574 143.622 C 233.104 142.465 233.602 141.274 234.052 140.082 L 234.649 140.306 Z M 193.828 65.081 L 193.689 65.702 C 192.444 65.426 191.172 65.189 189.908 64.998 L 190.004 64.369 C 191.282 64.562 192.569 64.802 193.828 65.081 Z M 231.418 147.356 C 230.802 148.488 230.139 149.612 229.449 150.698 L 228.91 150.358 C 229.593 149.284 230.248 148.172 230.857 147.052 L 231.418 147.356 Z M 186.138 63.92 L 186.086 64.554 C 184.812 64.45 183.519 64.389 182.242 64.372 L 182.25 63.737 C 183.542 63.753 184.85 63.815 186.138 63.92 L 186.138 63.92 Z M 227.255 153.898 C 226.491 154.935 225.681 155.958 224.848 156.939 L 224.362 156.528 C 225.185 155.558 225.986 154.546 226.742 153.521 L 227.255 153.898 Z M 178.357 63.82 L 178.393 64.455 C 177.117 64.527 175.827 64.644 174.558 64.803 L 174.479 64.172 C 175.762 64.011 177.067 63.892 178.357 63.82 Z M 222.238 159.807 C 221.337 160.73 220.393 161.634 219.432 162.492 L 219.007 162.018 C 219.957 161.17 220.89 160.277 221.781 159.364 L 222.238 159.807 Z M 170.639 64.789 L 170.762 65.414 C 169.509 65.659 168.25 65.952 167.018 66.283 L 166.852 65.669 C 168.098 65.335 169.372 65.039 170.639 64.789 Z M 216.447 164.977 C 215.428 165.768 214.368 166.533 213.297 167.252 L 212.941 166.724 C 214 166.014 215.048 165.257 216.055 164.476 L 216.447 164.977 Z M 163.135 66.806 L 163.342 67.407 C 162.137 67.822 160.93 68.283 159.752 68.78 L 159.504 68.194 C 160.695 67.692 161.916 67.225 163.135 66.806 Z M 209.998 169.305 C 208.882 169.948 207.728 170.562 206.567 171.13 L 206.287 170.559 C 207.434 169.997 208.576 169.39 209.679 168.754 L 209.998 169.305 Z M 156.263 70.392 C 155.122 70.966 153.987 71.585 152.891 72.233 L 152.565 71.686 C 153.674 71.031 154.822 70.404 155.976 69.824 L 156.263 70.392 Z M 149.652 74.3 C 148.6 75.024 147.561 75.792 146.564 76.584 L 146.167 76.087 C 147.175 75.286 148.226 74.509 149.29 73.776 L 149.652 74.3 Z M 143.641 79.075 C 142.701 79.934 141.778 80.837 140.9 81.758 L 140.438 81.32 C 141.326 80.388 142.259 79.475 143.21 78.606 L 143.641 79.075 Z M 138.351 84.624 C 137.537 85.605 136.747 86.626 136.004 87.658 L 135.486 87.288 C 136.238 86.243 137.036 85.211 137.859 84.218 L 138.351 84.624 Z M 133.871 90.847 C 133.199 91.931 132.556 93.051 131.962 94.174 L 131.398 93.878 C 131.999 92.741 132.649 91.609 133.329 90.512 L 133.871 90.847 Z M 130.284 97.625 C 129.766 98.788 129.282 99.985 128.845 101.181 L 128.246 100.963 C 128.688 99.753 129.178 98.543 129.701 97.367 L 130.284 97.625 Z M 127.653 104.827 C 127.298 106.052 126.981 107.304 126.712 108.547 L 126.089 108.413 C 126.361 107.156 126.682 105.89 127.04 104.651 L 127.653 104.827 Z M 126.027 112.322 C 125.843 113.585 125.701 114.868 125.604 116.136 L 124.968 116.088 C 125.066 114.805 125.21 113.507 125.396 112.231 L 126.027 112.322 Z M 125.444 119.971 C 125.435 121.246 125.47 122.537 125.549 123.808 L 124.913 123.847 C 124.833 122.561 124.797 121.256 124.806 119.966 L 125.444 119.971 Z M 125.919 127.629 C 126.086 128.891 126.299 130.163 126.553 131.411 L 125.928 131.537 C 125.671 130.275 125.456 128.988 125.287 127.712 L 125.919 127.629 Z M 127.446 135.14 C 127.786 136.366 128.172 137.598 128.595 138.8 L 127.993 139.01 C 127.565 137.794 127.175 136.549 126.832 135.309 L 127.446 135.14 Z" fill="#E6E6E6"/>
    <path d="M 202.692 172.166 L 202.933 172.755 C 202.337 172.998 201.734 173.231 201.14 173.449 L 200.92 172.853 C 201.506 172.637 202.103 172.406 202.692 172.166 Z" fill="#E6E6E6"/>
    <path d="M 232.66 145.554 C 232.597 145.45 231.096 142.951 230.576 137.763 C 230.099 133.004 230.406 124.981 234.578 113.789 C 242.482 92.587 232.757 75.48 232.657 75.31 L 233.137 75.032 C 233.162 75.075 235.672 79.437 237.154 86.382 C 239.113 95.59 238.4 105.164 235.098 113.982 C 227.208 135.147 233.074 145.167 233.134 145.265 L 232.66 145.554 Z" fill="#3F3D56"/>
    <path d="M 229.57 74.065 C 231.561 74.065 233.174 72.455 233.174 70.47 C 233.174 68.484 231.561 66.875 229.57 66.875 C 227.579 66.875 225.965 68.484 225.965 70.47 C 225.965 72.455 227.579 74.065 229.57 74.065 Z" fill="#FD8B10"/>
    <path d="M 240.938 87.338 C 242.929 87.338 244.543 85.729 244.543 83.743 C 244.543 81.758 242.929 80.148 240.938 80.148 C 238.947 80.148 237.334 81.758 237.334 83.743 C 237.334 85.729 238.947 87.338 240.938 87.338 Z" fill="#3F3D56"/>
    <path d="M 233.174 96.187 C 235.165 96.187 236.779 94.578 236.779 92.592 C 236.779 90.607 235.165 88.997 233.174 88.997 C 231.184 88.997 229.57 90.607 229.57 92.592 C 229.57 94.578 231.184 96.187 233.174 96.187 Z" fill="#FD8B10"/>
    <path d="M 242.602 103.653 C 244.593 103.653 246.207 102.044 246.207 100.058 C 246.207 98.073 244.593 96.464 242.602 96.464 C 240.611 96.464 238.997 98.073 238.997 100.058 C 238.997 102.044 240.611 103.653 242.602 103.653 Z" fill="#FD8B10"/>
    <path d="M 230.402 115.268 C 232.392 115.268 234.006 113.658 234.006 111.673 C 234.006 109.688 232.392 108.078 230.402 108.078 C 228.411 108.078 226.797 109.688 226.797 111.673 C 226.797 113.658 228.411 115.268 230.402 115.268 Z" fill="#3F3D56"/>
    <path d="M 234.838 145.686 C 234.838 145.686 231.234 136.837 242.047 130.201 L 234.838 145.686 Z" fill="#3F3D56"/>
    <path d="M 230.405 145.525 C 230.405 145.525 228.764 136.115 216.068 136.196 L 230.405 145.525 Z" fill="#3F3D56"/>
    <path d="M 206.609 79.554 C 206.479 79.523 206.343 79.54 206.225 79.602 C 206.107 79.664 206.015 79.767 205.967 79.891 C 205.919 80.015 205.918 80.152 205.964 80.277 C 206.01 80.402 206.1 80.506 206.217 80.57 C 208.098 81.617 209.753 83.025 211.087 84.713 C 217.303 92.583 215.133 104.627 206.238 111.616 C 202.289 114.774 197.365 116.47 192.303 116.417 C 198.275 118.096 205.324 116.775 211.005 112.312 C 219.898 105.324 222.069 93.279 215.853 85.409 C 213.518 82.478 210.262 80.416 206.609 79.554 Z" fill="#3F3D56"/>
    <path d="M 211.087 84.833 C 217.303 92.702 215.133 104.747 206.238 111.735 C 202.979 114.324 199.056 115.948 194.916 116.421 C 199.861 116.391 204.65 114.698 208.509 111.616 C 217.403 104.628 219.573 92.583 213.357 84.713 C 211.594 82.487 209.282 80.754 206.647 79.684 L 206.606 79.674 C 206.476 79.644 206.34 79.661 206.223 79.724 C 206.105 79.786 206.015 79.889 205.967 80.013 C 205.92 80.136 205.919 80.273 205.965 80.398 C 206.011 80.522 206.101 80.626 206.218 80.689 C 208.099 81.737 209.753 83.145 211.087 84.833 Z" fill="#FD8B10"/>
    <path d="M 183.516 72.682 L 187.185 79.02 L 190.855 85.359 L 183.516 85.359 L 176.177 85.359 L 179.846 79.02 L 183.516 72.682 Z" fill="#FD8B10"/>
    <path d="M 196.9 72.682 L 200.57 79.02 L 204.239 85.359 L 196.9 85.359 L 189.561 85.359 L 193.231 79.02 L 196.9 72.682 Z" fill="#FD8B10"/>
    <path d="M 183.092 75.988 L 185.355 79.899 L 187.619 83.81 L 183.092 83.81 L 178.563 83.81 L 180.827 79.899 L 183.092 75.988 Z" fill="#3F3D56"/>
    <path d="M 196.846 75.988 L 199.11 79.899 L 201.374 83.81 L 196.846 83.81 L 192.319 83.81 L 194.582 79.899 L 196.846 75.988 Z" fill="#3F3D56"/>
    <path d="M 216.021 117.776 C 216.021 123.636 214.017 129.32 210.34 133.889 C 206.663 138.459 201.533 141.641 195.798 142.91 C 190.062 144.179 184.064 143.459 178.795 140.869 C 173.525 138.278 169.299 133.973 166.815 128.663 C 164.331 123.354 163.737 117.358 165.131 111.666 C 166.526 105.975 169.826 100.928 174.485 97.359 C 179.145 93.791 184.886 91.914 190.759 92.039 C 196.633 92.165 202.288 94.284 206.79 98.048 C 209.68 100.465 212.005 103.483 213.599 106.892 C 215.194 110.3 216.02 114.015 216.021 117.776 Z" fill="#3F3D56"/>
    <path opacity="0.1" d="M 206.79 98.048 C 204.631 103.673 198.023 107.765 190.208 107.765 C 182.392 107.765 175.785 103.673 173.626 98.048 C 178.273 94.163 184.144 92.033 190.208 92.033 C 196.272 92.033 202.143 94.163 206.79 98.048 Z" fill="black"/>
    <path d="M 190.208 105.739 C 199.778 105.739 207.536 99.603 207.536 92.033 C 207.536 84.464 199.778 78.328 190.208 78.328 C 180.638 78.328 172.88 84.464 172.88 92.033 C 172.88 99.603 180.638 105.739 190.208 105.739 Z" fill="#3F3D56"/>
    <path d="M 182.082 93.344 C 183.864 93.344 185.308 91.904 185.308 90.127 C 185.308 88.349 183.864 86.909 182.082 86.909 C 180.3 86.909 178.855 88.349 178.855 90.127 C 178.855 91.904 180.3 93.344 182.082 93.344 Z" fill="white"/>
    <path d="M 198.334 93.344 C 200.116 93.344 201.561 91.904 201.561 90.127 C 201.561 88.349 200.116 86.909 198.334 86.909 C 196.552 86.909 195.108 88.349 195.108 90.127 C 195.108 91.904 196.552 93.344 198.334 93.344 Z" fill="white"/>
    <path d="M 182.082 92.153 C 183.204 92.153 184.113 91.246 184.113 90.127 C 184.113 89.008 183.204 88.101 182.082 88.101 C 180.96 88.101 180.05 89.008 180.05 90.127 C 180.05 91.246 180.96 92.153 182.082 92.153 Z" fill="#3F3D56"/>
    <path d="M 198.334 92.153 C 199.456 92.153 200.366 91.246 200.366 90.127 C 200.366 89.008 199.456 88.101 198.334 88.101 C 197.212 88.101 196.303 89.008 196.303 90.127 C 196.303 91.246 197.212 92.153 198.334 92.153 Z" fill="#3F3D56"/>
    <path d="M 186.584 95.25 C 186.914 95.25 187.182 94.984 187.182 94.654 C 187.182 94.325 186.914 94.059 186.584 94.059 C 186.254 94.059 185.987 94.325 185.987 94.654 C 185.987 94.984 186.254 95.25 186.584 95.25 Z" fill="#FD8B10"/>
    <path d="M 186.355 94.503 C 185.182 95.034 184.406 96.114 183.175 96.579 C 181.92 97.05 180.541 97.076 179.269 96.651 C 179.05 96.579 178.956 96.924 179.174 96.996 C 180.447 97.419 181.824 97.415 183.096 96.986 C 183.697 96.782 184.261 96.483 184.767 96.1 C 185.354 95.656 185.855 95.12 186.536 94.812 C 186.745 94.717 186.563 94.409 186.355 94.503 Z" fill="#FD8B10"/>
    <path d="M 186.822 94.351 C 186.222 94.489 185.645 94.707 185.104 94.999 C 184.482 95.298 183.812 95.486 183.124 95.554 C 181.82 95.667 180.515 95.338 179.421 94.619 C 179.227 94.493 179.048 94.803 179.24 94.928 C 180.335 95.645 181.631 95.994 182.939 95.925 C 183.574 95.892 184.199 95.757 184.791 95.525 C 185.503 95.241 186.15 94.828 186.917 94.696 C 187.144 94.657 187.048 94.312 186.822 94.351 L 186.822 94.351 Z" fill="#FD8B10"/>
    <path d="M 186.501 94.12 C 185.589 94.978 185.21 96.219 184.242 97.05 C 183.2 97.944 181.874 98.441 180.5 98.453 C 180.453 98.454 180.409 98.474 180.377 98.507 C 180.344 98.54 180.326 98.585 180.326 98.631 C 180.326 98.678 180.344 98.722 180.377 98.756 C 180.409 98.789 180.453 98.809 180.5 98.81 C 181.83 98.8 183.122 98.361 184.181 97.558 C 184.659 97.196 185.08 96.763 185.428 96.275 C 185.879 95.638 186.178 94.916 186.755 94.372 C 186.923 94.214 186.669 93.962 186.501 94.12 L 186.501 94.12 Z" fill="#FD8B10"/>
    <path d="M 192.876 95.25 C 193.206 95.25 193.473 94.984 193.473 94.654 C 193.473 94.325 193.206 94.059 192.876 94.059 C 192.546 94.059 192.278 94.325 192.278 94.654 C 192.278 94.984 192.546 95.25 192.876 95.25 Z" fill="#FD8B10"/>
    <path d="M 192.924 94.812 C 193.598 95.117 194.096 95.644 194.675 96.086 C 195.185 96.475 195.756 96.779 196.364 96.986 C 197.635 97.416 199.013 97.42 200.286 96.996 C 200.504 96.924 200.41 96.578 200.19 96.651 C 198.919 97.076 197.54 97.05 196.285 96.579 C 195.054 96.114 194.278 95.034 193.105 94.503 C 192.897 94.409 192.714 94.717 192.924 94.812 Z" fill="#FD8B10"/>
    <path d="M 192.543 94.696 C 193.28 94.822 193.902 95.21 194.583 95.49 C 195.2 95.743 195.855 95.89 196.521 95.925 C 197.829 95.994 199.125 95.645 200.22 94.928 C 200.412 94.803 200.233 94.493 200.039 94.619 C 198.946 95.339 197.64 95.669 196.336 95.554 C 195.648 95.485 194.978 95.297 194.356 94.999 C 193.815 94.707 193.237 94.489 192.638 94.351 C 192.413 94.312 192.316 94.657 192.543 94.696 L 192.543 94.696 Z" fill="#FD8B10"/>
    <path d="M 192.705 94.372 C 193.282 94.915 193.581 95.639 194.032 96.275 C 194.381 96.763 194.801 97.196 195.279 97.558 C 196.338 98.361 197.63 98.8 198.96 98.81 C 199.007 98.809 199.051 98.789 199.083 98.756 C 199.115 98.722 199.134 98.678 199.134 98.631 C 199.134 98.585 199.115 98.54 199.083 98.507 C 199.051 98.474 199.007 98.454 198.96 98.453 C 197.586 98.443 196.259 97.946 195.218 97.05 C 194.254 96.216 193.871 94.978 192.959 94.12 C 192.791 93.962 192.537 94.214 192.705 94.372 L 192.705 94.372 Z" fill="#FD8B10"/>
    <path d="M 182.082 145.307 C 184.722 145.307 186.862 144.08 186.862 142.566 C 186.862 141.052 184.722 139.824 182.082 139.824 C 179.442 139.824 177.302 141.052 177.302 142.566 C 177.302 144.08 179.442 145.307 182.082 145.307 Z" fill="#3F3D56"/>
    <path d="M 198.334 145.307 C 200.974 145.307 203.114 144.08 203.114 142.566 C 203.114 141.052 200.974 139.824 198.334 139.824 C 195.694 139.824 193.554 141.052 193.554 142.566 C 193.554 144.08 195.694 145.307 198.334 145.307 Z" fill="#3F3D56"/>
    <path d="M 189.73 96.801 C 191.908 96.801 193.674 95.787 193.674 94.536 C 193.674 93.285 191.908 92.272 189.73 92.272 C 187.552 92.272 185.786 93.285 185.786 94.536 C 185.786 95.787 187.552 96.801 189.73 96.801 Z" fill="#FD8B10"/>
    <path d="M 117.272 34.52 L 117.272 188.272 L 323.845 188.272 L 323.845 34.52 L 117.272 34.52 Z M 143.891 36.456 C 144.549 36.456 145.192 36.651 145.74 37.015 C 146.287 37.38 146.713 37.898 146.965 38.505 C 147.217 39.111 147.283 39.778 147.154 40.422 C 147.026 41.066 146.709 41.657 146.244 42.121 C 145.778 42.585 145.186 42.901 144.54 43.029 C 143.895 43.157 143.226 43.092 142.618 42.84 C 142.01 42.589 141.49 42.164 141.124 41.618 C 140.759 41.072 140.564 40.431 140.564 39.775 C 140.564 38.894 140.914 38.05 141.538 37.428 C 142.162 36.806 143.009 36.456 143.891 36.456 Z M 123.927 43.093 C 123.269 43.093 122.626 42.898 122.078 42.534 C 121.531 42.169 121.105 41.651 120.853 41.044 C 120.601 40.438 120.535 39.771 120.664 39.127 C 120.792 38.483 121.109 37.892 121.574 37.428 C 122.04 36.964 122.632 36.648 123.278 36.52 C 123.923 36.392 124.592 36.458 125.2 36.709 C 125.808 36.96 126.328 37.385 126.694 37.931 C 127.059 38.477 127.254 39.118 127.254 39.775 C 127.254 40.655 126.904 41.499 126.28 42.121 C 125.656 42.743 124.809 43.093 123.927 43.093 Z M 130.582 39.775 C 130.582 39.118 130.777 38.477 131.142 37.931 C 131.508 37.385 132.028 36.96 132.636 36.709 C 133.244 36.458 133.913 36.392 134.558 36.52 C 135.204 36.648 135.796 36.964 136.262 37.428 C 136.727 37.892 137.044 38.483 137.172 39.127 C 137.301 39.771 137.235 40.438 136.983 41.044 C 136.731 41.651 136.305 42.169 135.758 42.534 C 135.21 42.898 134.567 43.093 133.909 43.093 C 133.026 43.093 132.18 42.743 131.556 42.121 C 130.932 41.499 130.582 40.655 130.582 39.775 Z M 245.097 145.133 L 133.909 145.133 L 133.909 62.727 L 245.097 62.727 L 245.097 145.133 Z" fill="#F2F2F2"/>
    <path d="M 319.408 37.286 L 312.753 37.286 L 312.753 38.115 L 319.408 38.115 L 319.408 37.286 Z" fill="white"/>
    <path d="M 319.408 39.775 L 312.753 39.775 L 312.753 40.604 L 319.408 40.604 L 319.408 39.775 Z" fill="white"/>
    <path d="M 319.408 42.263 L 312.753 42.263 L 312.753 43.093 L 319.408 43.093 L 319.408 42.263 Z" fill="white"/>
    <path d="M 312.753 61.344 L 262.566 61.344 L 262.566 63.833 L 312.753 63.833 L 312.753 61.344 Z" fill="white"/>
    <path d="M 312.753 69.916 L 262.566 69.916 L 262.566 72.405 L 312.753 72.405 L 312.753 69.916 Z" fill="white"/>
    <path d="M 312.753 78.489 L 262.566 78.489 L 262.566 80.978 L 312.753 80.978 L 312.753 78.489 Z" fill="white"/>
    <path d="M 312.753 87.061 L 262.566 87.061 L 262.566 89.55 L 312.753 89.55 L 312.753 87.061 Z" fill="white"/>
    <path d="M 312.753 95.634 L 262.566 95.634 L 262.566 98.123 L 312.753 98.123 L 312.753 95.634 Z" fill="white"/>
    <path d="M 312.753 104.206 L 262.566 104.206 L 262.566 106.695 L 312.753 106.695 L 312.753 104.206 Z" fill="white"/>
    <path d="M 312.753 112.779 L 262.566 112.779 L 262.566 115.268 L 312.753 115.268 L 312.753 112.779 Z" fill="white"/>
    <path d="M 312.753 121.352 L 262.566 121.352 L 262.566 123.84 L 312.753 123.84 L 312.753 121.352 Z" fill="white"/>
    <path d="M 312.753 129.924 L 262.566 129.924 L 262.566 132.413 L 312.753 132.413 L 312.753 129.924 Z" fill="white"/>
    <path d="M 312.753 138.496 L 262.566 138.496 L 262.566 140.985 L 312.753 140.985 L 312.753 138.496 Z" fill="white"/>
    <path d="M 140.564 154.258 C 142.401 154.258 143.891 152.773 143.891 150.94 C 143.891 149.107 142.401 147.622 140.564 147.622 C 138.726 147.622 137.236 149.107 137.236 150.94 C 137.236 152.773 138.726 154.258 140.564 154.258 Z" fill="white"/>
    <path d="M 151.932 154.258 C 153.77 154.258 155.259 152.773 155.259 150.94 C 155.259 149.107 153.77 147.622 151.932 147.622 C 150.094 147.622 148.605 149.107 148.605 150.94 C 148.605 152.773 150.094 154.258 151.932 154.258 Z" fill="white"/>
    <path d="M 163.301 154.258 C 165.138 154.258 166.628 152.773 166.628 150.94 C 166.628 149.107 165.138 147.622 163.301 147.622 C 161.463 147.622 159.973 149.107 159.973 150.94 C 159.973 152.773 161.463 154.258 163.301 154.258 Z" fill="white"/>
    <path d="M 312.753 167.255 L 262.566 167.255 L 262.566 181.358 L 312.753 181.358 L 312.753 167.255 Z" fill="#FD8B10"/>
    <path d="M 287.51 156.041 L 288.071 175.634 L 294.058 198.585 C 294.058 198.585 292.749 202.504 293.684 203.436 C 294.62 204.369 298.923 206.049 298.923 206.049 L 295.368 157.161 L 287.51 156.041 Z" fill="#2F2E41"/>
    <path d="M 300.509 203.341 C 300.509 203.341 302.644 208.026 299.655 208.451 C 296.665 208.877 282.858 210.013 283.712 207.6 C 284.566 205.186 294.957 202.915 294.957 202.915 L 300.509 203.341 Z" fill="#2F2E41"/>
    <path d="M 308.465 138.688 C 308.465 138.688 306.22 150.816 304.723 152.869 C 303.226 154.922 305.471 169.849 305.471 169.849 C 305.471 169.849 308.839 191.308 307.342 194.667 C 305.846 198.025 306.22 196.906 306.407 198.772 C 306.594 200.638 306.968 202.13 306.407 203.81 C 305.846 205.489 305.846 205.303 305.659 206.236 C 305.471 207.168 305.659 212.207 305.659 212.207 C 305.659 212.207 297.613 215.006 296.304 210.9 C 296.304 210.9 298.175 208.288 297.613 206.236 C 297.028 204.17 296.714 202.037 296.678 199.891 L 296.678 195.973 L 288.071 163.878 L 286.013 152.309 C 286.013 152.309 286.574 140.554 288.632 139.434 C 290.691 138.314 308.465 138.688 308.465 138.688 Z" fill="#2F2E41"/>
    <path d="M 305.097 211.274 C 305.097 211.274 307.904 217.431 303.975 217.991 C 300.046 218.551 281.897 220.044 283.019 216.872 C 284.142 213.699 297.8 210.714 297.8 210.714 L 305.097 211.274 Z" fill="#2F2E41"/>
    <path d="M 301.54 84.956 C 305.674 84.956 309.024 81.614 309.024 77.492 C 309.024 73.37 305.674 70.028 301.54 70.028 C 297.407 70.028 294.056 73.37 294.056 77.492 C 294.056 81.614 297.407 84.956 301.54 84.956 Z" fill="#FFB9B9"/>
    <path d="M 306.799 80.791 L 306.66 90.322 L 297.485 90.353 C 297.485 90.353 299.813 82.892 298.77 81.331 C 297.727 79.771 306.799 80.791 306.799 80.791 Z" fill="#FFB9B9"/>
    <path d="M 293.123 95.584 C 293.123 95.584 299.671 87.187 304.723 90.733 C 309.775 94.278 311.646 102.675 311.646 102.675 L 310.523 126.186 C 310.523 126.186 307.717 129.545 309.4 131.784 C 311.084 134.023 312.02 133.463 310.71 135.142 C 309.4 136.822 307.904 138.128 308.465 138.688 C 309.026 139.247 307.904 139.621 307.904 139.621 L 288.071 140.18 C 288.071 140.18 288.632 139.434 286.948 137.195 C 285.265 134.956 287.323 131.971 286.948 130.851 C 286.574 129.731 286.2 131.038 286.013 128.425 C 285.826 125.813 293.123 95.584 293.123 95.584 Z" fill="#3F3D56"/>
    <path d="M 294.994 143.726 C 294.994 143.726 294.62 148.39 291.813 149.137 C 290.761 149.417 289.971 148.883 289.396 148.107 C 288.858 147.363 288.557 146.475 288.531 145.559 C 288.505 144.642 288.755 143.739 289.249 142.966 L 289.942 141.86 L 294.994 143.726 Z" fill="#FFB9B9"/>
    <path d="M 312.301 86.161 C 312.301 86.161 312.488 89.893 312.301 90.453 C 312.113 91.013 311.926 91.572 312.301 92.132 C 312.675 92.692 312.488 94.558 312.113 94.744 C 311.739 94.931 312.862 96.61 312.488 97.73 C 312.113 98.85 311.739 99.223 311.552 99.596 C 311.365 99.969 311.064 100.638 311.064 100.638 C 311.064 100.638 305.565 88.96 301.075 91.759 C 296.584 94.558 293.029 95.491 293.029 95.491 C 293.029 95.491 295.462 82.429 312.301 86.161 Z" fill="#3F3D56"/>
    <path d="M 304.162 94.838 C 304.162 94.838 310.149 95.398 309.775 103.235 C 309.401 111.072 310.336 123.387 310.336 123.387 C 310.336 123.387 300.046 139.061 298.362 140.18 C 296.678 141.3 296.491 141.113 296.678 142.046 C 296.865 142.979 297.052 143.726 296.304 144.472 C 295.862 144.916 295.357 145.293 294.807 145.592 C 294.807 145.592 288.819 143.539 289.381 141.673 C 289.942 139.807 292.562 136.822 292.562 136.822 C 292.562 136.822 297.052 129.545 297.239 128.425 C 297.426 127.306 297.426 127.492 297.987 126.932 C 298.549 126.373 300.046 124.134 300.046 123.014 L 300.046 119.469 L 298.477 100.522 C 298.406 99.751 298.499 98.973 298.751 98.24 C 299.003 97.506 299.407 96.835 299.938 96.269 C 300.828 95.339 302.174 94.6 304.162 94.838 Z" fill="#3F3D56"/>
    <path d="M 296.714 71.736 C 296.226 71.871 295.713 71.883 295.219 71.77 C 294.726 71.657 294.268 71.424 293.888 71.091 C 293.157 70.398 292.911 69.197 293.431 68.335 C 293.881 67.591 294.755 67.227 295.586 66.968 C 297.421 66.398 299.331 66.107 301.253 66.106 C 302.169 66.106 303.125 66.183 303.909 66.656 C 304.297 66.89 304.626 67.211 305.009 67.452 C 305.714 67.896 306.561 68.043 307.335 68.351 C 308.127 68.672 308.84 69.158 309.427 69.778 C 310.014 70.398 310.46 71.136 310.736 71.942 C 310.913 72.489 311.024 73.056 311.066 73.629 C 311.193 75.2 310.915 76.777 310.258 78.211 C 309.214 80.481 307.227 82.39 306.946 84.872 C 305.876 83.976 305.563 82.474 304.734 81.353 C 304.118 80.524 303.237 79.928 302.237 79.662 C 301.958 79.625 301.695 79.508 301.481 79.325 C 301.337 79.127 301.255 78.89 301.244 78.646 L 300.731 74.958 C 300.626 74.208 300.485 73.388 299.908 72.895 C 299.545 72.627 299.126 72.445 298.681 72.365 C 297.631 72.104 296.56 71.93 295.481 71.844" fill="#2F2E41"/>
    <path opacity="0.1" d="M 309.426 126.053 L 298.923 139.646 C 298.923 139.646 308.594 131.583 309.426 126.053 Z" fill="black"/>
    <path opacity="0.1" d="M 299.344 111.002 L 299.444 123.84 L 293.344 132.966 L 298.335 122.734 L 299.344 111.002 Z" fill="black"/>
  </g>
</svg>